M48
;GenerationSoftware,Autodesk,EAGLE,9.6.2*%
;CreationDate,2021-08-23T19:10:51Z*%
FMAT,2
ICI,OFF
METRIC,TZ,000.000
T7C0.350
T6C0.700
T5C0.813
T4C0.900
T3C1.000
T2C1.016
%
G90
M71
T2
X67945Y18415
X63500Y31750
X66040Y31750
X63500Y29210
X66040Y29210
X63500Y26670
X66040Y26670
X60325Y15875
X60325Y18415
X62865Y15875
X62865Y18415
X65405Y15875
X65405Y18415
X67945Y15875
T3
X66040Y50800
X63500Y53340
X66040Y45720
X66040Y48260
X66040Y53340
X63500Y50800
X63500Y48260
X63500Y45720
T4
X36830Y57150
X44450Y57150
T5
X55880Y39370
X55880Y54610
X55880Y52070
X55880Y49530
X55880Y46990
X55880Y44450
X55880Y41910
X55880Y36830
X36830Y52070
X39370Y52070
X48260Y54610
X48260Y52070
X48260Y49530
X48260Y46990
X48260Y44450
X48260Y41910
X48260Y39370
X48260Y36830
X48260Y34290
X48260Y29210
X55880Y34290
X55880Y31750
X55880Y29210
X55880Y26670
X55880Y24130
X55880Y21590
X48260Y21590
X48260Y24130
X48260Y26670
X48260Y31750
T6
X39370Y33020
X39370Y38100
X39390Y17780
X41890Y17780
X39370Y46990
X39370Y44450
X39370Y26670
X39370Y24130
T7
X50800Y46990
X53340Y46990
X66040Y43180
M30