G04 EAGLE Gerber RS-274X export*
G75*
%MOMM*%
%FSLAX34Y34*%
%LPD*%
%INTop Copper*%
%IPPOS*%
%AMOC8*
5,1,8,0,0,1.08239X$1,22.5*%
G01*
%ADD10C,1.651000*%
%ADD11R,1.651000X1.651000*%
%ADD12C,1.879600*%
%ADD13C,1.320800*%
%ADD14R,1.508000X1.508000*%
%ADD15C,1.508000*%
%ADD16C,0.756400*%
%ADD17C,0.508000*%
%ADD18C,0.304800*%
%ADD19C,0.254000*%

G36*
X711226Y125480D02*
X711226Y125480D01*
X711252Y125478D01*
X711399Y125500D01*
X711546Y125517D01*
X711571Y125525D01*
X711597Y125529D01*
X711735Y125584D01*
X711874Y125634D01*
X711896Y125648D01*
X711921Y125658D01*
X712042Y125743D01*
X712167Y125823D01*
X712185Y125842D01*
X712207Y125857D01*
X712306Y125967D01*
X712409Y126074D01*
X712423Y126096D01*
X712440Y126116D01*
X712512Y126246D01*
X712588Y126373D01*
X712596Y126398D01*
X712609Y126421D01*
X712649Y126564D01*
X712694Y126705D01*
X712696Y126731D01*
X712704Y126756D01*
X712723Y127000D01*
X712723Y596900D01*
X712720Y596926D01*
X712722Y596952D01*
X712700Y597099D01*
X712683Y597246D01*
X712675Y597271D01*
X712671Y597297D01*
X712616Y597435D01*
X712566Y597574D01*
X712552Y597596D01*
X712542Y597621D01*
X712457Y597742D01*
X712377Y597867D01*
X712358Y597885D01*
X712343Y597907D01*
X712233Y598006D01*
X712126Y598109D01*
X712104Y598123D01*
X712084Y598140D01*
X711954Y598212D01*
X711827Y598288D01*
X711802Y598296D01*
X711779Y598309D01*
X711636Y598349D01*
X711495Y598394D01*
X711469Y598396D01*
X711444Y598404D01*
X711200Y598423D01*
X330200Y598423D01*
X330174Y598420D01*
X330148Y598422D01*
X330001Y598400D01*
X329854Y598383D01*
X329829Y598375D01*
X329803Y598371D01*
X329665Y598316D01*
X329526Y598266D01*
X329504Y598252D01*
X329479Y598242D01*
X329358Y598157D01*
X329233Y598077D01*
X329215Y598058D01*
X329193Y598043D01*
X329094Y597933D01*
X328991Y597826D01*
X328977Y597804D01*
X328960Y597784D01*
X328888Y597654D01*
X328812Y597527D01*
X328804Y597502D01*
X328791Y597479D01*
X328751Y597336D01*
X328706Y597195D01*
X328704Y597169D01*
X328696Y597144D01*
X328677Y596900D01*
X328677Y127000D01*
X328680Y126974D01*
X328678Y126948D01*
X328700Y126801D01*
X328717Y126654D01*
X328725Y126629D01*
X328729Y126603D01*
X328784Y126465D01*
X328834Y126326D01*
X328848Y126304D01*
X328858Y126279D01*
X328943Y126158D01*
X329023Y126033D01*
X329042Y126015D01*
X329057Y125993D01*
X329167Y125894D01*
X329274Y125791D01*
X329296Y125777D01*
X329316Y125760D01*
X329446Y125688D01*
X329573Y125612D01*
X329598Y125604D01*
X329621Y125591D01*
X329764Y125551D01*
X329905Y125506D01*
X329931Y125504D01*
X329956Y125496D01*
X330200Y125477D01*
X711200Y125477D01*
X711226Y125480D01*
G37*
%LPC*%
G36*
X563634Y132079D02*
X563634Y132079D01*
X560833Y133240D01*
X552340Y141733D01*
X551179Y144534D01*
X551179Y201422D01*
X551176Y201448D01*
X551178Y201474D01*
X551156Y201621D01*
X551139Y201768D01*
X551131Y201793D01*
X551127Y201819D01*
X551072Y201957D01*
X551022Y202096D01*
X551008Y202118D01*
X550998Y202143D01*
X550913Y202264D01*
X550833Y202389D01*
X550814Y202407D01*
X550799Y202429D01*
X550689Y202528D01*
X550582Y202631D01*
X550560Y202645D01*
X550540Y202662D01*
X550410Y202734D01*
X550283Y202810D01*
X550258Y202818D01*
X550235Y202831D01*
X550092Y202871D01*
X549951Y202916D01*
X549925Y202918D01*
X549900Y202926D01*
X549656Y202945D01*
X549619Y202945D01*
X544858Y204918D01*
X541214Y208562D01*
X540805Y209549D01*
X540732Y209680D01*
X540663Y209814D01*
X540647Y209832D01*
X540635Y209853D01*
X540534Y209965D01*
X540437Y210079D01*
X540417Y210094D01*
X540401Y210112D01*
X540277Y210197D01*
X540157Y210286D01*
X540134Y210296D01*
X540115Y210310D01*
X539975Y210365D01*
X539837Y210424D01*
X539813Y210429D01*
X539790Y210438D01*
X539642Y210459D01*
X539494Y210486D01*
X539469Y210485D01*
X539446Y210488D01*
X539295Y210476D01*
X539146Y210468D01*
X539122Y210461D01*
X539098Y210459D01*
X538955Y210413D01*
X538811Y210372D01*
X538790Y210360D01*
X538767Y210352D01*
X538637Y210275D01*
X538507Y210201D01*
X538484Y210183D01*
X538468Y210173D01*
X538434Y210140D01*
X538320Y210043D01*
X537717Y209439D01*
X534916Y208279D01*
X500535Y208279D01*
X500409Y208265D01*
X500283Y208258D01*
X500237Y208245D01*
X500189Y208239D01*
X500070Y208197D01*
X499948Y208162D01*
X499906Y208138D01*
X499861Y208122D01*
X499754Y208053D01*
X499644Y207992D01*
X499598Y207952D01*
X499568Y207933D01*
X499534Y207898D01*
X499458Y207833D01*
X496542Y204918D01*
X491781Y202945D01*
X473419Y202945D01*
X468658Y204918D01*
X465014Y208562D01*
X463041Y213323D01*
X463041Y218477D01*
X465014Y223238D01*
X468658Y226882D01*
X469407Y227193D01*
X469494Y227242D01*
X469587Y227282D01*
X469646Y227326D01*
X469711Y227362D01*
X469786Y227430D01*
X469866Y227489D01*
X469914Y227546D01*
X469969Y227596D01*
X470026Y227679D01*
X470091Y227755D01*
X470125Y227822D01*
X470168Y227883D01*
X470204Y227976D01*
X470250Y228066D01*
X470268Y228138D01*
X470295Y228207D01*
X470310Y228307D01*
X470334Y228404D01*
X470335Y228478D01*
X470346Y228552D01*
X470338Y228652D01*
X470339Y228752D01*
X470323Y228825D01*
X470317Y228899D01*
X470286Y228995D01*
X470265Y229093D01*
X470233Y229160D01*
X470210Y229231D01*
X470158Y229317D01*
X470115Y229408D01*
X470069Y229466D01*
X470031Y229529D01*
X469960Y229602D01*
X469898Y229680D01*
X469840Y229726D01*
X469788Y229779D01*
X469703Y229834D01*
X469624Y229896D01*
X469535Y229942D01*
X469494Y229968D01*
X469461Y229980D01*
X469407Y230007D01*
X468658Y230318D01*
X465014Y233962D01*
X463041Y238723D01*
X463041Y243877D01*
X465014Y248638D01*
X468658Y252282D01*
X469407Y252593D01*
X469494Y252642D01*
X469587Y252682D01*
X469646Y252726D01*
X469711Y252762D01*
X469786Y252830D01*
X469866Y252889D01*
X469914Y252946D01*
X469969Y252996D01*
X470026Y253079D01*
X470091Y253155D01*
X470125Y253222D01*
X470168Y253283D01*
X470204Y253376D01*
X470250Y253466D01*
X470268Y253538D01*
X470295Y253607D01*
X470310Y253707D01*
X470334Y253804D01*
X470335Y253878D01*
X470346Y253952D01*
X470338Y254052D01*
X470339Y254152D01*
X470323Y254225D01*
X470317Y254299D01*
X470286Y254395D01*
X470265Y254493D01*
X470233Y254560D01*
X470210Y254631D01*
X470158Y254717D01*
X470115Y254808D01*
X470069Y254866D01*
X470031Y254929D01*
X469960Y255002D01*
X469898Y255080D01*
X469840Y255126D01*
X469788Y255179D01*
X469703Y255234D01*
X469624Y255296D01*
X469535Y255342D01*
X469494Y255368D01*
X469461Y255380D01*
X469407Y255407D01*
X468658Y255718D01*
X465014Y259362D01*
X463041Y264123D01*
X463041Y269277D01*
X465014Y274038D01*
X468658Y277682D01*
X469407Y277993D01*
X469494Y278042D01*
X469587Y278082D01*
X469646Y278126D01*
X469711Y278162D01*
X469786Y278230D01*
X469866Y278289D01*
X469914Y278346D01*
X469969Y278396D01*
X470026Y278479D01*
X470091Y278555D01*
X470125Y278622D01*
X470168Y278683D01*
X470204Y278776D01*
X470250Y278866D01*
X470268Y278938D01*
X470295Y279007D01*
X470310Y279107D01*
X470334Y279204D01*
X470335Y279278D01*
X470346Y279352D01*
X470338Y279452D01*
X470339Y279552D01*
X470323Y279625D01*
X470317Y279699D01*
X470286Y279795D01*
X470265Y279893D01*
X470233Y279960D01*
X470210Y280031D01*
X470158Y280117D01*
X470115Y280208D01*
X470069Y280266D01*
X470031Y280329D01*
X469960Y280402D01*
X469898Y280480D01*
X469840Y280526D01*
X469788Y280579D01*
X469703Y280634D01*
X469624Y280696D01*
X469535Y280742D01*
X469494Y280768D01*
X469461Y280780D01*
X469407Y280807D01*
X468658Y281118D01*
X465014Y284762D01*
X463041Y289523D01*
X463041Y294677D01*
X464364Y297870D01*
X464385Y297943D01*
X464415Y298013D01*
X464432Y298110D01*
X464459Y298205D01*
X464463Y298281D01*
X464477Y298356D01*
X464472Y298455D01*
X464476Y298553D01*
X464463Y298628D01*
X464459Y298705D01*
X464432Y298799D01*
X464414Y298896D01*
X464383Y298966D01*
X464362Y299039D01*
X464314Y299125D01*
X464275Y299215D01*
X464229Y299277D01*
X464192Y299344D01*
X464095Y299457D01*
X464067Y299495D01*
X464053Y299508D01*
X464034Y299530D01*
X450524Y313039D01*
X449325Y315934D01*
X449325Y534966D01*
X450524Y537861D01*
X452954Y540290D01*
X464030Y551366D01*
X464031Y551368D01*
X464033Y551369D01*
X464140Y551506D01*
X464246Y551639D01*
X464247Y551641D01*
X464249Y551643D01*
X464360Y551861D01*
X465014Y553438D01*
X468658Y557082D01*
X473419Y559055D01*
X491781Y559055D01*
X496542Y557082D01*
X500186Y553438D01*
X502159Y548677D01*
X502159Y543523D01*
X500186Y538762D01*
X496542Y535118D01*
X495793Y534807D01*
X495706Y534759D01*
X495613Y534719D01*
X495554Y534674D01*
X495489Y534638D01*
X495414Y534571D01*
X495334Y534511D01*
X495286Y534454D01*
X495231Y534404D01*
X495174Y534321D01*
X495109Y534245D01*
X495075Y534178D01*
X495032Y534117D01*
X494996Y534024D01*
X494950Y533934D01*
X494932Y533862D01*
X494905Y533793D01*
X494890Y533693D01*
X494866Y533596D01*
X494865Y533522D01*
X494854Y533448D01*
X494862Y533348D01*
X494861Y533248D01*
X494877Y533175D01*
X494883Y533101D01*
X494914Y533005D01*
X494935Y532907D01*
X494967Y532840D01*
X494990Y532769D01*
X495042Y532683D01*
X495085Y532592D01*
X495131Y532534D01*
X495169Y532471D01*
X495239Y532399D01*
X495302Y532320D01*
X495360Y532274D01*
X495412Y532221D01*
X495497Y532166D01*
X495576Y532104D01*
X495665Y532058D01*
X495706Y532032D01*
X495739Y532020D01*
X495793Y531993D01*
X496542Y531682D01*
X500186Y528038D01*
X502159Y523277D01*
X502159Y518123D01*
X500186Y513362D01*
X496542Y509718D01*
X495793Y509407D01*
X495706Y509359D01*
X495613Y509319D01*
X495554Y509274D01*
X495489Y509238D01*
X495414Y509171D01*
X495334Y509111D01*
X495286Y509054D01*
X495231Y509004D01*
X495174Y508921D01*
X495109Y508845D01*
X495075Y508778D01*
X495032Y508717D01*
X494996Y508624D01*
X494950Y508534D01*
X494932Y508462D01*
X494905Y508393D01*
X494890Y508293D01*
X494866Y508196D01*
X494865Y508122D01*
X494854Y508048D01*
X494862Y507948D01*
X494861Y507848D01*
X494877Y507775D01*
X494883Y507701D01*
X494914Y507605D01*
X494935Y507507D01*
X494967Y507440D01*
X494990Y507369D01*
X495042Y507283D01*
X495085Y507192D01*
X495131Y507134D01*
X495169Y507071D01*
X495239Y506999D01*
X495302Y506920D01*
X495360Y506874D01*
X495412Y506821D01*
X495497Y506766D01*
X495576Y506704D01*
X495665Y506658D01*
X495706Y506632D01*
X495739Y506620D01*
X495793Y506593D01*
X496542Y506282D01*
X500186Y502638D01*
X502159Y497877D01*
X502159Y492723D01*
X500186Y487962D01*
X496542Y484318D01*
X495793Y484007D01*
X495706Y483959D01*
X495613Y483919D01*
X495554Y483874D01*
X495489Y483838D01*
X495414Y483771D01*
X495334Y483711D01*
X495286Y483654D01*
X495231Y483604D01*
X495174Y483521D01*
X495109Y483445D01*
X495075Y483378D01*
X495032Y483317D01*
X494996Y483224D01*
X494950Y483134D01*
X494932Y483062D01*
X494905Y482993D01*
X494890Y482893D01*
X494866Y482796D01*
X494865Y482722D01*
X494854Y482648D01*
X494862Y482548D01*
X494861Y482448D01*
X494877Y482375D01*
X494883Y482301D01*
X494914Y482205D01*
X494935Y482107D01*
X494967Y482040D01*
X494990Y481969D01*
X495042Y481883D01*
X495085Y481792D01*
X495131Y481734D01*
X495169Y481671D01*
X495239Y481599D01*
X495302Y481520D01*
X495360Y481474D01*
X495412Y481421D01*
X495497Y481366D01*
X495576Y481304D01*
X495665Y481258D01*
X495706Y481232D01*
X495739Y481220D01*
X495793Y481193D01*
X496542Y480882D01*
X499520Y477904D01*
X499541Y477888D01*
X499558Y477868D01*
X499677Y477780D01*
X499793Y477688D01*
X499817Y477677D01*
X499838Y477661D01*
X499974Y477602D01*
X500108Y477539D01*
X500134Y477533D01*
X500158Y477523D01*
X500304Y477497D01*
X500449Y477466D01*
X500475Y477466D01*
X500501Y477461D01*
X500650Y477469D01*
X500798Y477471D01*
X500823Y477478D01*
X500849Y477479D01*
X500992Y477520D01*
X501136Y477556D01*
X501159Y477568D01*
X501184Y477576D01*
X501314Y477648D01*
X501445Y477716D01*
X501465Y477733D01*
X501488Y477746D01*
X501675Y477904D01*
X502260Y478490D01*
X505984Y480033D01*
X510016Y480033D01*
X513740Y478490D01*
X514009Y478221D01*
X514108Y478142D01*
X514202Y478058D01*
X514244Y478034D01*
X514282Y478004D01*
X514396Y477950D01*
X514507Y477889D01*
X514553Y477876D01*
X514597Y477855D01*
X514720Y477829D01*
X514842Y477794D01*
X514903Y477789D01*
X514938Y477782D01*
X514986Y477783D01*
X515086Y477775D01*
X526314Y477775D01*
X526440Y477789D01*
X526566Y477796D01*
X526612Y477809D01*
X526660Y477815D01*
X526779Y477857D01*
X526901Y477892D01*
X526943Y477916D01*
X526988Y477932D01*
X527094Y478001D01*
X527205Y478062D01*
X527251Y478102D01*
X527281Y478121D01*
X527315Y478156D01*
X527391Y478221D01*
X527660Y478490D01*
X531384Y480033D01*
X535416Y480033D01*
X539140Y478490D01*
X539725Y477904D01*
X539746Y477888D01*
X539763Y477868D01*
X539882Y477780D01*
X539998Y477688D01*
X540022Y477677D01*
X540043Y477661D01*
X540179Y477602D01*
X540314Y477539D01*
X540339Y477533D01*
X540363Y477523D01*
X540510Y477497D01*
X540654Y477466D01*
X540680Y477466D01*
X540706Y477461D01*
X540855Y477469D01*
X541003Y477471D01*
X541028Y477478D01*
X541054Y477479D01*
X541197Y477520D01*
X541341Y477556D01*
X541364Y477568D01*
X541389Y477576D01*
X541519Y477648D01*
X541651Y477716D01*
X541671Y477733D01*
X541693Y477746D01*
X541880Y477904D01*
X544858Y480882D01*
X545607Y481193D01*
X545694Y481241D01*
X545787Y481281D01*
X545846Y481326D01*
X545911Y481362D01*
X545986Y481429D01*
X546066Y481489D01*
X546114Y481546D01*
X546169Y481596D01*
X546226Y481679D01*
X546291Y481755D01*
X546325Y481822D01*
X546368Y481883D01*
X546404Y481976D01*
X546450Y482066D01*
X546468Y482138D01*
X546495Y482207D01*
X546510Y482307D01*
X546534Y482404D01*
X546535Y482478D01*
X546546Y482552D01*
X546538Y482652D01*
X546539Y482752D01*
X546523Y482825D01*
X546517Y482899D01*
X546486Y482995D01*
X546465Y483093D01*
X546433Y483160D01*
X546410Y483231D01*
X546358Y483317D01*
X546315Y483408D01*
X546269Y483466D01*
X546231Y483529D01*
X546161Y483601D01*
X546098Y483680D01*
X546040Y483726D01*
X545988Y483779D01*
X545903Y483834D01*
X545824Y483896D01*
X545735Y483942D01*
X545694Y483968D01*
X545661Y483980D01*
X545607Y484007D01*
X544858Y484318D01*
X541214Y487962D01*
X539241Y492723D01*
X539241Y497877D01*
X541214Y502638D01*
X544858Y506282D01*
X545607Y506593D01*
X545694Y506641D01*
X545787Y506681D01*
X545846Y506726D01*
X545911Y506762D01*
X545986Y506829D01*
X546066Y506889D01*
X546114Y506946D01*
X546169Y506996D01*
X546226Y507079D01*
X546291Y507155D01*
X546325Y507222D01*
X546368Y507283D01*
X546404Y507376D01*
X546450Y507466D01*
X546468Y507538D01*
X546495Y507607D01*
X546510Y507707D01*
X546534Y507804D01*
X546535Y507878D01*
X546546Y507952D01*
X546538Y508052D01*
X546539Y508152D01*
X546523Y508225D01*
X546517Y508299D01*
X546486Y508395D01*
X546465Y508493D01*
X546433Y508560D01*
X546410Y508631D01*
X546358Y508717D01*
X546315Y508808D01*
X546269Y508866D01*
X546231Y508929D01*
X546161Y509001D01*
X546098Y509080D01*
X546040Y509126D01*
X545988Y509179D01*
X545903Y509234D01*
X545824Y509296D01*
X545735Y509342D01*
X545694Y509368D01*
X545661Y509380D01*
X545607Y509407D01*
X544858Y509718D01*
X541214Y513362D01*
X539241Y518123D01*
X539241Y523277D01*
X541214Y528038D01*
X544858Y531682D01*
X545607Y531993D01*
X545694Y532041D01*
X545787Y532081D01*
X545846Y532126D01*
X545911Y532162D01*
X545986Y532229D01*
X546066Y532289D01*
X546114Y532346D01*
X546169Y532396D01*
X546226Y532479D01*
X546291Y532555D01*
X546325Y532622D01*
X546368Y532683D01*
X546404Y532776D01*
X546450Y532866D01*
X546468Y532938D01*
X546495Y533007D01*
X546510Y533107D01*
X546534Y533204D01*
X546535Y533278D01*
X546546Y533352D01*
X546538Y533452D01*
X546539Y533552D01*
X546523Y533625D01*
X546517Y533699D01*
X546486Y533795D01*
X546465Y533893D01*
X546433Y533960D01*
X546410Y534031D01*
X546358Y534117D01*
X546315Y534208D01*
X546269Y534266D01*
X546231Y534329D01*
X546161Y534401D01*
X546098Y534480D01*
X546040Y534526D01*
X545988Y534579D01*
X545903Y534634D01*
X545824Y534696D01*
X545735Y534742D01*
X545694Y534768D01*
X545661Y534780D01*
X545607Y534807D01*
X544858Y535118D01*
X541214Y538762D01*
X539241Y543523D01*
X539241Y548677D01*
X541214Y553438D01*
X544858Y557082D01*
X549619Y559055D01*
X567981Y559055D01*
X572742Y557082D01*
X576386Y553438D01*
X578359Y548677D01*
X578359Y543523D01*
X576386Y538762D01*
X572742Y535118D01*
X571993Y534807D01*
X571906Y534758D01*
X571813Y534718D01*
X571754Y534674D01*
X571689Y534638D01*
X571614Y534570D01*
X571534Y534511D01*
X571486Y534454D01*
X571431Y534404D01*
X571374Y534321D01*
X571309Y534245D01*
X571275Y534178D01*
X571232Y534117D01*
X571196Y534024D01*
X571150Y533934D01*
X571132Y533862D01*
X571105Y533793D01*
X571090Y533693D01*
X571066Y533596D01*
X571065Y533522D01*
X571054Y533448D01*
X571062Y533348D01*
X571061Y533248D01*
X571077Y533175D01*
X571083Y533101D01*
X571114Y533005D01*
X571135Y532907D01*
X571167Y532840D01*
X571190Y532769D01*
X571242Y532683D01*
X571285Y532592D01*
X571331Y532534D01*
X571369Y532471D01*
X571440Y532398D01*
X571502Y532320D01*
X571560Y532274D01*
X571612Y532221D01*
X571697Y532166D01*
X571776Y532104D01*
X571865Y532058D01*
X571906Y532032D01*
X571939Y532020D01*
X571993Y531993D01*
X572742Y531682D01*
X575404Y529021D01*
X575503Y528942D01*
X575597Y528858D01*
X575639Y528834D01*
X575677Y528804D01*
X575791Y528750D01*
X575902Y528689D01*
X575948Y528676D01*
X575992Y528655D01*
X576115Y528629D01*
X576237Y528594D01*
X576298Y528589D01*
X576333Y528582D01*
X576381Y528583D01*
X576481Y528575D01*
X598466Y528575D01*
X601361Y527376D01*
X618579Y510158D01*
X618697Y510064D01*
X618811Y509967D01*
X618833Y509956D01*
X618852Y509941D01*
X618988Y509877D01*
X619122Y509808D01*
X619145Y509803D01*
X619167Y509792D01*
X619314Y509761D01*
X619460Y509724D01*
X619484Y509724D01*
X619508Y509719D01*
X619657Y509721D01*
X619808Y509719D01*
X619832Y509724D01*
X619856Y509725D01*
X620002Y509761D01*
X620149Y509794D01*
X620171Y509804D01*
X620194Y509810D01*
X620328Y509879D01*
X620463Y509943D01*
X620482Y509958D01*
X620504Y509969D01*
X620619Y510067D01*
X620736Y510161D01*
X620751Y510180D01*
X620769Y510195D01*
X620859Y510316D01*
X620952Y510434D01*
X620965Y510460D01*
X620976Y510476D01*
X620995Y510519D01*
X621063Y510652D01*
X623224Y515869D01*
X627131Y519776D01*
X628611Y520389D01*
X628655Y520413D01*
X628702Y520430D01*
X628807Y520498D01*
X628915Y520558D01*
X628953Y520592D01*
X628995Y520619D01*
X629081Y520709D01*
X629174Y520792D01*
X629202Y520834D01*
X629237Y520870D01*
X629301Y520977D01*
X629372Y521079D01*
X629390Y521126D01*
X629416Y521169D01*
X629454Y521287D01*
X629500Y521403D01*
X629507Y521453D01*
X629522Y521501D01*
X629532Y521625D01*
X629550Y521748D01*
X629546Y521798D01*
X629550Y521848D01*
X629532Y521971D01*
X629521Y522095D01*
X629506Y522143D01*
X629499Y522193D01*
X629453Y522309D01*
X629414Y522427D01*
X629388Y522470D01*
X629370Y522517D01*
X629299Y522619D01*
X629235Y522725D01*
X629200Y522762D01*
X629171Y522803D01*
X629079Y522886D01*
X628992Y522975D01*
X628949Y523003D01*
X628912Y523036D01*
X628803Y523096D01*
X628699Y523164D01*
X628651Y523181D01*
X628607Y523205D01*
X628487Y523239D01*
X628370Y523280D01*
X628320Y523286D01*
X628272Y523300D01*
X628028Y523319D01*
X627125Y523319D01*
X626479Y523492D01*
X625900Y523827D01*
X625427Y524300D01*
X625092Y524879D01*
X624919Y525525D01*
X624919Y530901D01*
X634024Y530901D01*
X634050Y530904D01*
X634076Y530902D01*
X634223Y530924D01*
X634370Y530941D01*
X634395Y530949D01*
X634421Y530953D01*
X634558Y531008D01*
X634698Y531058D01*
X634720Y531072D01*
X634745Y531082D01*
X634866Y531167D01*
X634991Y531247D01*
X635009Y531266D01*
X635031Y531281D01*
X635130Y531391D01*
X635233Y531498D01*
X635247Y531520D01*
X635264Y531540D01*
X635336Y531670D01*
X635412Y531797D01*
X635420Y531822D01*
X635433Y531845D01*
X635473Y531988D01*
X635518Y532129D01*
X635520Y532155D01*
X635527Y532180D01*
X635547Y532424D01*
X635547Y532853D01*
X635976Y532853D01*
X636002Y532856D01*
X636028Y532854D01*
X636175Y532876D01*
X636322Y532893D01*
X636347Y532902D01*
X636373Y532906D01*
X636511Y532960D01*
X636650Y533010D01*
X636672Y533025D01*
X636697Y533034D01*
X636818Y533119D01*
X636943Y533199D01*
X636961Y533218D01*
X636983Y533233D01*
X637082Y533343D01*
X637185Y533450D01*
X637199Y533473D01*
X637216Y533492D01*
X637288Y533622D01*
X637364Y533749D01*
X637372Y533774D01*
X637385Y533797D01*
X637425Y533940D01*
X637470Y534081D01*
X637472Y534107D01*
X637480Y534132D01*
X637499Y534376D01*
X637499Y543481D01*
X642875Y543481D01*
X643521Y543308D01*
X644100Y542973D01*
X644573Y542500D01*
X644908Y541921D01*
X645081Y541275D01*
X645081Y540372D01*
X645086Y540322D01*
X645084Y540272D01*
X645106Y540149D01*
X645121Y540026D01*
X645138Y539978D01*
X645147Y539929D01*
X645196Y539815D01*
X645238Y539698D01*
X645265Y539655D01*
X645286Y539609D01*
X645360Y539510D01*
X645427Y539405D01*
X645463Y539370D01*
X645493Y539330D01*
X645588Y539249D01*
X645678Y539163D01*
X645721Y539137D01*
X645759Y539104D01*
X645870Y539048D01*
X645977Y538984D01*
X646025Y538969D01*
X646070Y538946D01*
X646190Y538916D01*
X646309Y538878D01*
X646359Y538874D01*
X646408Y538862D01*
X646532Y538860D01*
X646656Y538850D01*
X646706Y538857D01*
X646756Y538856D01*
X646878Y538883D01*
X647001Y538901D01*
X647048Y538920D01*
X647097Y538931D01*
X647209Y538984D01*
X647325Y539030D01*
X647366Y539059D01*
X647412Y539081D01*
X647509Y539158D01*
X647611Y539229D01*
X647645Y539266D01*
X647684Y539298D01*
X647761Y539396D01*
X647844Y539488D01*
X647869Y539532D01*
X647900Y539571D01*
X648011Y539789D01*
X648624Y541269D01*
X652531Y545176D01*
X657637Y547291D01*
X663163Y547291D01*
X668269Y545176D01*
X672176Y541269D01*
X674291Y536163D01*
X674291Y530637D01*
X672176Y525531D01*
X668422Y521777D01*
X668405Y521757D01*
X668385Y521740D01*
X668297Y521620D01*
X668205Y521504D01*
X668194Y521480D01*
X668178Y521459D01*
X668119Y521323D01*
X668056Y521189D01*
X668051Y521163D01*
X668040Y521139D01*
X668014Y520993D01*
X667983Y520848D01*
X667983Y520822D01*
X667978Y520796D01*
X667986Y520648D01*
X667989Y520500D01*
X667995Y520474D01*
X667996Y520448D01*
X668037Y520306D01*
X668074Y520162D01*
X668086Y520139D01*
X668093Y520113D01*
X668165Y519984D01*
X668233Y519852D01*
X668250Y519832D01*
X668263Y519809D01*
X668422Y519623D01*
X672176Y515869D01*
X674291Y510763D01*
X674291Y505237D01*
X672176Y500131D01*
X668422Y496377D01*
X668405Y496357D01*
X668385Y496340D01*
X668297Y496220D01*
X668205Y496104D01*
X668194Y496080D01*
X668178Y496059D01*
X668119Y495923D01*
X668056Y495789D01*
X668051Y495763D01*
X668040Y495739D01*
X668014Y495593D01*
X667983Y495448D01*
X667983Y495422D01*
X667978Y495396D01*
X667986Y495248D01*
X667989Y495100D01*
X667995Y495074D01*
X667996Y495048D01*
X668037Y494906D01*
X668074Y494762D01*
X668086Y494739D01*
X668093Y494713D01*
X668165Y494584D01*
X668233Y494452D01*
X668250Y494432D01*
X668263Y494409D01*
X668422Y494223D01*
X672176Y490469D01*
X674291Y485363D01*
X674291Y479837D01*
X672176Y474731D01*
X668422Y470977D01*
X668405Y470957D01*
X668385Y470940D01*
X668297Y470820D01*
X668205Y470704D01*
X668194Y470680D01*
X668178Y470659D01*
X668119Y470523D01*
X668056Y470389D01*
X668051Y470363D01*
X668040Y470339D01*
X668014Y470193D01*
X667983Y470048D01*
X667983Y470022D01*
X667978Y469996D01*
X667986Y469848D01*
X667989Y469700D01*
X667995Y469674D01*
X667996Y469648D01*
X668037Y469506D01*
X668074Y469362D01*
X668086Y469339D01*
X668093Y469313D01*
X668165Y469184D01*
X668233Y469052D01*
X668250Y469032D01*
X668263Y469009D01*
X668422Y468823D01*
X672176Y465069D01*
X674291Y459963D01*
X674291Y454437D01*
X672176Y449331D01*
X668269Y445424D01*
X663163Y443309D01*
X657637Y443309D01*
X652531Y445424D01*
X648777Y449178D01*
X648757Y449195D01*
X648740Y449215D01*
X648620Y449303D01*
X648504Y449395D01*
X648480Y449406D01*
X648459Y449422D01*
X648323Y449481D01*
X648189Y449544D01*
X648163Y449549D01*
X648139Y449560D01*
X647993Y449586D01*
X647848Y449617D01*
X647822Y449617D01*
X647796Y449622D01*
X647648Y449614D01*
X647500Y449611D01*
X647474Y449605D01*
X647448Y449604D01*
X647306Y449563D01*
X647162Y449526D01*
X647139Y449514D01*
X647113Y449507D01*
X646984Y449435D01*
X646852Y449367D01*
X646832Y449350D01*
X646809Y449337D01*
X646623Y449178D01*
X642869Y445424D01*
X637763Y443309D01*
X632237Y443309D01*
X627131Y445424D01*
X623676Y448879D01*
X623577Y448958D01*
X623484Y449042D01*
X623441Y449066D01*
X623403Y449096D01*
X623289Y449150D01*
X623178Y449211D01*
X623132Y449224D01*
X623088Y449245D01*
X622965Y449271D01*
X622843Y449306D01*
X622782Y449311D01*
X622748Y449318D01*
X622700Y449317D01*
X622599Y449325D01*
X620734Y449325D01*
X617839Y450524D01*
X581384Y486979D01*
X581285Y487058D01*
X581191Y487142D01*
X581149Y487166D01*
X581111Y487196D01*
X580997Y487250D01*
X580886Y487311D01*
X580840Y487324D01*
X580796Y487345D01*
X580673Y487371D01*
X580551Y487406D01*
X580490Y487411D01*
X580455Y487418D01*
X580407Y487417D01*
X580307Y487425D01*
X576481Y487425D01*
X576355Y487411D01*
X576229Y487404D01*
X576183Y487391D01*
X576135Y487385D01*
X576016Y487343D01*
X575894Y487308D01*
X575852Y487284D01*
X575807Y487268D01*
X575700Y487199D01*
X575590Y487138D01*
X575544Y487098D01*
X575514Y487079D01*
X575480Y487044D01*
X575404Y486979D01*
X572742Y484318D01*
X571993Y484007D01*
X571906Y483958D01*
X571813Y483918D01*
X571754Y483874D01*
X571689Y483838D01*
X571614Y483770D01*
X571534Y483711D01*
X571486Y483654D01*
X571431Y483604D01*
X571374Y483521D01*
X571309Y483445D01*
X571275Y483378D01*
X571232Y483317D01*
X571196Y483224D01*
X571150Y483134D01*
X571132Y483062D01*
X571105Y482993D01*
X571090Y482893D01*
X571066Y482796D01*
X571065Y482722D01*
X571054Y482648D01*
X571062Y482548D01*
X571061Y482448D01*
X571077Y482375D01*
X571083Y482301D01*
X571114Y482205D01*
X571135Y482107D01*
X571167Y482040D01*
X571190Y481969D01*
X571242Y481883D01*
X571285Y481792D01*
X571331Y481734D01*
X571369Y481671D01*
X571440Y481598D01*
X571502Y481520D01*
X571560Y481474D01*
X571612Y481421D01*
X571697Y481366D01*
X571776Y481304D01*
X571865Y481258D01*
X571906Y481232D01*
X571939Y481220D01*
X571993Y481193D01*
X572742Y480882D01*
X576386Y477238D01*
X578359Y472477D01*
X578359Y467323D01*
X576386Y462562D01*
X572742Y458918D01*
X571993Y458607D01*
X571906Y458558D01*
X571813Y458518D01*
X571754Y458474D01*
X571689Y458438D01*
X571614Y458370D01*
X571534Y458311D01*
X571486Y458254D01*
X571431Y458204D01*
X571374Y458121D01*
X571309Y458045D01*
X571275Y457978D01*
X571232Y457917D01*
X571196Y457824D01*
X571150Y457734D01*
X571132Y457662D01*
X571105Y457593D01*
X571090Y457493D01*
X571066Y457396D01*
X571065Y457322D01*
X571054Y457248D01*
X571062Y457148D01*
X571061Y457048D01*
X571077Y456975D01*
X571083Y456901D01*
X571114Y456805D01*
X571135Y456707D01*
X571167Y456640D01*
X571190Y456569D01*
X571242Y456483D01*
X571285Y456392D01*
X571331Y456334D01*
X571369Y456271D01*
X571440Y456198D01*
X571502Y456120D01*
X571560Y456074D01*
X571612Y456021D01*
X571697Y455966D01*
X571776Y455904D01*
X571865Y455858D01*
X571906Y455832D01*
X571939Y455820D01*
X571993Y455793D01*
X572742Y455482D01*
X576386Y451838D01*
X578359Y447077D01*
X578359Y441923D01*
X576386Y437162D01*
X572742Y433518D01*
X571993Y433207D01*
X571906Y433158D01*
X571813Y433118D01*
X571754Y433074D01*
X571689Y433038D01*
X571614Y432970D01*
X571534Y432911D01*
X571486Y432854D01*
X571431Y432804D01*
X571374Y432721D01*
X571309Y432645D01*
X571275Y432578D01*
X571232Y432517D01*
X571196Y432424D01*
X571150Y432334D01*
X571132Y432262D01*
X571105Y432193D01*
X571090Y432093D01*
X571066Y431996D01*
X571065Y431922D01*
X571054Y431848D01*
X571062Y431748D01*
X571061Y431648D01*
X571077Y431575D01*
X571083Y431501D01*
X571114Y431405D01*
X571135Y431307D01*
X571167Y431240D01*
X571190Y431169D01*
X571242Y431083D01*
X571285Y430992D01*
X571331Y430934D01*
X571369Y430871D01*
X571440Y430798D01*
X571502Y430720D01*
X571560Y430674D01*
X571612Y430621D01*
X571697Y430566D01*
X571776Y430504D01*
X571865Y430458D01*
X571906Y430432D01*
X571939Y430420D01*
X571993Y430393D01*
X572742Y430082D01*
X576386Y426438D01*
X578359Y421677D01*
X578359Y416523D01*
X576386Y411762D01*
X572742Y408118D01*
X567981Y406145D01*
X549619Y406145D01*
X544858Y408118D01*
X541214Y411762D01*
X539241Y416523D01*
X539241Y421677D01*
X541214Y426438D01*
X544858Y430082D01*
X545607Y430393D01*
X545694Y430441D01*
X545787Y430481D01*
X545846Y430526D01*
X545911Y430562D01*
X545986Y430629D01*
X546066Y430689D01*
X546114Y430746D01*
X546169Y430796D01*
X546226Y430879D01*
X546291Y430955D01*
X546325Y431022D01*
X546368Y431083D01*
X546404Y431176D01*
X546450Y431266D01*
X546468Y431338D01*
X546495Y431407D01*
X546510Y431507D01*
X546534Y431604D01*
X546535Y431678D01*
X546546Y431752D01*
X546538Y431852D01*
X546539Y431952D01*
X546523Y432025D01*
X546517Y432099D01*
X546486Y432195D01*
X546465Y432293D01*
X546433Y432360D01*
X546410Y432431D01*
X546358Y432517D01*
X546315Y432608D01*
X546269Y432666D01*
X546231Y432729D01*
X546161Y432801D01*
X546098Y432880D01*
X546040Y432926D01*
X545988Y432979D01*
X545903Y433034D01*
X545824Y433096D01*
X545735Y433142D01*
X545694Y433168D01*
X545661Y433180D01*
X545607Y433207D01*
X544858Y433518D01*
X541214Y437162D01*
X539241Y441923D01*
X539241Y447077D01*
X541214Y451838D01*
X544858Y455482D01*
X545607Y455793D01*
X545694Y455841D01*
X545787Y455881D01*
X545846Y455926D01*
X545911Y455962D01*
X545986Y456029D01*
X546066Y456089D01*
X546114Y456146D01*
X546169Y456196D01*
X546226Y456279D01*
X546291Y456355D01*
X546325Y456422D01*
X546368Y456483D01*
X546404Y456576D01*
X546450Y456666D01*
X546468Y456738D01*
X546495Y456807D01*
X546510Y456907D01*
X546534Y457004D01*
X546535Y457078D01*
X546546Y457152D01*
X546538Y457252D01*
X546539Y457352D01*
X546523Y457425D01*
X546517Y457499D01*
X546486Y457595D01*
X546465Y457693D01*
X546433Y457760D01*
X546410Y457831D01*
X546358Y457917D01*
X546315Y458008D01*
X546269Y458066D01*
X546231Y458129D01*
X546161Y458201D01*
X546098Y458280D01*
X546040Y458326D01*
X545988Y458379D01*
X545903Y458434D01*
X545824Y458496D01*
X545735Y458542D01*
X545694Y458568D01*
X545661Y458580D01*
X545607Y458607D01*
X544858Y458918D01*
X541880Y461896D01*
X541859Y461912D01*
X541842Y461932D01*
X541723Y462020D01*
X541607Y462112D01*
X541583Y462123D01*
X541562Y462139D01*
X541426Y462198D01*
X541292Y462261D01*
X541266Y462267D01*
X541242Y462277D01*
X541096Y462303D01*
X540951Y462334D01*
X540925Y462334D01*
X540899Y462339D01*
X540750Y462331D01*
X540602Y462329D01*
X540577Y462322D01*
X540551Y462321D01*
X540408Y462280D01*
X540264Y462244D01*
X540241Y462232D01*
X540216Y462224D01*
X540086Y462152D01*
X539955Y462084D01*
X539935Y462067D01*
X539912Y462054D01*
X539725Y461896D01*
X539140Y461310D01*
X535416Y459767D01*
X531384Y459767D01*
X527660Y461310D01*
X527391Y461579D01*
X527292Y461658D01*
X527198Y461742D01*
X527156Y461766D01*
X527118Y461796D01*
X527004Y461850D01*
X526893Y461911D01*
X526847Y461924D01*
X526803Y461945D01*
X526680Y461971D01*
X526558Y462006D01*
X526497Y462011D01*
X526462Y462018D01*
X526414Y462017D01*
X526314Y462025D01*
X515086Y462025D01*
X514960Y462011D01*
X514834Y462004D01*
X514788Y461991D01*
X514740Y461985D01*
X514621Y461943D01*
X514499Y461908D01*
X514457Y461884D01*
X514412Y461868D01*
X514306Y461799D01*
X514195Y461738D01*
X514149Y461698D01*
X514119Y461679D01*
X514085Y461644D01*
X514009Y461579D01*
X513740Y461310D01*
X510016Y459767D01*
X505984Y459767D01*
X502260Y461310D01*
X501675Y461896D01*
X501654Y461912D01*
X501637Y461932D01*
X501518Y462020D01*
X501402Y462112D01*
X501378Y462123D01*
X501357Y462139D01*
X501221Y462198D01*
X501086Y462261D01*
X501061Y462267D01*
X501037Y462277D01*
X500890Y462303D01*
X500746Y462334D01*
X500720Y462334D01*
X500694Y462339D01*
X500545Y462331D01*
X500397Y462329D01*
X500372Y462322D01*
X500346Y462321D01*
X500203Y462280D01*
X500059Y462244D01*
X500036Y462232D01*
X500011Y462224D01*
X499881Y462152D01*
X499749Y462084D01*
X499729Y462067D01*
X499707Y462054D01*
X499520Y461896D01*
X496542Y458918D01*
X495793Y458607D01*
X495706Y458559D01*
X495613Y458519D01*
X495554Y458474D01*
X495489Y458438D01*
X495414Y458371D01*
X495334Y458311D01*
X495286Y458254D01*
X495231Y458204D01*
X495174Y458121D01*
X495109Y458045D01*
X495075Y457978D01*
X495032Y457917D01*
X494996Y457824D01*
X494950Y457734D01*
X494932Y457662D01*
X494905Y457593D01*
X494890Y457493D01*
X494866Y457396D01*
X494865Y457322D01*
X494854Y457248D01*
X494862Y457148D01*
X494861Y457048D01*
X494877Y456975D01*
X494883Y456901D01*
X494914Y456805D01*
X494935Y456707D01*
X494967Y456640D01*
X494990Y456569D01*
X495042Y456483D01*
X495085Y456392D01*
X495131Y456334D01*
X495169Y456271D01*
X495239Y456199D01*
X495302Y456120D01*
X495360Y456074D01*
X495412Y456021D01*
X495497Y455966D01*
X495576Y455904D01*
X495665Y455858D01*
X495706Y455832D01*
X495739Y455820D01*
X495793Y455793D01*
X496542Y455482D01*
X500186Y451838D01*
X502159Y447077D01*
X502159Y441923D01*
X500186Y437162D01*
X496542Y433518D01*
X495793Y433207D01*
X495706Y433159D01*
X495613Y433119D01*
X495554Y433074D01*
X495489Y433038D01*
X495414Y432971D01*
X495334Y432911D01*
X495286Y432854D01*
X495231Y432804D01*
X495174Y432721D01*
X495109Y432645D01*
X495075Y432578D01*
X495032Y432517D01*
X494996Y432424D01*
X494950Y432334D01*
X494932Y432262D01*
X494905Y432193D01*
X494890Y432093D01*
X494866Y431996D01*
X494865Y431922D01*
X494854Y431848D01*
X494862Y431748D01*
X494861Y431648D01*
X494877Y431575D01*
X494883Y431501D01*
X494914Y431405D01*
X494935Y431307D01*
X494967Y431240D01*
X494990Y431169D01*
X495042Y431083D01*
X495085Y430992D01*
X495131Y430934D01*
X495169Y430871D01*
X495239Y430799D01*
X495302Y430720D01*
X495360Y430674D01*
X495412Y430621D01*
X495497Y430566D01*
X495576Y430504D01*
X495665Y430458D01*
X495706Y430432D01*
X495739Y430420D01*
X495793Y430393D01*
X496542Y430082D01*
X500186Y426438D01*
X502159Y421677D01*
X502159Y416523D01*
X500186Y411762D01*
X496542Y408118D01*
X495793Y407807D01*
X495706Y407759D01*
X495613Y407719D01*
X495554Y407674D01*
X495489Y407638D01*
X495414Y407571D01*
X495334Y407511D01*
X495286Y407454D01*
X495231Y407404D01*
X495174Y407321D01*
X495109Y407245D01*
X495075Y407178D01*
X495032Y407117D01*
X494996Y407024D01*
X494950Y406934D01*
X494932Y406862D01*
X494905Y406793D01*
X494890Y406693D01*
X494866Y406596D01*
X494865Y406522D01*
X494854Y406448D01*
X494862Y406348D01*
X494861Y406248D01*
X494877Y406175D01*
X494883Y406101D01*
X494914Y406005D01*
X494935Y405907D01*
X494967Y405840D01*
X494990Y405769D01*
X495042Y405683D01*
X495085Y405592D01*
X495131Y405534D01*
X495169Y405471D01*
X495239Y405399D01*
X495302Y405320D01*
X495360Y405274D01*
X495412Y405221D01*
X495497Y405166D01*
X495576Y405104D01*
X495665Y405058D01*
X495706Y405032D01*
X495739Y405020D01*
X495793Y404993D01*
X496542Y404682D01*
X500186Y401038D01*
X502159Y396277D01*
X502159Y391123D01*
X500186Y386362D01*
X496542Y382718D01*
X491781Y380745D01*
X473419Y380745D01*
X468658Y382717D01*
X467675Y383700D01*
X467596Y383763D01*
X467524Y383832D01*
X467460Y383871D01*
X467402Y383917D01*
X467311Y383960D01*
X467225Y384011D01*
X467154Y384034D01*
X467087Y384066D01*
X466989Y384087D01*
X466893Y384117D01*
X466819Y384123D01*
X466746Y384139D01*
X466646Y384137D01*
X466546Y384145D01*
X466472Y384134D01*
X466398Y384133D01*
X466301Y384109D01*
X466201Y384094D01*
X466132Y384066D01*
X466060Y384048D01*
X465971Y384002D01*
X465877Y383965D01*
X465816Y383923D01*
X465750Y383888D01*
X465674Y383823D01*
X465591Y383766D01*
X465541Y383711D01*
X465485Y383663D01*
X465425Y383582D01*
X465358Y383507D01*
X465322Y383442D01*
X465277Y383382D01*
X465238Y383290D01*
X465189Y383202D01*
X465169Y383131D01*
X465139Y383062D01*
X465122Y382964D01*
X465094Y382867D01*
X465086Y382767D01*
X465078Y382719D01*
X465080Y382684D01*
X465075Y382623D01*
X465075Y373354D01*
X465094Y373190D01*
X465110Y373026D01*
X465114Y373017D01*
X465115Y373007D01*
X465170Y372853D01*
X465224Y372697D01*
X465229Y372688D01*
X465232Y372679D01*
X465321Y372541D01*
X465409Y372401D01*
X465416Y372395D01*
X465421Y372386D01*
X465540Y372272D01*
X465657Y372156D01*
X465665Y372151D01*
X465672Y372144D01*
X465814Y372059D01*
X465953Y371973D01*
X465963Y371970D01*
X465971Y371965D01*
X466128Y371915D01*
X466284Y371863D01*
X466294Y371862D01*
X466303Y371859D01*
X466466Y371846D01*
X466631Y371831D01*
X466641Y371832D01*
X466650Y371831D01*
X466813Y371856D01*
X466976Y371878D01*
X466985Y371881D01*
X466995Y371883D01*
X467149Y371944D01*
X467302Y372003D01*
X467310Y372008D01*
X467319Y372012D01*
X467454Y372106D01*
X467590Y372198D01*
X467597Y372205D01*
X467605Y372211D01*
X467715Y372333D01*
X467827Y372454D01*
X467833Y372463D01*
X467838Y372469D01*
X467853Y372496D01*
X467955Y372662D01*
X468175Y373093D01*
X469021Y374257D01*
X470039Y375275D01*
X471203Y376121D01*
X472486Y376775D01*
X473854Y377220D01*
X475276Y377445D01*
X480569Y377445D01*
X480569Y368808D01*
X480572Y368782D01*
X480570Y368756D01*
X480592Y368609D01*
X480609Y368462D01*
X480617Y368437D01*
X480621Y368411D01*
X480664Y368304D01*
X480643Y368228D01*
X480598Y368087D01*
X480595Y368061D01*
X480588Y368036D01*
X480569Y367792D01*
X480569Y359155D01*
X475276Y359155D01*
X473854Y359380D01*
X472486Y359825D01*
X471203Y360479D01*
X470039Y361325D01*
X469021Y362343D01*
X468175Y363507D01*
X467955Y363938D01*
X467864Y364075D01*
X467775Y364214D01*
X467768Y364220D01*
X467763Y364228D01*
X467643Y364341D01*
X467524Y364456D01*
X467516Y364461D01*
X467509Y364467D01*
X467367Y364550D01*
X467225Y364635D01*
X467216Y364638D01*
X467208Y364642D01*
X467051Y364690D01*
X466893Y364741D01*
X466883Y364742D01*
X466874Y364744D01*
X466711Y364755D01*
X466546Y364769D01*
X466536Y364767D01*
X466527Y364768D01*
X466365Y364742D01*
X466201Y364717D01*
X466192Y364713D01*
X466183Y364712D01*
X466030Y364649D01*
X465877Y364588D01*
X465869Y364583D01*
X465860Y364579D01*
X465726Y364483D01*
X465591Y364389D01*
X465585Y364382D01*
X465577Y364377D01*
X465468Y364252D01*
X465358Y364131D01*
X465353Y364122D01*
X465347Y364115D01*
X465268Y363969D01*
X465189Y363826D01*
X465187Y363816D01*
X465182Y363808D01*
X465139Y363649D01*
X465094Y363490D01*
X465093Y363479D01*
X465091Y363471D01*
X465090Y363441D01*
X465075Y363246D01*
X465075Y353977D01*
X465086Y353877D01*
X465088Y353777D01*
X465106Y353705D01*
X465115Y353631D01*
X465149Y353536D01*
X465173Y353439D01*
X465207Y353373D01*
X465232Y353303D01*
X465287Y353218D01*
X465333Y353129D01*
X465381Y353072D01*
X465421Y353010D01*
X465493Y352940D01*
X465558Y352864D01*
X465618Y352819D01*
X465672Y352768D01*
X465758Y352716D01*
X465839Y352656D01*
X465907Y352627D01*
X465971Y352589D01*
X466067Y352558D01*
X466159Y352518D01*
X466232Y352505D01*
X466303Y352483D01*
X466403Y352475D01*
X466502Y352457D01*
X466576Y352461D01*
X466650Y352455D01*
X466750Y352470D01*
X466850Y352475D01*
X466921Y352495D01*
X466995Y352506D01*
X467088Y352543D01*
X467185Y352571D01*
X467250Y352608D01*
X467319Y352635D01*
X467401Y352692D01*
X467489Y352741D01*
X467565Y352807D01*
X467605Y352834D01*
X467629Y352860D01*
X467675Y352900D01*
X468658Y353883D01*
X473419Y355855D01*
X491781Y355855D01*
X496542Y353882D01*
X500186Y350238D01*
X502159Y345477D01*
X502159Y340323D01*
X500186Y335562D01*
X496542Y331918D01*
X495793Y331607D01*
X495706Y331559D01*
X495613Y331519D01*
X495554Y331474D01*
X495489Y331438D01*
X495414Y331371D01*
X495334Y331311D01*
X495286Y331254D01*
X495231Y331204D01*
X495174Y331121D01*
X495109Y331045D01*
X495075Y330978D01*
X495032Y330917D01*
X494996Y330824D01*
X494950Y330734D01*
X494932Y330662D01*
X494905Y330593D01*
X494890Y330493D01*
X494866Y330396D01*
X494865Y330322D01*
X494854Y330248D01*
X494862Y330148D01*
X494861Y330048D01*
X494877Y329975D01*
X494883Y329901D01*
X494914Y329805D01*
X494935Y329707D01*
X494967Y329640D01*
X494990Y329569D01*
X495042Y329483D01*
X495085Y329392D01*
X495131Y329334D01*
X495169Y329271D01*
X495239Y329199D01*
X495302Y329120D01*
X495360Y329074D01*
X495412Y329021D01*
X495497Y328966D01*
X495576Y328904D01*
X495665Y328858D01*
X495706Y328832D01*
X495739Y328820D01*
X495793Y328793D01*
X496542Y328482D01*
X500186Y324838D01*
X502159Y320077D01*
X502159Y314923D01*
X502100Y314781D01*
X502058Y314636D01*
X502013Y314493D01*
X502011Y314469D01*
X502004Y314446D01*
X501997Y314295D01*
X501985Y314146D01*
X501988Y314122D01*
X501987Y314098D01*
X502014Y313950D01*
X502036Y313801D01*
X502045Y313779D01*
X502050Y313755D01*
X502110Y313617D01*
X502165Y313477D01*
X502179Y313457D01*
X502189Y313435D01*
X502278Y313315D01*
X502364Y313191D01*
X502382Y313175D01*
X502396Y313155D01*
X502512Y313058D01*
X502623Y312958D01*
X502644Y312946D01*
X502662Y312930D01*
X502796Y312862D01*
X502928Y312789D01*
X502951Y312783D01*
X502973Y312772D01*
X503118Y312735D01*
X503263Y312694D01*
X503292Y312692D01*
X503311Y312687D01*
X503358Y312687D01*
X503507Y312675D01*
X537893Y312675D01*
X538042Y312692D01*
X538192Y312704D01*
X538215Y312712D01*
X538239Y312715D01*
X538381Y312765D01*
X538524Y312812D01*
X538544Y312824D01*
X538567Y312832D01*
X538694Y312914D01*
X538822Y312991D01*
X538840Y313008D01*
X538860Y313021D01*
X538964Y313129D01*
X539072Y313234D01*
X539085Y313254D01*
X539102Y313272D01*
X539179Y313401D01*
X539261Y313527D01*
X539269Y313550D01*
X539281Y313571D01*
X539327Y313714D01*
X539377Y313856D01*
X539380Y313880D01*
X539387Y313903D01*
X539399Y314052D01*
X539416Y314202D01*
X539413Y314226D01*
X539415Y314250D01*
X539393Y314399D01*
X539375Y314548D01*
X539366Y314576D01*
X539364Y314595D01*
X539346Y314639D01*
X539300Y314781D01*
X539241Y314923D01*
X539241Y320077D01*
X541214Y324838D01*
X544858Y328482D01*
X545607Y328793D01*
X545694Y328841D01*
X545787Y328881D01*
X545846Y328926D01*
X545911Y328962D01*
X545986Y329029D01*
X546066Y329089D01*
X546114Y329146D01*
X546169Y329196D01*
X546226Y329279D01*
X546291Y329355D01*
X546325Y329422D01*
X546368Y329483D01*
X546404Y329576D01*
X546450Y329666D01*
X546468Y329738D01*
X546495Y329807D01*
X546510Y329907D01*
X546534Y330004D01*
X546535Y330078D01*
X546546Y330152D01*
X546538Y330252D01*
X546539Y330352D01*
X546523Y330425D01*
X546517Y330499D01*
X546486Y330595D01*
X546465Y330693D01*
X546433Y330760D01*
X546410Y330831D01*
X546358Y330917D01*
X546315Y331008D01*
X546269Y331066D01*
X546231Y331129D01*
X546161Y331201D01*
X546098Y331280D01*
X546040Y331326D01*
X545988Y331379D01*
X545903Y331434D01*
X545824Y331496D01*
X545735Y331542D01*
X545694Y331568D01*
X545661Y331580D01*
X545607Y331607D01*
X544858Y331918D01*
X541214Y335562D01*
X539241Y340323D01*
X539241Y345477D01*
X541214Y350238D01*
X544858Y353882D01*
X545607Y354193D01*
X545694Y354241D01*
X545787Y354281D01*
X545846Y354326D01*
X545911Y354362D01*
X545986Y354429D01*
X546066Y354489D01*
X546114Y354546D01*
X546169Y354596D01*
X546226Y354679D01*
X546291Y354755D01*
X546325Y354822D01*
X546368Y354883D01*
X546404Y354976D01*
X546450Y355066D01*
X546468Y355138D01*
X546495Y355207D01*
X546510Y355307D01*
X546534Y355404D01*
X546535Y355478D01*
X546546Y355552D01*
X546538Y355652D01*
X546539Y355752D01*
X546523Y355825D01*
X546517Y355899D01*
X546486Y355995D01*
X546465Y356093D01*
X546433Y356160D01*
X546410Y356231D01*
X546358Y356317D01*
X546315Y356408D01*
X546269Y356466D01*
X546231Y356529D01*
X546161Y356601D01*
X546098Y356680D01*
X546040Y356726D01*
X545988Y356779D01*
X545903Y356834D01*
X545824Y356896D01*
X545735Y356942D01*
X545694Y356968D01*
X545661Y356980D01*
X545607Y357007D01*
X544858Y357318D01*
X541214Y360962D01*
X539241Y365723D01*
X539241Y370877D01*
X541214Y375638D01*
X544858Y379282D01*
X549619Y381255D01*
X567981Y381255D01*
X572742Y379282D01*
X576386Y375638D01*
X578359Y370877D01*
X578359Y365723D01*
X576386Y360962D01*
X572742Y357318D01*
X571993Y357007D01*
X571906Y356958D01*
X571813Y356918D01*
X571754Y356874D01*
X571689Y356838D01*
X571614Y356770D01*
X571534Y356711D01*
X571486Y356654D01*
X571431Y356604D01*
X571374Y356521D01*
X571309Y356445D01*
X571275Y356378D01*
X571232Y356317D01*
X571196Y356224D01*
X571150Y356134D01*
X571132Y356062D01*
X571105Y355993D01*
X571090Y355893D01*
X571066Y355796D01*
X571065Y355722D01*
X571054Y355648D01*
X571062Y355548D01*
X571061Y355448D01*
X571077Y355375D01*
X571083Y355301D01*
X571114Y355205D01*
X571135Y355107D01*
X571167Y355040D01*
X571190Y354969D01*
X571242Y354883D01*
X571285Y354792D01*
X571331Y354734D01*
X571369Y354671D01*
X571440Y354598D01*
X571502Y354520D01*
X571560Y354474D01*
X571612Y354421D01*
X571697Y354366D01*
X571776Y354304D01*
X571865Y354258D01*
X571906Y354232D01*
X571939Y354220D01*
X571993Y354193D01*
X572742Y353882D01*
X576386Y350238D01*
X578359Y345477D01*
X578359Y340323D01*
X576386Y335562D01*
X572742Y331918D01*
X571993Y331607D01*
X571906Y331558D01*
X571813Y331518D01*
X571754Y331474D01*
X571689Y331438D01*
X571614Y331370D01*
X571534Y331311D01*
X571486Y331254D01*
X571431Y331204D01*
X571374Y331121D01*
X571309Y331045D01*
X571275Y330978D01*
X571232Y330917D01*
X571196Y330824D01*
X571150Y330734D01*
X571132Y330662D01*
X571105Y330593D01*
X571090Y330493D01*
X571066Y330396D01*
X571065Y330322D01*
X571054Y330248D01*
X571062Y330148D01*
X571061Y330048D01*
X571077Y329975D01*
X571083Y329901D01*
X571114Y329805D01*
X571135Y329707D01*
X571167Y329640D01*
X571190Y329569D01*
X571242Y329483D01*
X571285Y329392D01*
X571331Y329334D01*
X571369Y329271D01*
X571440Y329198D01*
X571502Y329120D01*
X571560Y329074D01*
X571612Y329021D01*
X571697Y328966D01*
X571776Y328904D01*
X571865Y328858D01*
X571906Y328832D01*
X571939Y328820D01*
X571993Y328793D01*
X572742Y328482D01*
X576386Y324838D01*
X578359Y320077D01*
X578359Y314923D01*
X578300Y314781D01*
X578258Y314636D01*
X578213Y314493D01*
X578211Y314469D01*
X578204Y314446D01*
X578197Y314295D01*
X578185Y314146D01*
X578188Y314122D01*
X578187Y314098D01*
X578214Y313950D01*
X578236Y313801D01*
X578245Y313779D01*
X578250Y313755D01*
X578310Y313617D01*
X578365Y313477D01*
X578379Y313457D01*
X578389Y313435D01*
X578478Y313315D01*
X578564Y313191D01*
X578582Y313175D01*
X578596Y313155D01*
X578712Y313058D01*
X578823Y312958D01*
X578844Y312946D01*
X578862Y312930D01*
X578996Y312862D01*
X579128Y312789D01*
X579151Y312783D01*
X579173Y312772D01*
X579318Y312735D01*
X579463Y312694D01*
X579492Y312692D01*
X579511Y312687D01*
X579558Y312687D01*
X579707Y312675D01*
X621918Y312675D01*
X622008Y312685D01*
X622099Y312686D01*
X622181Y312705D01*
X622264Y312715D01*
X622350Y312745D01*
X622438Y312766D01*
X622513Y312804D01*
X622592Y312832D01*
X622669Y312881D01*
X622750Y312922D01*
X622815Y312976D01*
X622885Y313021D01*
X622948Y313087D01*
X623018Y313144D01*
X623069Y313211D01*
X623127Y313272D01*
X623174Y313350D01*
X623229Y313422D01*
X623263Y313499D01*
X623306Y313571D01*
X623334Y313657D01*
X623371Y313740D01*
X623387Y313823D01*
X623412Y313903D01*
X623420Y313993D01*
X623437Y314083D01*
X623434Y314167D01*
X623440Y314250D01*
X623427Y314340D01*
X623423Y314431D01*
X623396Y314545D01*
X623389Y314595D01*
X623378Y314622D01*
X623367Y314669D01*
X623355Y314704D01*
X623315Y314961D01*
X633984Y314961D01*
X634010Y314964D01*
X634036Y314962D01*
X634183Y314984D01*
X634330Y315001D01*
X634355Y315009D01*
X634381Y315013D01*
X634518Y315068D01*
X634658Y315118D01*
X634680Y315132D01*
X634705Y315142D01*
X634826Y315227D01*
X634951Y315307D01*
X634969Y315326D01*
X634991Y315341D01*
X635090Y315451D01*
X635193Y315558D01*
X635207Y315580D01*
X635224Y315600D01*
X635296Y315730D01*
X635372Y315857D01*
X635380Y315882D01*
X635393Y315905D01*
X635433Y316048D01*
X635478Y316189D01*
X635480Y316215D01*
X635487Y316240D01*
X635507Y316484D01*
X635507Y316993D01*
X636016Y316993D01*
X636042Y316996D01*
X636068Y316994D01*
X636215Y317016D01*
X636362Y317033D01*
X636387Y317042D01*
X636413Y317046D01*
X636551Y317100D01*
X636690Y317150D01*
X636712Y317165D01*
X636737Y317174D01*
X636858Y317259D01*
X636983Y317339D01*
X637001Y317358D01*
X637023Y317373D01*
X637122Y317483D01*
X637225Y317590D01*
X637239Y317613D01*
X637256Y317632D01*
X637328Y317762D01*
X637404Y317889D01*
X637412Y317914D01*
X637425Y317937D01*
X637465Y318080D01*
X637510Y318221D01*
X637512Y318247D01*
X637520Y318272D01*
X637539Y318516D01*
X637539Y329185D01*
X637796Y329145D01*
X639583Y328564D01*
X641257Y327711D01*
X642778Y326606D01*
X644157Y325227D01*
X644202Y325167D01*
X644262Y325115D01*
X644316Y325057D01*
X644395Y325003D01*
X644468Y324941D01*
X644538Y324905D01*
X644604Y324861D01*
X644693Y324826D01*
X644778Y324783D01*
X644855Y324764D01*
X644929Y324735D01*
X645023Y324722D01*
X645116Y324699D01*
X645195Y324697D01*
X645274Y324686D01*
X645369Y324695D01*
X645465Y324693D01*
X645542Y324710D01*
X645621Y324717D01*
X645712Y324747D01*
X645805Y324768D01*
X645877Y324802D01*
X645952Y324827D01*
X646033Y324876D01*
X646120Y324918D01*
X646182Y324967D01*
X646249Y325008D01*
X646317Y325075D01*
X646392Y325135D01*
X646442Y325197D01*
X646498Y325253D01*
X646549Y325333D01*
X646608Y325408D01*
X646658Y325505D01*
X646684Y325547D01*
X646695Y325578D01*
X646720Y325626D01*
X647049Y326421D01*
X651479Y330851D01*
X657267Y333249D01*
X663533Y333249D01*
X669321Y330851D01*
X673751Y326421D01*
X676149Y320633D01*
X676149Y314367D01*
X673751Y308579D01*
X671049Y305877D01*
X671033Y305857D01*
X671013Y305840D01*
X670925Y305720D01*
X670833Y305604D01*
X670821Y305580D01*
X670806Y305559D01*
X670747Y305423D01*
X670684Y305289D01*
X670678Y305263D01*
X670668Y305239D01*
X670641Y305093D01*
X670610Y304948D01*
X670611Y304922D01*
X670606Y304896D01*
X670614Y304748D01*
X670616Y304600D01*
X670623Y304574D01*
X670624Y304548D01*
X670665Y304406D01*
X670701Y304262D01*
X670713Y304239D01*
X670721Y304213D01*
X670793Y304084D01*
X670861Y303952D01*
X670878Y303932D01*
X670891Y303909D01*
X671049Y303723D01*
X673751Y301021D01*
X676149Y295233D01*
X676149Y288967D01*
X673751Y283179D01*
X671049Y280477D01*
X671033Y280457D01*
X671013Y280440D01*
X670925Y280320D01*
X670833Y280204D01*
X670821Y280180D01*
X670806Y280159D01*
X670747Y280023D01*
X670684Y279889D01*
X670678Y279863D01*
X670668Y279839D01*
X670641Y279693D01*
X670610Y279548D01*
X670611Y279522D01*
X670606Y279496D01*
X670614Y279348D01*
X670616Y279200D01*
X670623Y279174D01*
X670624Y279148D01*
X670665Y279006D01*
X670701Y278862D01*
X670713Y278839D01*
X670721Y278813D01*
X670793Y278684D01*
X670861Y278552D01*
X670878Y278532D01*
X670891Y278509D01*
X671049Y278323D01*
X673751Y275621D01*
X676149Y269833D01*
X676149Y263567D01*
X673751Y257779D01*
X669737Y253765D01*
X669658Y253666D01*
X669574Y253572D01*
X669550Y253530D01*
X669520Y253492D01*
X669466Y253378D01*
X669405Y253267D01*
X669392Y253220D01*
X669371Y253177D01*
X669345Y253053D01*
X669310Y252931D01*
X669305Y252871D01*
X669298Y252836D01*
X669299Y252788D01*
X669291Y252688D01*
X669291Y245882D01*
X667937Y242614D01*
X661801Y236478D01*
X659086Y233763D01*
X657678Y233179D01*
X657590Y233131D01*
X657498Y233091D01*
X657438Y233046D01*
X657373Y233010D01*
X657299Y232943D01*
X657218Y232883D01*
X657170Y232826D01*
X657115Y232776D01*
X657058Y232693D01*
X656993Y232617D01*
X656959Y232550D01*
X656917Y232489D01*
X656880Y232396D01*
X656834Y232307D01*
X656816Y232234D01*
X656789Y232165D01*
X656774Y232066D01*
X656750Y231968D01*
X656749Y231894D01*
X656738Y231820D01*
X656747Y231720D01*
X656745Y231620D01*
X656761Y231547D01*
X656767Y231473D01*
X656798Y231377D01*
X656819Y231279D01*
X656851Y231212D01*
X656874Y231141D01*
X656926Y231055D01*
X656969Y230965D01*
X657016Y230907D01*
X657054Y230843D01*
X657124Y230771D01*
X657187Y230692D01*
X657245Y230646D01*
X657297Y230593D01*
X657381Y230538D01*
X657460Y230476D01*
X657550Y230431D01*
X657590Y230405D01*
X657624Y230393D01*
X657678Y230365D01*
X659790Y229490D01*
X662640Y226640D01*
X664183Y222916D01*
X664183Y218884D01*
X662640Y215160D01*
X659790Y212310D01*
X656066Y210767D01*
X652034Y210767D01*
X648310Y212310D01*
X645460Y215160D01*
X643917Y218884D01*
X643917Y219456D01*
X643914Y219482D01*
X643916Y219508D01*
X643894Y219655D01*
X643877Y219802D01*
X643869Y219827D01*
X643865Y219853D01*
X643810Y219991D01*
X643760Y220130D01*
X643746Y220152D01*
X643736Y220177D01*
X643651Y220298D01*
X643571Y220423D01*
X643552Y220441D01*
X643537Y220463D01*
X643427Y220562D01*
X643320Y220665D01*
X643298Y220679D01*
X643278Y220696D01*
X643148Y220768D01*
X643021Y220844D01*
X642996Y220852D01*
X642973Y220865D01*
X642830Y220905D01*
X642689Y220950D01*
X642663Y220952D01*
X642638Y220960D01*
X642394Y220979D01*
X579602Y220979D01*
X579452Y220962D01*
X579303Y220950D01*
X579280Y220942D01*
X579256Y220939D01*
X579114Y220889D01*
X578971Y220842D01*
X578950Y220830D01*
X578928Y220822D01*
X578801Y220740D01*
X578672Y220663D01*
X578655Y220646D01*
X578635Y220633D01*
X578530Y220525D01*
X578422Y220420D01*
X578409Y220400D01*
X578393Y220382D01*
X578315Y220253D01*
X578234Y220127D01*
X578226Y220104D01*
X578214Y220083D01*
X578168Y219940D01*
X578118Y219798D01*
X578115Y219774D01*
X578108Y219751D01*
X578095Y219602D01*
X578079Y219452D01*
X578081Y219428D01*
X578080Y219404D01*
X578102Y219255D01*
X578119Y219106D01*
X578128Y219078D01*
X578131Y219059D01*
X578149Y219015D01*
X578195Y218873D01*
X578359Y218477D01*
X578359Y213323D01*
X576386Y208562D01*
X572742Y204918D01*
X567981Y202945D01*
X567944Y202945D01*
X567918Y202942D01*
X567892Y202944D01*
X567745Y202922D01*
X567598Y202905D01*
X567573Y202897D01*
X567547Y202893D01*
X567409Y202838D01*
X567270Y202788D01*
X567248Y202774D01*
X567223Y202764D01*
X567102Y202679D01*
X566977Y202599D01*
X566959Y202580D01*
X566937Y202565D01*
X566838Y202455D01*
X566735Y202348D01*
X566721Y202326D01*
X566704Y202306D01*
X566632Y202176D01*
X566556Y202049D01*
X566548Y202024D01*
X566535Y202001D01*
X566495Y201858D01*
X566450Y201717D01*
X566448Y201691D01*
X566440Y201666D01*
X566421Y201422D01*
X566421Y149838D01*
X566423Y149816D01*
X566422Y149797D01*
X566436Y149703D01*
X566442Y149586D01*
X566455Y149539D01*
X566461Y149491D01*
X566472Y149459D01*
X566473Y149452D01*
X566488Y149416D01*
X566503Y149372D01*
X566538Y149251D01*
X566562Y149209D01*
X566578Y149163D01*
X566647Y149057D01*
X566708Y148947D01*
X566748Y148900D01*
X566767Y148870D01*
X566802Y148837D01*
X566867Y148760D01*
X567860Y147767D01*
X567959Y147688D01*
X568053Y147604D01*
X568096Y147580D01*
X568133Y147550D01*
X568248Y147496D01*
X568358Y147435D01*
X568405Y147422D01*
X568449Y147401D01*
X568572Y147375D01*
X568694Y147340D01*
X568755Y147335D01*
X568789Y147328D01*
X568837Y147329D01*
X568938Y147321D01*
X588730Y147321D01*
X588829Y147332D01*
X588930Y147334D01*
X589002Y147352D01*
X589076Y147361D01*
X589170Y147394D01*
X589268Y147419D01*
X589334Y147453D01*
X589404Y147478D01*
X589488Y147533D01*
X589578Y147579D01*
X589635Y147627D01*
X589697Y147667D01*
X589767Y147739D01*
X589843Y147805D01*
X589887Y147864D01*
X589939Y147918D01*
X589991Y148004D01*
X590050Y148085D01*
X590080Y148153D01*
X590118Y148217D01*
X590149Y148313D01*
X590188Y148405D01*
X590201Y148478D01*
X590224Y148549D01*
X590232Y148649D01*
X590250Y148748D01*
X590246Y148822D01*
X590252Y148896D01*
X590237Y148996D01*
X590232Y149096D01*
X590211Y149167D01*
X590200Y149241D01*
X590163Y149334D01*
X590135Y149431D01*
X590099Y149496D01*
X590072Y149565D01*
X590014Y149647D01*
X589965Y149735D01*
X589912Y149798D01*
X587501Y155617D01*
X587501Y161883D01*
X589899Y167671D01*
X594329Y172101D01*
X595124Y172430D01*
X595207Y172477D01*
X595295Y172514D01*
X595359Y172561D01*
X595428Y172600D01*
X595499Y172664D01*
X595576Y172720D01*
X595628Y172781D01*
X595687Y172834D01*
X595741Y172912D01*
X595803Y172985D01*
X595840Y173055D01*
X595885Y173120D01*
X595920Y173209D01*
X595964Y173294D01*
X595984Y173371D01*
X596013Y173445D01*
X596027Y173539D01*
X596050Y173632D01*
X596052Y173711D01*
X596063Y173789D01*
X596055Y173885D01*
X596057Y173980D01*
X596041Y174058D01*
X596034Y174137D01*
X596005Y174228D01*
X595985Y174321D01*
X595952Y174393D01*
X595927Y174468D01*
X595878Y174550D01*
X595838Y174637D01*
X595789Y174699D01*
X595748Y174767D01*
X595681Y174836D01*
X595622Y174911D01*
X595539Y174982D01*
X595505Y175017D01*
X595489Y175027D01*
X594144Y176372D01*
X593039Y177893D01*
X592186Y179567D01*
X591605Y181354D01*
X591565Y181611D01*
X602234Y181611D01*
X602260Y181614D01*
X602286Y181612D01*
X602433Y181634D01*
X602580Y181651D01*
X602605Y181659D01*
X602631Y181663D01*
X602768Y181718D01*
X602908Y181768D01*
X602930Y181782D01*
X602955Y181792D01*
X603076Y181877D01*
X603201Y181957D01*
X603219Y181976D01*
X603241Y181991D01*
X603255Y182007D01*
X603340Y181925D01*
X603363Y181911D01*
X603382Y181894D01*
X603512Y181822D01*
X603639Y181746D01*
X603664Y181738D01*
X603687Y181725D01*
X603830Y181685D01*
X603971Y181640D01*
X603997Y181637D01*
X604022Y181630D01*
X604266Y181611D01*
X627634Y181611D01*
X627660Y181614D01*
X627686Y181612D01*
X627833Y181634D01*
X627980Y181651D01*
X628005Y181659D01*
X628031Y181663D01*
X628168Y181718D01*
X628308Y181768D01*
X628330Y181782D01*
X628355Y181792D01*
X628476Y181877D01*
X628601Y181957D01*
X628619Y181976D01*
X628641Y181991D01*
X628740Y182101D01*
X628843Y182208D01*
X628857Y182230D01*
X628874Y182250D01*
X628946Y182380D01*
X629022Y182507D01*
X629030Y182532D01*
X629043Y182555D01*
X629083Y182698D01*
X629128Y182839D01*
X629130Y182865D01*
X629137Y182890D01*
X629157Y183134D01*
X629157Y183643D01*
X629666Y183643D01*
X629692Y183646D01*
X629718Y183644D01*
X629865Y183666D01*
X630012Y183683D01*
X630037Y183692D01*
X630063Y183696D01*
X630201Y183750D01*
X630340Y183800D01*
X630362Y183815D01*
X630387Y183824D01*
X630508Y183909D01*
X630633Y183989D01*
X630651Y184008D01*
X630673Y184023D01*
X630772Y184133D01*
X630875Y184240D01*
X630889Y184263D01*
X630906Y184282D01*
X630978Y184412D01*
X631054Y184539D01*
X631062Y184564D01*
X631075Y184587D01*
X631115Y184730D01*
X631160Y184871D01*
X631162Y184897D01*
X631170Y184922D01*
X631189Y185166D01*
X631189Y195835D01*
X631446Y195795D01*
X633233Y195214D01*
X634907Y194361D01*
X636428Y193256D01*
X637807Y191877D01*
X637852Y191817D01*
X637912Y191765D01*
X637966Y191707D01*
X638045Y191653D01*
X638118Y191591D01*
X638188Y191555D01*
X638254Y191511D01*
X638343Y191476D01*
X638428Y191433D01*
X638505Y191414D01*
X638579Y191385D01*
X638673Y191372D01*
X638766Y191349D01*
X638845Y191347D01*
X638924Y191336D01*
X639019Y191345D01*
X639115Y191343D01*
X639192Y191360D01*
X639271Y191367D01*
X639362Y191397D01*
X639455Y191418D01*
X639527Y191452D01*
X639602Y191477D01*
X639683Y191526D01*
X639770Y191568D01*
X639832Y191617D01*
X639899Y191658D01*
X639967Y191725D01*
X640042Y191785D01*
X640092Y191847D01*
X640148Y191903D01*
X640199Y191983D01*
X640258Y192058D01*
X640308Y192155D01*
X640334Y192197D01*
X640345Y192228D01*
X640370Y192276D01*
X640699Y193071D01*
X645129Y197501D01*
X650917Y199899D01*
X657183Y199899D01*
X662971Y197501D01*
X665673Y194799D01*
X665693Y194783D01*
X665710Y194763D01*
X665830Y194675D01*
X665946Y194583D01*
X665970Y194571D01*
X665991Y194556D01*
X666127Y194497D01*
X666261Y194434D01*
X666287Y194428D01*
X666311Y194418D01*
X666457Y194391D01*
X666602Y194360D01*
X666628Y194361D01*
X666654Y194356D01*
X666802Y194364D01*
X666950Y194366D01*
X666976Y194373D01*
X667002Y194374D01*
X667144Y194415D01*
X667288Y194451D01*
X667311Y194463D01*
X667337Y194471D01*
X667466Y194543D01*
X667598Y194611D01*
X667618Y194628D01*
X667641Y194641D01*
X667827Y194799D01*
X670529Y197501D01*
X676317Y199899D01*
X682583Y199899D01*
X688371Y197501D01*
X692801Y193071D01*
X695199Y187283D01*
X695199Y181017D01*
X692801Y175229D01*
X690099Y172527D01*
X690083Y172507D01*
X690063Y172490D01*
X689975Y172370D01*
X689883Y172254D01*
X689871Y172230D01*
X689856Y172209D01*
X689797Y172073D01*
X689734Y171939D01*
X689728Y171913D01*
X689718Y171889D01*
X689691Y171743D01*
X689660Y171598D01*
X689661Y171572D01*
X689656Y171546D01*
X689664Y171398D01*
X689666Y171250D01*
X689673Y171224D01*
X689674Y171198D01*
X689715Y171056D01*
X689751Y170912D01*
X689763Y170889D01*
X689771Y170863D01*
X689843Y170734D01*
X689911Y170602D01*
X689928Y170582D01*
X689941Y170559D01*
X690099Y170373D01*
X692801Y167671D01*
X695199Y161883D01*
X695199Y155617D01*
X692801Y149829D01*
X688371Y145399D01*
X682583Y143001D01*
X676317Y143001D01*
X670529Y145399D01*
X667827Y148101D01*
X667807Y148117D01*
X667790Y148137D01*
X667670Y148225D01*
X667554Y148317D01*
X667530Y148329D01*
X667509Y148344D01*
X667373Y148403D01*
X667239Y148466D01*
X667213Y148472D01*
X667189Y148482D01*
X667043Y148509D01*
X666898Y148540D01*
X666872Y148539D01*
X666846Y148544D01*
X666698Y148536D01*
X666550Y148534D01*
X666524Y148527D01*
X666498Y148526D01*
X666356Y148485D01*
X666212Y148449D01*
X666189Y148437D01*
X666163Y148429D01*
X666034Y148357D01*
X665902Y148289D01*
X665882Y148272D01*
X665859Y148259D01*
X665673Y148101D01*
X662971Y145399D01*
X662417Y145169D01*
X662346Y145130D01*
X662323Y145122D01*
X662288Y145099D01*
X662192Y145054D01*
X662154Y145024D01*
X662112Y145000D01*
X662057Y144950D01*
X662030Y144933D01*
X661994Y144896D01*
X661920Y144836D01*
X661890Y144798D01*
X661854Y144766D01*
X661817Y144712D01*
X661788Y144682D01*
X661756Y144629D01*
X661704Y144563D01*
X661676Y144509D01*
X661656Y144479D01*
X661638Y144434D01*
X661629Y144416D01*
X661609Y144383D01*
X661604Y144368D01*
X661592Y144345D01*
X660511Y141733D01*
X652017Y133240D01*
X649216Y132079D01*
X563634Y132079D01*
G37*
%LPD*%
%LPC*%
G36*
X409382Y163194D02*
X409382Y163194D01*
X407048Y164161D01*
X405261Y165948D01*
X404294Y168282D01*
X404294Y169249D01*
X404283Y169349D01*
X404281Y169450D01*
X404263Y169522D01*
X404254Y169596D01*
X404221Y169690D01*
X404196Y169788D01*
X404162Y169854D01*
X404137Y169924D01*
X404082Y170008D01*
X404036Y170097D01*
X403988Y170154D01*
X403948Y170216D01*
X403876Y170286D01*
X403811Y170363D01*
X403751Y170407D01*
X403697Y170459D01*
X403611Y170510D01*
X403530Y170570D01*
X403462Y170599D01*
X403398Y170638D01*
X403303Y170668D01*
X403210Y170708D01*
X403137Y170721D01*
X403066Y170744D01*
X402966Y170752D01*
X402867Y170770D01*
X402793Y170766D01*
X402719Y170772D01*
X402619Y170757D01*
X402519Y170752D01*
X402448Y170731D01*
X402374Y170720D01*
X402281Y170683D01*
X402184Y170655D01*
X402119Y170619D01*
X402050Y170591D01*
X401968Y170534D01*
X401880Y170485D01*
X401804Y170420D01*
X401764Y170392D01*
X401740Y170366D01*
X401694Y170326D01*
X400933Y169565D01*
X399558Y168567D01*
X398044Y167795D01*
X396428Y167270D01*
X395649Y167147D01*
X395649Y177574D01*
X395646Y177600D01*
X395648Y177626D01*
X395627Y177771D01*
X395630Y177782D01*
X395649Y178026D01*
X395649Y188453D01*
X396428Y188330D01*
X398044Y187805D01*
X399558Y187033D01*
X400933Y186035D01*
X401694Y185274D01*
X401773Y185211D01*
X401845Y185141D01*
X401909Y185103D01*
X401967Y185057D01*
X402058Y185014D01*
X402144Y184962D01*
X402215Y184940D01*
X402282Y184908D01*
X402380Y184887D01*
X402476Y184856D01*
X402550Y184850D01*
X402623Y184835D01*
X402723Y184836D01*
X402823Y184828D01*
X402897Y184839D01*
X402971Y184841D01*
X403068Y184865D01*
X403168Y184880D01*
X403237Y184907D01*
X403309Y184926D01*
X403398Y184972D01*
X403492Y185009D01*
X403553Y185051D01*
X403619Y185085D01*
X403696Y185150D01*
X403778Y185208D01*
X403828Y185263D01*
X403884Y185311D01*
X403944Y185392D01*
X404011Y185466D01*
X404047Y185532D01*
X404092Y185591D01*
X404131Y185683D01*
X404180Y185771D01*
X404200Y185843D01*
X404230Y185911D01*
X404247Y186010D01*
X404275Y186107D01*
X404283Y186207D01*
X404291Y186254D01*
X404289Y186290D01*
X404294Y186351D01*
X404294Y187318D01*
X405261Y189652D01*
X407048Y191439D01*
X409382Y192406D01*
X428418Y192406D01*
X430752Y191439D01*
X432539Y189652D01*
X433506Y187318D01*
X433506Y168282D01*
X432539Y165948D01*
X430752Y164161D01*
X428418Y163194D01*
X409382Y163194D01*
G37*
%LPD*%
%LPC*%
G36*
X365167Y504951D02*
X365167Y504951D01*
X359379Y507349D01*
X354949Y511779D01*
X352551Y517567D01*
X352551Y523833D01*
X354949Y529621D01*
X359379Y534051D01*
X365167Y536449D01*
X371433Y536449D01*
X377221Y534051D01*
X381651Y529621D01*
X381980Y528826D01*
X382027Y528743D01*
X382064Y528655D01*
X382111Y528591D01*
X382150Y528522D01*
X382214Y528451D01*
X382270Y528374D01*
X382331Y528322D01*
X382384Y528263D01*
X382462Y528209D01*
X382535Y528147D01*
X382605Y528110D01*
X382670Y528065D01*
X382759Y528030D01*
X382844Y527986D01*
X382921Y527966D01*
X382995Y527937D01*
X383089Y527923D01*
X383182Y527900D01*
X383261Y527898D01*
X383339Y527887D01*
X383435Y527895D01*
X383530Y527893D01*
X383608Y527909D01*
X383687Y527916D01*
X383778Y527945D01*
X383871Y527965D01*
X383943Y527998D01*
X384018Y528023D01*
X384100Y528072D01*
X384187Y528112D01*
X384249Y528161D01*
X384317Y528202D01*
X384386Y528269D01*
X384461Y528328D01*
X384532Y528411D01*
X384567Y528445D01*
X384577Y528461D01*
X385922Y529806D01*
X387443Y530911D01*
X389117Y531764D01*
X390904Y532345D01*
X391669Y532466D01*
X391669Y521208D01*
X391672Y521182D01*
X391670Y521156D01*
X391692Y521009D01*
X391709Y520862D01*
X391717Y520837D01*
X391721Y520811D01*
X391764Y520704D01*
X391743Y520628D01*
X391698Y520487D01*
X391695Y520461D01*
X391688Y520436D01*
X391669Y520192D01*
X391669Y508934D01*
X390904Y509055D01*
X389117Y509636D01*
X387443Y510489D01*
X385922Y511594D01*
X384543Y512973D01*
X384498Y513033D01*
X384438Y513085D01*
X384384Y513143D01*
X384305Y513197D01*
X384232Y513259D01*
X384162Y513295D01*
X384096Y513339D01*
X384007Y513374D01*
X383922Y513417D01*
X383845Y513436D01*
X383771Y513465D01*
X383677Y513478D01*
X383584Y513501D01*
X383505Y513503D01*
X383426Y513514D01*
X383331Y513505D01*
X383235Y513507D01*
X383158Y513490D01*
X383079Y513483D01*
X382988Y513453D01*
X382895Y513432D01*
X382823Y513398D01*
X382748Y513373D01*
X382667Y513324D01*
X382580Y513282D01*
X382518Y513233D01*
X382451Y513192D01*
X382383Y513125D01*
X382308Y513065D01*
X382258Y513003D01*
X382202Y512947D01*
X382151Y512867D01*
X382092Y512792D01*
X382042Y512695D01*
X382016Y512653D01*
X382005Y512622D01*
X381980Y512574D01*
X381651Y511779D01*
X377221Y507349D01*
X371433Y504951D01*
X365167Y504951D01*
G37*
%LPD*%
%LPC*%
G36*
X390795Y226694D02*
X390795Y226694D01*
X385426Y228918D01*
X381318Y233026D01*
X379094Y238395D01*
X379094Y244205D01*
X381318Y249574D01*
X385426Y253682D01*
X387913Y254712D01*
X387949Y254732D01*
X387987Y254745D01*
X388101Y254816D01*
X388218Y254882D01*
X388248Y254909D01*
X388283Y254931D01*
X388377Y255026D01*
X388476Y255116D01*
X388499Y255149D01*
X388528Y255178D01*
X388598Y255292D01*
X388674Y255402D01*
X388689Y255440D01*
X388711Y255475D01*
X388753Y255602D01*
X388802Y255727D01*
X388808Y255767D01*
X388821Y255805D01*
X388833Y255939D01*
X388853Y256071D01*
X388850Y256112D01*
X388853Y256152D01*
X388835Y256285D01*
X388824Y256419D01*
X388812Y256457D01*
X388806Y256498D01*
X388758Y256623D01*
X388717Y256750D01*
X388696Y256785D01*
X388681Y256823D01*
X388606Y256934D01*
X388537Y257049D01*
X388509Y257078D01*
X388486Y257112D01*
X388388Y257203D01*
X388294Y257299D01*
X388260Y257321D01*
X388230Y257349D01*
X388061Y257453D01*
X386667Y258466D01*
X385466Y259667D01*
X384467Y261042D01*
X383695Y262556D01*
X383170Y264172D01*
X383047Y264951D01*
X393474Y264951D01*
X393500Y264954D01*
X393526Y264952D01*
X393671Y264973D01*
X393682Y264970D01*
X393926Y264951D01*
X404353Y264951D01*
X404230Y264172D01*
X403705Y262556D01*
X402933Y261042D01*
X401934Y259667D01*
X400733Y258466D01*
X399337Y257451D01*
X399307Y257438D01*
X399199Y257358D01*
X399088Y257284D01*
X399060Y257254D01*
X399027Y257230D01*
X398941Y257128D01*
X398849Y257030D01*
X398828Y256995D01*
X398802Y256964D01*
X398741Y256845D01*
X398674Y256729D01*
X398662Y256690D01*
X398643Y256654D01*
X398611Y256524D01*
X398572Y256396D01*
X398569Y256355D01*
X398559Y256316D01*
X398557Y256182D01*
X398548Y256048D01*
X398554Y256008D01*
X398554Y255967D01*
X398583Y255836D01*
X398604Y255704D01*
X398620Y255667D01*
X398628Y255627D01*
X398686Y255506D01*
X398737Y255382D01*
X398760Y255349D01*
X398778Y255312D01*
X398861Y255207D01*
X398939Y255098D01*
X398970Y255071D01*
X398995Y255040D01*
X399100Y254957D01*
X399201Y254868D01*
X399237Y254849D01*
X399269Y254824D01*
X399487Y254712D01*
X401974Y253682D01*
X406082Y249574D01*
X408306Y244205D01*
X408306Y238395D01*
X406082Y233026D01*
X401974Y228918D01*
X396605Y226694D01*
X390795Y226694D01*
G37*
%LPD*%
%LPC*%
G36*
X390795Y429894D02*
X390795Y429894D01*
X385426Y432118D01*
X381318Y436226D01*
X379094Y441595D01*
X379094Y447405D01*
X381318Y452774D01*
X385426Y456882D01*
X387913Y457912D01*
X387949Y457932D01*
X387987Y457945D01*
X388101Y458016D01*
X388218Y458082D01*
X388248Y458109D01*
X388283Y458131D01*
X388377Y458226D01*
X388476Y458316D01*
X388499Y458349D01*
X388528Y458378D01*
X388598Y458492D01*
X388674Y458602D01*
X388689Y458640D01*
X388711Y458675D01*
X388753Y458802D01*
X388802Y458927D01*
X388808Y458967D01*
X388821Y459005D01*
X388833Y459139D01*
X388853Y459271D01*
X388850Y459312D01*
X388853Y459352D01*
X388835Y459485D01*
X388824Y459619D01*
X388812Y459657D01*
X388806Y459698D01*
X388758Y459823D01*
X388717Y459950D01*
X388696Y459985D01*
X388681Y460023D01*
X388606Y460134D01*
X388537Y460249D01*
X388509Y460278D01*
X388486Y460312D01*
X388388Y460403D01*
X388294Y460499D01*
X388260Y460521D01*
X388230Y460549D01*
X388061Y460653D01*
X386667Y461666D01*
X385466Y462867D01*
X384467Y464242D01*
X383695Y465756D01*
X383170Y467372D01*
X383047Y468151D01*
X393474Y468151D01*
X393500Y468154D01*
X393526Y468152D01*
X393671Y468173D01*
X393682Y468170D01*
X393926Y468151D01*
X404353Y468151D01*
X404230Y467372D01*
X403705Y465756D01*
X402933Y464242D01*
X401934Y462867D01*
X400733Y461666D01*
X399337Y460651D01*
X399307Y460638D01*
X399199Y460558D01*
X399088Y460484D01*
X399060Y460454D01*
X399027Y460430D01*
X398941Y460328D01*
X398849Y460230D01*
X398828Y460195D01*
X398802Y460164D01*
X398741Y460045D01*
X398674Y459929D01*
X398662Y459890D01*
X398643Y459854D01*
X398611Y459724D01*
X398572Y459596D01*
X398569Y459555D01*
X398559Y459516D01*
X398557Y459382D01*
X398548Y459248D01*
X398554Y459208D01*
X398554Y459167D01*
X398583Y459036D01*
X398604Y458904D01*
X398620Y458867D01*
X398628Y458827D01*
X398686Y458706D01*
X398737Y458582D01*
X398760Y458549D01*
X398778Y458512D01*
X398861Y458407D01*
X398939Y458298D01*
X398970Y458271D01*
X398995Y458240D01*
X399100Y458157D01*
X399201Y458068D01*
X399237Y458049D01*
X399269Y458024D01*
X399487Y457912D01*
X401974Y456882D01*
X406082Y452774D01*
X408306Y447405D01*
X408306Y441595D01*
X406082Y436226D01*
X401974Y432118D01*
X396605Y429894D01*
X390795Y429894D01*
G37*
%LPD*%
%LPC*%
G36*
X441367Y555751D02*
X441367Y555751D01*
X435579Y558149D01*
X431149Y562579D01*
X428751Y568367D01*
X428751Y574633D01*
X431149Y580421D01*
X435579Y584851D01*
X441367Y587249D01*
X447633Y587249D01*
X453421Y584851D01*
X457851Y580421D01*
X460249Y574633D01*
X460249Y568367D01*
X457851Y562579D01*
X453421Y558149D01*
X447633Y555751D01*
X441367Y555751D01*
G37*
%LPD*%
%LPC*%
G36*
X365167Y555751D02*
X365167Y555751D01*
X359379Y558149D01*
X354949Y562579D01*
X352551Y568367D01*
X352551Y574633D01*
X354949Y580421D01*
X359379Y584851D01*
X365167Y587249D01*
X371433Y587249D01*
X377221Y584851D01*
X381651Y580421D01*
X384049Y574633D01*
X384049Y568367D01*
X381651Y562579D01*
X377221Y558149D01*
X371433Y555751D01*
X365167Y555751D01*
G37*
%LPD*%
%LPC*%
G36*
X390795Y315594D02*
X390795Y315594D01*
X385426Y317818D01*
X381318Y321926D01*
X379094Y327295D01*
X379094Y333105D01*
X381318Y338474D01*
X385426Y342582D01*
X390795Y344806D01*
X396605Y344806D01*
X401974Y342582D01*
X406082Y338474D01*
X408306Y333105D01*
X408306Y327295D01*
X406082Y321926D01*
X401974Y317818D01*
X396605Y315594D01*
X390795Y315594D01*
G37*
%LPD*%
%LPC*%
G36*
X390795Y366394D02*
X390795Y366394D01*
X385426Y368618D01*
X381318Y372726D01*
X379094Y378095D01*
X379094Y383905D01*
X381318Y389274D01*
X385426Y393382D01*
X390795Y395606D01*
X396605Y395606D01*
X401974Y393382D01*
X406082Y389274D01*
X408306Y383905D01*
X408306Y378095D01*
X406082Y372726D01*
X401974Y368618D01*
X396605Y366394D01*
X390795Y366394D01*
G37*
%LPD*%
%LPC*%
G36*
X605789Y186689D02*
X605789Y186689D01*
X605789Y195835D01*
X606046Y195795D01*
X607833Y195214D01*
X609507Y194361D01*
X611028Y193256D01*
X612356Y191928D01*
X613461Y190407D01*
X614314Y188733D01*
X614501Y188157D01*
X614520Y188115D01*
X614532Y188071D01*
X614592Y187957D01*
X614646Y187840D01*
X614674Y187804D01*
X614695Y187763D01*
X614780Y187666D01*
X614859Y187564D01*
X614895Y187535D01*
X614925Y187501D01*
X615029Y187425D01*
X615130Y187344D01*
X615171Y187324D01*
X615207Y187297D01*
X615326Y187248D01*
X615443Y187191D01*
X615487Y187181D01*
X615529Y187163D01*
X615657Y187142D01*
X615782Y187113D01*
X615828Y187113D01*
X615873Y187106D01*
X616002Y187114D01*
X616131Y187115D01*
X616175Y187125D01*
X616221Y187128D01*
X616344Y187166D01*
X616470Y187196D01*
X616511Y187216D01*
X616554Y187229D01*
X616666Y187294D01*
X616782Y187351D01*
X616817Y187380D01*
X616856Y187403D01*
X616951Y187491D01*
X617050Y187574D01*
X617078Y187610D01*
X617111Y187641D01*
X617183Y187748D01*
X617261Y187851D01*
X617279Y187893D01*
X617305Y187931D01*
X617399Y188157D01*
X617586Y188733D01*
X618439Y190407D01*
X619544Y191928D01*
X620872Y193256D01*
X622393Y194361D01*
X624067Y195214D01*
X625854Y195795D01*
X626111Y195835D01*
X626111Y186689D01*
X605789Y186689D01*
G37*
%LPD*%
%LPC*%
G36*
X560831Y395731D02*
X560831Y395731D01*
X560831Y402845D01*
X566124Y402845D01*
X567546Y402620D01*
X568914Y402175D01*
X570197Y401521D01*
X571361Y400675D01*
X572379Y399657D01*
X573225Y398493D01*
X573879Y397210D01*
X574324Y395842D01*
X574341Y395731D01*
X560831Y395731D01*
G37*
%LPD*%
%LPC*%
G36*
X484631Y370331D02*
X484631Y370331D01*
X484631Y377445D01*
X489924Y377445D01*
X491346Y377220D01*
X492714Y376775D01*
X493997Y376121D01*
X495161Y375275D01*
X496179Y374257D01*
X497025Y373093D01*
X497679Y371810D01*
X498124Y370442D01*
X498141Y370331D01*
X484631Y370331D01*
G37*
%LPD*%
%LPC*%
G36*
X543259Y395731D02*
X543259Y395731D01*
X543276Y395842D01*
X543721Y397210D01*
X544375Y398493D01*
X545221Y399657D01*
X546239Y400675D01*
X547403Y401521D01*
X548686Y402175D01*
X550054Y402620D01*
X551476Y402845D01*
X556769Y402845D01*
X556769Y395731D01*
X543259Y395731D01*
G37*
%LPD*%
%LPC*%
G36*
X560831Y384555D02*
X560831Y384555D01*
X560831Y391669D01*
X574341Y391669D01*
X574324Y391558D01*
X573879Y390190D01*
X573225Y388907D01*
X572379Y387743D01*
X571361Y386725D01*
X570197Y385879D01*
X568914Y385225D01*
X567546Y384780D01*
X566124Y384555D01*
X560831Y384555D01*
G37*
%LPD*%
%LPC*%
G36*
X484631Y359155D02*
X484631Y359155D01*
X484631Y366269D01*
X498141Y366269D01*
X498124Y366158D01*
X497679Y364790D01*
X497025Y363507D01*
X496179Y362343D01*
X495161Y361325D01*
X493997Y360479D01*
X492714Y359825D01*
X491346Y359380D01*
X489924Y359155D01*
X484631Y359155D01*
G37*
%LPD*%
%LPC*%
G36*
X551476Y384555D02*
X551476Y384555D01*
X550054Y384780D01*
X548686Y385225D01*
X547403Y385879D01*
X546239Y386725D01*
X545221Y387743D01*
X544375Y388907D01*
X543721Y390190D01*
X543276Y391558D01*
X543259Y391669D01*
X556769Y391669D01*
X556769Y384555D01*
X551476Y384555D01*
G37*
%LPD*%
%LPC*%
G36*
X395731Y522731D02*
X395731Y522731D01*
X395731Y532466D01*
X396496Y532345D01*
X398283Y531764D01*
X399957Y530911D01*
X401478Y529806D01*
X402806Y528478D01*
X403911Y526957D01*
X404764Y525283D01*
X405345Y523496D01*
X405466Y522731D01*
X395731Y522731D01*
G37*
%LPD*%
%LPC*%
G36*
X395731Y518669D02*
X395731Y518669D01*
X405466Y518669D01*
X405345Y517904D01*
X404764Y516117D01*
X403911Y514443D01*
X402806Y512922D01*
X401478Y511594D01*
X399957Y510489D01*
X398283Y509636D01*
X396496Y509055D01*
X395731Y508934D01*
X395731Y518669D01*
G37*
%LPD*%
%LPC*%
G36*
X623315Y320039D02*
X623315Y320039D01*
X623355Y320296D01*
X623936Y322083D01*
X624789Y323757D01*
X625894Y325278D01*
X627222Y326606D01*
X628743Y327711D01*
X630417Y328564D01*
X632204Y329145D01*
X632461Y329185D01*
X632461Y320039D01*
X623315Y320039D01*
G37*
%LPD*%
%LPC*%
G36*
X591565Y186689D02*
X591565Y186689D01*
X591605Y186946D01*
X592186Y188733D01*
X593039Y190407D01*
X594144Y191928D01*
X595472Y193256D01*
X596993Y194361D01*
X598667Y195214D01*
X600454Y195795D01*
X600711Y195835D01*
X600711Y186689D01*
X591565Y186689D01*
G37*
%LPD*%
%LPC*%
G36*
X395449Y471649D02*
X395449Y471649D01*
X395449Y480553D01*
X396228Y480430D01*
X397844Y479905D01*
X399358Y479133D01*
X400733Y478134D01*
X401934Y476933D01*
X402933Y475558D01*
X403705Y474044D01*
X404230Y472428D01*
X404353Y471649D01*
X395449Y471649D01*
G37*
%LPD*%
%LPC*%
G36*
X395449Y268449D02*
X395449Y268449D01*
X395449Y277353D01*
X396228Y277230D01*
X397844Y276705D01*
X399358Y275933D01*
X400733Y274934D01*
X401934Y273733D01*
X402933Y272358D01*
X403705Y270844D01*
X404230Y269228D01*
X404353Y268449D01*
X395449Y268449D01*
G37*
%LPD*%
%LPC*%
G36*
X383047Y471649D02*
X383047Y471649D01*
X383170Y472428D01*
X383695Y474044D01*
X384467Y475558D01*
X385466Y476933D01*
X386667Y478134D01*
X388042Y479133D01*
X389556Y479905D01*
X391172Y480430D01*
X391951Y480553D01*
X391951Y471649D01*
X383047Y471649D01*
G37*
%LPD*%
%LPC*%
G36*
X383047Y268449D02*
X383047Y268449D01*
X383170Y269228D01*
X383695Y270844D01*
X384467Y272358D01*
X385466Y273733D01*
X386667Y274934D01*
X388042Y275933D01*
X389556Y276705D01*
X391172Y277230D01*
X391951Y277353D01*
X391951Y268449D01*
X383047Y268449D01*
G37*
%LPD*%
%LPC*%
G36*
X383247Y179549D02*
X383247Y179549D01*
X383370Y180328D01*
X383895Y181944D01*
X384667Y183458D01*
X385666Y184833D01*
X386867Y186034D01*
X388242Y187033D01*
X389756Y187805D01*
X391372Y188330D01*
X392151Y188453D01*
X392151Y179549D01*
X383247Y179549D01*
G37*
%LPD*%
%LPC*%
G36*
X391372Y167270D02*
X391372Y167270D01*
X389756Y167795D01*
X388242Y168567D01*
X386867Y169566D01*
X385666Y170767D01*
X384667Y172142D01*
X383895Y173656D01*
X383370Y175272D01*
X383247Y176051D01*
X392151Y176051D01*
X392151Y167147D01*
X391372Y167270D01*
G37*
%LPD*%
%LPC*%
G36*
X624919Y535899D02*
X624919Y535899D01*
X624919Y541275D01*
X625092Y541921D01*
X625427Y542500D01*
X625900Y542973D01*
X626479Y543308D01*
X627125Y543481D01*
X632501Y543481D01*
X632501Y535899D01*
X624919Y535899D01*
G37*
%LPD*%
D10*
X393700Y241300D03*
X393700Y266700D03*
X393700Y444500D03*
X393700Y469900D03*
D11*
X418900Y177800D03*
D10*
X393900Y177800D03*
D12*
X368300Y520700D03*
X393700Y520700D03*
D13*
X475996Y546100D02*
X489204Y546100D01*
X489204Y520700D02*
X475996Y520700D01*
X475996Y495300D02*
X489204Y495300D01*
X489204Y469900D02*
X475996Y469900D01*
X475996Y444500D02*
X489204Y444500D01*
X489204Y419100D02*
X475996Y419100D01*
X475996Y393700D02*
X489204Y393700D01*
X489204Y368300D02*
X475996Y368300D01*
X475996Y342900D02*
X489204Y342900D01*
X489204Y317500D02*
X475996Y317500D01*
X475996Y292100D02*
X489204Y292100D01*
X489204Y266700D02*
X475996Y266700D01*
X475996Y241300D02*
X489204Y241300D01*
X489204Y215900D02*
X475996Y215900D01*
X552196Y215900D02*
X565404Y215900D01*
X565404Y241300D02*
X552196Y241300D01*
X552196Y266700D02*
X565404Y266700D01*
X565404Y292100D02*
X552196Y292100D01*
X552196Y317500D02*
X565404Y317500D01*
X565404Y342900D02*
X552196Y342900D01*
X552196Y368300D02*
X565404Y368300D01*
X565404Y393700D02*
X552196Y393700D01*
X552196Y419100D02*
X565404Y419100D01*
X565404Y444500D02*
X552196Y444500D01*
X552196Y469900D02*
X565404Y469900D01*
X565404Y495300D02*
X552196Y495300D01*
X552196Y520700D02*
X565404Y520700D01*
X565404Y546100D02*
X552196Y546100D01*
D12*
X660400Y266700D03*
X635000Y266700D03*
X660400Y292100D03*
X635000Y292100D03*
X660400Y317500D03*
X635000Y317500D03*
D14*
X635000Y533400D03*
D15*
X660400Y457200D03*
X660400Y482600D03*
X660400Y508000D03*
X660400Y533400D03*
X635000Y508000D03*
X635000Y482600D03*
X635000Y457200D03*
D12*
X368300Y571500D03*
X444500Y571500D03*
D10*
X393700Y330200D03*
X393700Y381000D03*
D12*
X603250Y158750D03*
X603250Y184150D03*
X628650Y158750D03*
X628650Y184150D03*
X654050Y158750D03*
X654050Y184150D03*
X679450Y158750D03*
X679450Y184150D03*
D16*
X660400Y431800D03*
D17*
X685038Y431800D02*
X697738Y444500D01*
X697738Y534162D02*
X685800Y546100D01*
X647700Y546100D01*
X635000Y533400D01*
X660400Y431800D02*
X685038Y431800D01*
X697738Y444500D02*
X697738Y534162D01*
X685038Y431800D02*
X697738Y419100D01*
X698500Y419100D01*
X698500Y368300D01*
X685800Y355600D01*
X647700Y355600D01*
X635000Y342900D01*
X635000Y317500D01*
X685800Y355600D02*
X698500Y342900D01*
X698500Y215900D01*
X685800Y203200D01*
X603250Y190500D02*
X603250Y184150D01*
X628650Y184150D01*
X628650Y190500D01*
X641350Y203200D01*
X685800Y203200D01*
D16*
X508000Y469900D03*
D18*
X533400Y469900D01*
D16*
X533400Y469900D03*
D18*
X558800Y520700D02*
X596900Y520700D01*
X635000Y482600D01*
X584200Y495300D02*
X558800Y495300D01*
X584200Y495300D02*
X622300Y457200D01*
X635000Y457200D01*
D17*
X660400Y266700D02*
X660400Y247650D01*
X654050Y241300D01*
X609600Y241300D02*
X596900Y254000D01*
X596900Y273050D02*
X577850Y292100D01*
X558800Y292100D01*
X609600Y241300D02*
X654050Y241300D01*
X596900Y254000D02*
X596900Y273050D01*
D18*
X482600Y546100D02*
X469900Y546100D01*
X457200Y533400D01*
X457200Y317500D01*
X469900Y304800D01*
X647700Y304800D01*
X660400Y317500D01*
D19*
X558800Y215900D02*
X558800Y146050D01*
X565150Y139700D01*
X647700Y139700D02*
X654050Y146050D01*
X647700Y139700D02*
X565150Y139700D01*
X654050Y146050D02*
X654050Y158750D01*
X533400Y215900D02*
X482600Y215900D01*
X533400Y215900D02*
X546100Y228600D01*
X646350Y228600D01*
X654050Y220900D01*
D16*
X654050Y220900D03*
M02*
