G04 EAGLE Gerber RS-274X export*
G75*
%MOMM*%
%FSLAX34Y34*%
%LPD*%
%INSilkscreen Top*%
%IPPOS*%
%AMOC8*
5,1,8,0,0,1.08239X$1,22.5*%
G01*
%ADD10C,0.203200*%
%ADD11C,0.127000*%
%ADD12C,0.025400*%
%ADD13C,0.152400*%
%ADD14C,0.177800*%


D10*
X387350Y254000D02*
X400050Y254000D01*
D11*
X382905Y252504D02*
X382905Y251432D01*
X382903Y251367D01*
X382897Y251303D01*
X382887Y251239D01*
X382874Y251175D01*
X382856Y251113D01*
X382835Y251052D01*
X382811Y250992D01*
X382782Y250934D01*
X382750Y250877D01*
X382715Y250823D01*
X382677Y250771D01*
X382635Y250721D01*
X382591Y250674D01*
X382544Y250630D01*
X382494Y250588D01*
X382442Y250550D01*
X382388Y250515D01*
X382331Y250483D01*
X382273Y250454D01*
X382213Y250430D01*
X382152Y250409D01*
X382090Y250391D01*
X382026Y250378D01*
X381962Y250368D01*
X381898Y250362D01*
X381833Y250360D01*
X381833Y250359D02*
X379151Y250359D01*
X379086Y250361D01*
X379022Y250367D01*
X378958Y250377D01*
X378894Y250390D01*
X378832Y250408D01*
X378771Y250429D01*
X378711Y250454D01*
X378652Y250482D01*
X378596Y250514D01*
X378541Y250549D01*
X378489Y250587D01*
X378439Y250629D01*
X378392Y250673D01*
X378348Y250720D01*
X378306Y250770D01*
X378268Y250822D01*
X378233Y250877D01*
X378201Y250933D01*
X378173Y250992D01*
X378148Y251051D01*
X378127Y251113D01*
X378109Y251175D01*
X378096Y251239D01*
X378086Y251303D01*
X378080Y251367D01*
X378078Y251432D01*
X378079Y251432D02*
X378079Y252504D01*
X379151Y254960D02*
X378079Y256300D01*
X382905Y256300D01*
X382905Y254960D02*
X382905Y257641D01*
D10*
X387350Y457200D02*
X400050Y457200D01*
D11*
X382905Y455704D02*
X382905Y454632D01*
X382903Y454567D01*
X382897Y454503D01*
X382887Y454439D01*
X382874Y454375D01*
X382856Y454313D01*
X382835Y454252D01*
X382811Y454192D01*
X382782Y454134D01*
X382750Y454077D01*
X382715Y454023D01*
X382677Y453971D01*
X382635Y453921D01*
X382591Y453874D01*
X382544Y453830D01*
X382494Y453788D01*
X382442Y453750D01*
X382388Y453715D01*
X382331Y453683D01*
X382273Y453654D01*
X382213Y453630D01*
X382152Y453609D01*
X382090Y453591D01*
X382026Y453578D01*
X381962Y453568D01*
X381898Y453562D01*
X381833Y453560D01*
X381833Y453559D02*
X379151Y453559D01*
X379086Y453561D01*
X379022Y453567D01*
X378958Y453577D01*
X378894Y453590D01*
X378832Y453608D01*
X378771Y453629D01*
X378711Y453654D01*
X378652Y453682D01*
X378596Y453714D01*
X378541Y453749D01*
X378489Y453787D01*
X378439Y453829D01*
X378392Y453873D01*
X378348Y453920D01*
X378306Y453970D01*
X378268Y454022D01*
X378233Y454077D01*
X378201Y454133D01*
X378173Y454192D01*
X378148Y454251D01*
X378127Y454313D01*
X378109Y454375D01*
X378096Y454439D01*
X378086Y454503D01*
X378080Y454567D01*
X378078Y454632D01*
X378079Y454632D02*
X378079Y455704D01*
X378079Y459634D02*
X378081Y459702D01*
X378087Y459769D01*
X378096Y459836D01*
X378109Y459903D01*
X378126Y459968D01*
X378147Y460033D01*
X378171Y460096D01*
X378199Y460158D01*
X378230Y460218D01*
X378264Y460276D01*
X378302Y460332D01*
X378342Y460387D01*
X378386Y460438D01*
X378433Y460487D01*
X378482Y460534D01*
X378533Y460578D01*
X378588Y460618D01*
X378644Y460656D01*
X378702Y460690D01*
X378762Y460721D01*
X378824Y460749D01*
X378887Y460773D01*
X378952Y460794D01*
X379017Y460811D01*
X379084Y460824D01*
X379151Y460833D01*
X379218Y460839D01*
X379286Y460841D01*
X378079Y459634D02*
X378081Y459556D01*
X378087Y459478D01*
X378097Y459401D01*
X378110Y459324D01*
X378128Y459248D01*
X378149Y459173D01*
X378174Y459099D01*
X378203Y459027D01*
X378235Y458956D01*
X378271Y458887D01*
X378310Y458819D01*
X378353Y458754D01*
X378399Y458691D01*
X378448Y458630D01*
X378500Y458572D01*
X378555Y458517D01*
X378612Y458464D01*
X378672Y458415D01*
X378735Y458368D01*
X378800Y458325D01*
X378866Y458285D01*
X378935Y458248D01*
X379006Y458215D01*
X379078Y458185D01*
X379152Y458159D01*
X380224Y460439D02*
X380175Y460488D01*
X380123Y460535D01*
X380068Y460578D01*
X380011Y460619D01*
X379952Y460657D01*
X379891Y460691D01*
X379828Y460722D01*
X379764Y460750D01*
X379698Y460774D01*
X379632Y460794D01*
X379564Y460811D01*
X379495Y460824D01*
X379426Y460833D01*
X379356Y460839D01*
X379286Y460841D01*
X380224Y460439D02*
X382905Y458160D01*
X382905Y460841D01*
D10*
X381400Y177800D02*
X381408Y178414D01*
X381430Y179027D01*
X381468Y179639D01*
X381520Y180250D01*
X381588Y180860D01*
X381671Y181468D01*
X381768Y182074D01*
X381880Y182677D01*
X382007Y183278D01*
X382149Y183875D01*
X382306Y184468D01*
X382476Y185057D01*
X382662Y185642D01*
X382861Y186222D01*
X383075Y186797D01*
X383303Y187367D01*
X383545Y187931D01*
X383800Y188489D01*
X384069Y189040D01*
X384352Y189585D01*
X384648Y190122D01*
X384957Y190653D01*
X385279Y191175D01*
X385613Y191689D01*
X385960Y192195D01*
X386320Y192692D01*
X386691Y193181D01*
X387075Y193660D01*
X387470Y194129D01*
X387876Y194589D01*
X388294Y195039D01*
X388722Y195478D01*
X389161Y195906D01*
X389611Y196324D01*
X390071Y196730D01*
X390540Y197125D01*
X391019Y197509D01*
X391508Y197880D01*
X392005Y198240D01*
X392511Y198587D01*
X393025Y198921D01*
X393547Y199243D01*
X394078Y199552D01*
X394615Y199848D01*
X395160Y200131D01*
X395711Y200400D01*
X396269Y200655D01*
X396833Y200897D01*
X397403Y201125D01*
X397978Y201339D01*
X398558Y201538D01*
X399143Y201724D01*
X399732Y201894D01*
X400325Y202051D01*
X400922Y202193D01*
X401523Y202320D01*
X402126Y202432D01*
X402732Y202529D01*
X403340Y202612D01*
X403950Y202680D01*
X404561Y202732D01*
X405173Y202770D01*
X405786Y202792D01*
X406400Y202800D01*
X407014Y202792D01*
X407627Y202770D01*
X408239Y202732D01*
X408850Y202680D01*
X409460Y202612D01*
X410068Y202529D01*
X410674Y202432D01*
X411277Y202320D01*
X411878Y202193D01*
X412475Y202051D01*
X413068Y201894D01*
X413657Y201724D01*
X414242Y201538D01*
X414822Y201339D01*
X415397Y201125D01*
X415967Y200897D01*
X416531Y200655D01*
X417089Y200400D01*
X417640Y200131D01*
X418185Y199848D01*
X418722Y199552D01*
X419253Y199243D01*
X419775Y198921D01*
X420289Y198587D01*
X420795Y198240D01*
X421292Y197880D01*
X421781Y197509D01*
X422260Y197125D01*
X422729Y196730D01*
X423189Y196324D01*
X423639Y195906D01*
X424078Y195478D01*
X424506Y195039D01*
X424924Y194589D01*
X425330Y194129D01*
X425725Y193660D01*
X426109Y193181D01*
X426480Y192692D01*
X426840Y192195D01*
X427187Y191689D01*
X427521Y191175D01*
X427843Y190653D01*
X428152Y190122D01*
X428448Y189585D01*
X428731Y189040D01*
X429000Y188489D01*
X429255Y187931D01*
X429497Y187367D01*
X429725Y186797D01*
X429939Y186222D01*
X430138Y185642D01*
X430324Y185057D01*
X430494Y184468D01*
X430651Y183875D01*
X430793Y183278D01*
X430920Y182677D01*
X431032Y182074D01*
X431129Y181468D01*
X431212Y180860D01*
X431280Y180250D01*
X431332Y179639D01*
X431370Y179027D01*
X431392Y178414D01*
X431400Y177800D01*
X431392Y177186D01*
X431370Y176573D01*
X431332Y175961D01*
X431280Y175350D01*
X431212Y174740D01*
X431129Y174132D01*
X431032Y173526D01*
X430920Y172923D01*
X430793Y172322D01*
X430651Y171725D01*
X430494Y171132D01*
X430324Y170543D01*
X430138Y169958D01*
X429939Y169378D01*
X429725Y168803D01*
X429497Y168233D01*
X429255Y167669D01*
X429000Y167111D01*
X428731Y166560D01*
X428448Y166015D01*
X428152Y165478D01*
X427843Y164947D01*
X427521Y164425D01*
X427187Y163911D01*
X426840Y163405D01*
X426480Y162908D01*
X426109Y162419D01*
X425725Y161940D01*
X425330Y161471D01*
X424924Y161011D01*
X424506Y160561D01*
X424078Y160122D01*
X423639Y159694D01*
X423189Y159276D01*
X422729Y158870D01*
X422260Y158475D01*
X421781Y158091D01*
X421292Y157720D01*
X420795Y157360D01*
X420289Y157013D01*
X419775Y156679D01*
X419253Y156357D01*
X418722Y156048D01*
X418185Y155752D01*
X417640Y155469D01*
X417089Y155200D01*
X416531Y154945D01*
X415967Y154703D01*
X415397Y154475D01*
X414822Y154261D01*
X414242Y154062D01*
X413657Y153876D01*
X413068Y153706D01*
X412475Y153549D01*
X411878Y153407D01*
X411277Y153280D01*
X410674Y153168D01*
X410068Y153071D01*
X409460Y152988D01*
X408850Y152920D01*
X408239Y152868D01*
X407627Y152830D01*
X407014Y152808D01*
X406400Y152800D01*
X405786Y152808D01*
X405173Y152830D01*
X404561Y152868D01*
X403950Y152920D01*
X403340Y152988D01*
X402732Y153071D01*
X402126Y153168D01*
X401523Y153280D01*
X400922Y153407D01*
X400325Y153549D01*
X399732Y153706D01*
X399143Y153876D01*
X398558Y154062D01*
X397978Y154261D01*
X397403Y154475D01*
X396833Y154703D01*
X396269Y154945D01*
X395711Y155200D01*
X395160Y155469D01*
X394615Y155752D01*
X394078Y156048D01*
X393547Y156357D01*
X393025Y156679D01*
X392511Y157013D01*
X392005Y157360D01*
X391508Y157720D01*
X391019Y158091D01*
X390540Y158475D01*
X390071Y158870D01*
X389611Y159276D01*
X389161Y159694D01*
X388722Y160122D01*
X388294Y160561D01*
X387876Y161011D01*
X387470Y161471D01*
X387075Y161940D01*
X386691Y162419D01*
X386320Y162908D01*
X385960Y163405D01*
X385613Y163911D01*
X385279Y164425D01*
X384957Y164947D01*
X384648Y165478D01*
X384352Y166015D01*
X384069Y166560D01*
X383800Y167111D01*
X383545Y167669D01*
X383303Y168233D01*
X383075Y168803D01*
X382861Y169378D01*
X382662Y169958D01*
X382476Y170543D01*
X382306Y171132D01*
X382149Y171725D01*
X382007Y172322D01*
X381880Y172923D01*
X381768Y173526D01*
X381671Y174132D01*
X381588Y174740D01*
X381520Y175350D01*
X381468Y175961D01*
X381430Y176573D01*
X381408Y177186D01*
X381400Y177800D01*
X388820Y191770D02*
X398980Y191770D01*
X413820Y191770D02*
X423980Y191770D01*
X418900Y196850D02*
X418900Y186690D01*
D11*
X404904Y205105D02*
X403832Y205105D01*
X403767Y205107D01*
X403703Y205113D01*
X403639Y205123D01*
X403575Y205136D01*
X403513Y205154D01*
X403452Y205175D01*
X403392Y205199D01*
X403334Y205228D01*
X403277Y205260D01*
X403223Y205295D01*
X403171Y205333D01*
X403121Y205375D01*
X403074Y205419D01*
X403030Y205466D01*
X402988Y205516D01*
X402950Y205568D01*
X402915Y205622D01*
X402883Y205679D01*
X402854Y205737D01*
X402830Y205797D01*
X402809Y205858D01*
X402791Y205920D01*
X402778Y205984D01*
X402768Y206048D01*
X402762Y206112D01*
X402760Y206177D01*
X402759Y206177D02*
X402759Y208859D01*
X402760Y208859D02*
X402762Y208924D01*
X402768Y208988D01*
X402778Y209052D01*
X402791Y209116D01*
X402809Y209178D01*
X402830Y209239D01*
X402854Y209299D01*
X402883Y209357D01*
X402915Y209414D01*
X402950Y209468D01*
X402988Y209520D01*
X403030Y209570D01*
X403074Y209617D01*
X403121Y209661D01*
X403171Y209703D01*
X403223Y209741D01*
X403277Y209776D01*
X403334Y209808D01*
X403392Y209837D01*
X403452Y209861D01*
X403513Y209882D01*
X403575Y209900D01*
X403639Y209913D01*
X403703Y209923D01*
X403767Y209929D01*
X403832Y209931D01*
X404904Y209931D01*
X407360Y205105D02*
X408700Y205105D01*
X408771Y205107D01*
X408843Y205113D01*
X408913Y205122D01*
X408983Y205135D01*
X409053Y205152D01*
X409121Y205173D01*
X409188Y205197D01*
X409254Y205225D01*
X409318Y205256D01*
X409381Y205291D01*
X409441Y205329D01*
X409500Y205370D01*
X409556Y205414D01*
X409610Y205461D01*
X409661Y205510D01*
X409709Y205563D01*
X409755Y205618D01*
X409797Y205675D01*
X409837Y205735D01*
X409873Y205796D01*
X409906Y205860D01*
X409935Y205925D01*
X409961Y205991D01*
X409984Y206059D01*
X410003Y206128D01*
X410018Y206198D01*
X410029Y206268D01*
X410037Y206339D01*
X410041Y206410D01*
X410041Y206482D01*
X410037Y206553D01*
X410029Y206624D01*
X410018Y206694D01*
X410003Y206764D01*
X409984Y206833D01*
X409961Y206901D01*
X409935Y206967D01*
X409906Y207032D01*
X409873Y207096D01*
X409837Y207157D01*
X409797Y207217D01*
X409755Y207274D01*
X409709Y207329D01*
X409661Y207382D01*
X409610Y207431D01*
X409556Y207478D01*
X409500Y207522D01*
X409441Y207563D01*
X409381Y207601D01*
X409318Y207636D01*
X409254Y207667D01*
X409188Y207695D01*
X409121Y207719D01*
X409053Y207740D01*
X408983Y207757D01*
X408913Y207770D01*
X408843Y207779D01*
X408771Y207785D01*
X408700Y207787D01*
X408968Y209931D02*
X407360Y209931D01*
X408968Y209931D02*
X409033Y209929D01*
X409097Y209923D01*
X409161Y209913D01*
X409225Y209900D01*
X409287Y209882D01*
X409348Y209861D01*
X409408Y209837D01*
X409466Y209808D01*
X409523Y209776D01*
X409577Y209741D01*
X409629Y209703D01*
X409679Y209661D01*
X409726Y209617D01*
X409770Y209570D01*
X409812Y209520D01*
X409850Y209468D01*
X409885Y209414D01*
X409917Y209357D01*
X409946Y209299D01*
X409970Y209239D01*
X409991Y209178D01*
X410009Y209116D01*
X410022Y209052D01*
X410032Y208988D01*
X410038Y208924D01*
X410040Y208859D01*
X410038Y208794D01*
X410032Y208730D01*
X410022Y208666D01*
X410009Y208602D01*
X409991Y208540D01*
X409970Y208479D01*
X409946Y208419D01*
X409917Y208361D01*
X409885Y208304D01*
X409850Y208250D01*
X409812Y208198D01*
X409770Y208148D01*
X409726Y208101D01*
X409679Y208057D01*
X409629Y208015D01*
X409577Y207977D01*
X409523Y207942D01*
X409466Y207910D01*
X409408Y207881D01*
X409348Y207857D01*
X409287Y207836D01*
X409225Y207818D01*
X409161Y207805D01*
X409097Y207795D01*
X409033Y207789D01*
X408968Y207787D01*
X408968Y207786D02*
X407896Y207786D01*
D10*
X406400Y501650D02*
X406400Y539750D01*
D12*
X407238Y540537D02*
X405409Y539165D01*
X405409Y539166D02*
X404950Y539757D01*
X404477Y540337D01*
X403990Y540905D01*
X403489Y541461D01*
X402975Y542004D01*
X402448Y542535D01*
X401908Y543053D01*
X401355Y543558D01*
X400790Y544048D01*
X400213Y544525D01*
X399625Y544988D01*
X399026Y545436D01*
X398415Y545869D01*
X397795Y546288D01*
X397164Y546690D01*
X396524Y547078D01*
X395875Y547450D01*
X395216Y547805D01*
X394549Y548145D01*
X393874Y548468D01*
X393191Y548774D01*
X392501Y549064D01*
X391805Y549337D01*
X391101Y549592D01*
X390392Y549830D01*
X389677Y550051D01*
X388957Y550255D01*
X388232Y550440D01*
X387503Y550608D01*
X386769Y550758D01*
X386033Y550890D01*
X385293Y551004D01*
X384551Y551100D01*
X383807Y551178D01*
X383061Y551238D01*
X382314Y551279D01*
X381566Y551302D01*
X380817Y551306D01*
X380069Y551293D01*
X379321Y551261D01*
X378575Y551211D01*
X377830Y551142D01*
X377086Y551056D01*
X376345Y550951D01*
X375607Y550828D01*
X374872Y550687D01*
X374141Y550529D01*
X373414Y550352D01*
X372691Y550158D01*
X371973Y549946D01*
X371261Y549716D01*
X370555Y549469D01*
X369854Y549205D01*
X369161Y548924D01*
X368474Y548627D01*
X367795Y548312D01*
X367124Y547981D01*
X366461Y547634D01*
X365807Y547270D01*
X365162Y546891D01*
X364527Y546496D01*
X363901Y546085D01*
X363285Y545660D01*
X362680Y545219D01*
X362086Y544764D01*
X361504Y544294D01*
X360933Y543810D01*
X360374Y543313D01*
X359827Y542802D01*
X359293Y542278D01*
X358772Y541741D01*
X358264Y541191D01*
X357770Y540629D01*
X357290Y540055D01*
X356824Y539470D01*
X356372Y538873D01*
X355935Y538265D01*
X355513Y537647D01*
X355106Y537019D01*
X354715Y536381D01*
X354340Y535734D01*
X353980Y535078D01*
X353637Y534413D01*
X353310Y533740D01*
X352999Y533059D01*
X352705Y532371D01*
X352429Y531675D01*
X352169Y530974D01*
X351926Y530266D01*
X351701Y529552D01*
X351493Y528833D01*
X351303Y528109D01*
X351131Y527381D01*
X350977Y526649D01*
X350840Y525913D01*
X350722Y525174D01*
X350621Y524432D01*
X350539Y523689D01*
X350475Y522943D01*
X350430Y522196D01*
X350402Y521448D01*
X350393Y520700D01*
X350402Y519952D01*
X350430Y519204D01*
X350475Y518457D01*
X350539Y517711D01*
X350621Y516968D01*
X350722Y516226D01*
X350840Y515487D01*
X350977Y514751D01*
X351131Y514019D01*
X351303Y513291D01*
X351493Y512567D01*
X351701Y511848D01*
X351926Y511134D01*
X352169Y510426D01*
X352429Y509725D01*
X352705Y509029D01*
X352999Y508341D01*
X353310Y507660D01*
X353637Y506987D01*
X353980Y506322D01*
X354340Y505666D01*
X354715Y505019D01*
X355106Y504381D01*
X355513Y503753D01*
X355935Y503135D01*
X356372Y502527D01*
X356824Y501930D01*
X357290Y501345D01*
X357770Y500771D01*
X358264Y500209D01*
X358772Y499659D01*
X359293Y499122D01*
X359827Y498598D01*
X360374Y498087D01*
X360933Y497590D01*
X361504Y497106D01*
X362086Y496636D01*
X362680Y496181D01*
X363285Y495740D01*
X363901Y495315D01*
X364527Y494904D01*
X365162Y494509D01*
X365807Y494130D01*
X366461Y493766D01*
X367124Y493419D01*
X367795Y493088D01*
X368474Y492773D01*
X369161Y492476D01*
X369854Y492195D01*
X370555Y491931D01*
X371261Y491684D01*
X371973Y491454D01*
X372691Y491242D01*
X373414Y491048D01*
X374141Y490871D01*
X374872Y490713D01*
X375607Y490572D01*
X376345Y490449D01*
X377086Y490344D01*
X377830Y490258D01*
X378575Y490189D01*
X379321Y490139D01*
X380069Y490107D01*
X380817Y490094D01*
X381566Y490098D01*
X382314Y490121D01*
X383061Y490162D01*
X383807Y490222D01*
X384551Y490300D01*
X385293Y490396D01*
X386033Y490510D01*
X386769Y490642D01*
X387503Y490792D01*
X388232Y490960D01*
X388957Y491145D01*
X389677Y491349D01*
X390392Y491570D01*
X391101Y491808D01*
X391805Y492063D01*
X392501Y492336D01*
X393191Y492626D01*
X393874Y492932D01*
X394549Y493255D01*
X395216Y493595D01*
X395875Y493950D01*
X396524Y494322D01*
X397164Y494710D01*
X397795Y495112D01*
X398415Y495531D01*
X399026Y495964D01*
X399625Y496412D01*
X400213Y496875D01*
X400790Y497352D01*
X401355Y497842D01*
X401908Y498347D01*
X402448Y498865D01*
X402975Y499396D01*
X403489Y499939D01*
X403990Y500495D01*
X404477Y501063D01*
X404950Y501643D01*
X405409Y502234D01*
X407238Y500863D01*
X406745Y500227D01*
X406237Y499604D01*
X405713Y498993D01*
X405175Y498395D01*
X404623Y497811D01*
X404056Y497240D01*
X403476Y496683D01*
X402882Y496141D01*
X402275Y495613D01*
X401655Y495101D01*
X401023Y494603D01*
X400379Y494121D01*
X399723Y493656D01*
X399056Y493206D01*
X398378Y492773D01*
X397690Y492356D01*
X396992Y491956D01*
X396285Y491574D01*
X395568Y491209D01*
X394843Y490862D01*
X394109Y490532D01*
X393367Y490221D01*
X392618Y489927D01*
X391863Y489652D01*
X391100Y489396D01*
X390332Y489158D01*
X389558Y488940D01*
X388779Y488740D01*
X387995Y488559D01*
X387207Y488398D01*
X386415Y488256D01*
X385620Y488133D01*
X384823Y488030D01*
X384023Y487946D01*
X383221Y487882D01*
X382418Y487838D01*
X381614Y487813D01*
X380810Y487808D01*
X380005Y487822D01*
X379202Y487856D01*
X378399Y487910D01*
X377598Y487983D01*
X376799Y488076D01*
X376003Y488189D01*
X375210Y488321D01*
X374420Y488472D01*
X373634Y488642D01*
X372852Y488832D01*
X372075Y489041D01*
X371304Y489269D01*
X370538Y489515D01*
X369779Y489780D01*
X369026Y490064D01*
X368281Y490366D01*
X367543Y490686D01*
X366813Y491024D01*
X366091Y491380D01*
X365379Y491753D01*
X364676Y492144D01*
X363983Y492551D01*
X363299Y492976D01*
X362627Y493417D01*
X361965Y493874D01*
X361315Y494348D01*
X360677Y494837D01*
X360050Y495341D01*
X359436Y495861D01*
X358836Y496396D01*
X358248Y496945D01*
X357674Y497509D01*
X357114Y498086D01*
X356568Y498677D01*
X356037Y499281D01*
X355521Y499897D01*
X355020Y500527D01*
X354534Y501168D01*
X354064Y501821D01*
X353611Y502485D01*
X353174Y503160D01*
X352753Y503846D01*
X352349Y504541D01*
X351963Y505247D01*
X351594Y505961D01*
X351242Y506685D01*
X350908Y507417D01*
X350593Y508156D01*
X350295Y508904D01*
X350016Y509658D01*
X349755Y510419D01*
X349513Y511186D01*
X349290Y511959D01*
X349086Y512737D01*
X348900Y513519D01*
X348734Y514306D01*
X348588Y515097D01*
X348460Y515891D01*
X348353Y516688D01*
X348264Y517488D01*
X348195Y518289D01*
X348146Y519092D01*
X348117Y519896D01*
X348107Y520700D01*
X348117Y521504D01*
X348146Y522308D01*
X348195Y523111D01*
X348264Y523912D01*
X348353Y524712D01*
X348460Y525509D01*
X348588Y526303D01*
X348734Y527094D01*
X348900Y527881D01*
X349086Y528663D01*
X349290Y529441D01*
X349513Y530214D01*
X349755Y530981D01*
X350016Y531742D01*
X350295Y532496D01*
X350593Y533244D01*
X350908Y533983D01*
X351242Y534715D01*
X351594Y535439D01*
X351963Y536153D01*
X352349Y536859D01*
X352753Y537554D01*
X353174Y538240D01*
X353611Y538915D01*
X354064Y539579D01*
X354534Y540232D01*
X355020Y540873D01*
X355521Y541503D01*
X356037Y542119D01*
X356568Y542723D01*
X357114Y543314D01*
X357674Y543891D01*
X358248Y544455D01*
X358836Y545004D01*
X359436Y545539D01*
X360050Y546059D01*
X360677Y546563D01*
X361315Y547052D01*
X361965Y547526D01*
X362627Y547983D01*
X363299Y548424D01*
X363983Y548849D01*
X364676Y549256D01*
X365379Y549647D01*
X366091Y550020D01*
X366813Y550376D01*
X367543Y550714D01*
X368281Y551034D01*
X369026Y551336D01*
X369779Y551620D01*
X370538Y551885D01*
X371304Y552131D01*
X372075Y552359D01*
X372852Y552568D01*
X373634Y552758D01*
X374420Y552928D01*
X375210Y553079D01*
X376003Y553211D01*
X376799Y553324D01*
X377598Y553417D01*
X378399Y553490D01*
X379202Y553544D01*
X380005Y553578D01*
X380810Y553592D01*
X381614Y553587D01*
X382418Y553562D01*
X383221Y553518D01*
X384023Y553454D01*
X384823Y553370D01*
X385620Y553267D01*
X386415Y553144D01*
X387207Y553002D01*
X387995Y552841D01*
X388779Y552660D01*
X389558Y552460D01*
X390332Y552242D01*
X391100Y552004D01*
X391863Y551748D01*
X392618Y551473D01*
X393367Y551179D01*
X394109Y550868D01*
X394843Y550538D01*
X395568Y550191D01*
X396285Y549826D01*
X396992Y549444D01*
X397690Y549044D01*
X398378Y548627D01*
X399056Y548194D01*
X399723Y547744D01*
X400379Y547279D01*
X401023Y546797D01*
X401655Y546299D01*
X402275Y545787D01*
X402882Y545259D01*
X403476Y544717D01*
X404056Y544160D01*
X404623Y543589D01*
X405175Y543005D01*
X405713Y542407D01*
X406237Y541796D01*
X406745Y541173D01*
X407238Y540537D01*
X407046Y540393D01*
X406557Y541024D01*
X406052Y541643D01*
X405533Y542249D01*
X404998Y542843D01*
X404450Y543423D01*
X403887Y543989D01*
X403311Y544542D01*
X402721Y545080D01*
X402119Y545604D01*
X401503Y546113D01*
X400876Y546607D01*
X400237Y547085D01*
X399586Y547548D01*
X398924Y547994D01*
X398251Y548424D01*
X397568Y548838D01*
X396875Y549234D01*
X396173Y549614D01*
X395461Y549976D01*
X394741Y550321D01*
X394013Y550648D01*
X393276Y550957D01*
X392533Y551248D01*
X391783Y551521D01*
X391026Y551776D01*
X390263Y552012D01*
X389495Y552229D01*
X388721Y552427D01*
X387943Y552606D01*
X387161Y552767D01*
X386375Y552908D01*
X385586Y553029D01*
X384794Y553132D01*
X384000Y553215D01*
X383204Y553279D01*
X382407Y553323D01*
X381609Y553347D01*
X380810Y553352D01*
X380012Y553338D01*
X379214Y553304D01*
X378418Y553251D01*
X377623Y553178D01*
X376830Y553086D01*
X376039Y552974D01*
X375251Y552843D01*
X374467Y552693D01*
X373687Y552524D01*
X372911Y552335D01*
X372140Y552128D01*
X371374Y551902D01*
X370614Y551657D01*
X369860Y551394D01*
X369113Y551112D01*
X368373Y550813D01*
X367640Y550495D01*
X366916Y550159D01*
X366200Y549806D01*
X365493Y549436D01*
X364795Y549048D01*
X364106Y548643D01*
X363428Y548222D01*
X362761Y547784D01*
X362104Y547330D01*
X361458Y546860D01*
X360825Y546374D01*
X360203Y545873D01*
X359594Y545357D01*
X358997Y544827D01*
X358414Y544281D01*
X357844Y543722D01*
X357288Y543149D01*
X356746Y542562D01*
X356219Y541963D01*
X355706Y541351D01*
X355209Y540726D01*
X354727Y540089D01*
X354261Y539441D01*
X353811Y538782D01*
X353377Y538112D01*
X352959Y537431D01*
X352558Y536740D01*
X352175Y536040D01*
X351808Y535331D01*
X351459Y534613D01*
X351128Y533886D01*
X350814Y533152D01*
X350519Y532410D01*
X350242Y531661D01*
X349983Y530906D01*
X349743Y530145D01*
X349521Y529378D01*
X349318Y528605D01*
X349135Y527828D01*
X348970Y527047D01*
X348824Y526262D01*
X348698Y525474D01*
X348591Y524682D01*
X348503Y523889D01*
X348435Y523093D01*
X348386Y522296D01*
X348357Y521498D01*
X348347Y520700D01*
X348357Y519902D01*
X348386Y519104D01*
X348435Y518307D01*
X348503Y517511D01*
X348591Y516718D01*
X348698Y515926D01*
X348824Y515138D01*
X348970Y514353D01*
X349135Y513572D01*
X349318Y512795D01*
X349521Y512022D01*
X349743Y511255D01*
X349983Y510494D01*
X350242Y509739D01*
X350519Y508990D01*
X350814Y508248D01*
X351128Y507514D01*
X351459Y506787D01*
X351808Y506069D01*
X352175Y505360D01*
X352558Y504660D01*
X352959Y503969D01*
X353377Y503288D01*
X353811Y502618D01*
X354261Y501959D01*
X354727Y501311D01*
X355209Y500674D01*
X355706Y500049D01*
X356219Y499437D01*
X356746Y498838D01*
X357288Y498251D01*
X357844Y497678D01*
X358414Y497119D01*
X358997Y496573D01*
X359594Y496043D01*
X360203Y495527D01*
X360825Y495026D01*
X361458Y494540D01*
X362104Y494070D01*
X362761Y493616D01*
X363428Y493178D01*
X364106Y492757D01*
X364795Y492352D01*
X365493Y491964D01*
X366200Y491594D01*
X366916Y491241D01*
X367640Y490905D01*
X368373Y490587D01*
X369113Y490288D01*
X369860Y490006D01*
X370614Y489743D01*
X371374Y489498D01*
X372140Y489272D01*
X372911Y489065D01*
X373687Y488876D01*
X374467Y488707D01*
X375251Y488557D01*
X376039Y488426D01*
X376830Y488314D01*
X377623Y488222D01*
X378418Y488149D01*
X379214Y488096D01*
X380012Y488062D01*
X380810Y488048D01*
X381609Y488053D01*
X382407Y488077D01*
X383204Y488121D01*
X384000Y488185D01*
X384794Y488268D01*
X385586Y488371D01*
X386375Y488492D01*
X387161Y488633D01*
X387943Y488794D01*
X388721Y488973D01*
X389495Y489171D01*
X390263Y489388D01*
X391026Y489624D01*
X391783Y489879D01*
X392533Y490152D01*
X393276Y490443D01*
X394013Y490752D01*
X394741Y491079D01*
X395461Y491424D01*
X396173Y491786D01*
X396875Y492166D01*
X397568Y492562D01*
X398251Y492976D01*
X398924Y493406D01*
X399586Y493852D01*
X400237Y494315D01*
X400876Y494793D01*
X401503Y495287D01*
X402119Y495796D01*
X402721Y496320D01*
X403311Y496858D01*
X403887Y497411D01*
X404450Y497977D01*
X404998Y498557D01*
X405533Y499151D01*
X406052Y499757D01*
X406557Y500376D01*
X407046Y501007D01*
X406854Y501151D01*
X406368Y500524D01*
X405867Y499910D01*
X405352Y499308D01*
X404821Y498719D01*
X404277Y498144D01*
X403718Y497581D01*
X403146Y497033D01*
X402561Y496498D01*
X401963Y495978D01*
X401352Y495473D01*
X400729Y494983D01*
X400095Y494508D01*
X399448Y494049D01*
X398791Y493606D01*
X398124Y493179D01*
X397445Y492769D01*
X396758Y492375D01*
X396060Y491998D01*
X395354Y491639D01*
X394639Y491296D01*
X393916Y490972D01*
X393186Y490665D01*
X392448Y490376D01*
X391703Y490105D01*
X390951Y489852D01*
X390194Y489618D01*
X389432Y489403D01*
X388664Y489206D01*
X387891Y489028D01*
X387115Y488869D01*
X386335Y488729D01*
X385552Y488608D01*
X384766Y488506D01*
X383977Y488424D01*
X383187Y488361D01*
X382396Y488317D01*
X381604Y488293D01*
X380811Y488288D01*
X380019Y488302D01*
X379227Y488336D01*
X378436Y488389D01*
X377647Y488461D01*
X376860Y488553D01*
X376075Y488663D01*
X375293Y488793D01*
X374515Y488942D01*
X373740Y489111D01*
X372970Y489297D01*
X372204Y489503D01*
X371444Y489728D01*
X370690Y489970D01*
X369942Y490232D01*
X369200Y490511D01*
X368465Y490809D01*
X367738Y491124D01*
X367019Y491457D01*
X366308Y491808D01*
X365606Y492176D01*
X364913Y492561D01*
X364230Y492962D01*
X363557Y493381D01*
X362894Y493815D01*
X362242Y494266D01*
X361602Y494733D01*
X360973Y495215D01*
X360355Y495712D01*
X359751Y496224D01*
X359159Y496751D01*
X358580Y497292D01*
X358014Y497847D01*
X357462Y498416D01*
X356924Y498998D01*
X356401Y499594D01*
X355892Y500201D01*
X355398Y500821D01*
X354920Y501453D01*
X354457Y502097D01*
X354010Y502751D01*
X353580Y503416D01*
X353165Y504092D01*
X352767Y504778D01*
X352387Y505473D01*
X352023Y506177D01*
X351676Y506890D01*
X351347Y507611D01*
X351036Y508340D01*
X350743Y509076D01*
X350468Y509819D01*
X350211Y510569D01*
X349972Y511325D01*
X349752Y512086D01*
X349551Y512853D01*
X349369Y513624D01*
X349205Y514400D01*
X349061Y515179D01*
X348935Y515962D01*
X348829Y516747D01*
X348742Y517535D01*
X348674Y518324D01*
X348626Y519115D01*
X348597Y519907D01*
X348587Y520700D01*
X348597Y521493D01*
X348626Y522285D01*
X348674Y523076D01*
X348742Y523865D01*
X348829Y524653D01*
X348935Y525438D01*
X349061Y526221D01*
X349205Y527000D01*
X349369Y527776D01*
X349551Y528547D01*
X349752Y529314D01*
X349972Y530075D01*
X350211Y530831D01*
X350468Y531581D01*
X350743Y532324D01*
X351036Y533060D01*
X351347Y533789D01*
X351676Y534510D01*
X352023Y535223D01*
X352387Y535927D01*
X352767Y536622D01*
X353165Y537308D01*
X353580Y537984D01*
X354010Y538649D01*
X354457Y539303D01*
X354920Y539947D01*
X355398Y540579D01*
X355892Y541199D01*
X356401Y541806D01*
X356924Y542402D01*
X357462Y542984D01*
X358014Y543553D01*
X358580Y544108D01*
X359159Y544649D01*
X359751Y545176D01*
X360355Y545688D01*
X360973Y546185D01*
X361602Y546667D01*
X362242Y547134D01*
X362894Y547585D01*
X363557Y548019D01*
X364230Y548438D01*
X364913Y548839D01*
X365606Y549224D01*
X366308Y549592D01*
X367019Y549943D01*
X367738Y550276D01*
X368465Y550591D01*
X369200Y550889D01*
X369942Y551168D01*
X370690Y551430D01*
X371444Y551672D01*
X372204Y551897D01*
X372970Y552103D01*
X373740Y552289D01*
X374515Y552458D01*
X375293Y552607D01*
X376075Y552737D01*
X376860Y552847D01*
X377647Y552939D01*
X378436Y553011D01*
X379227Y553064D01*
X380019Y553098D01*
X380811Y553112D01*
X381604Y553107D01*
X382396Y553083D01*
X383187Y553039D01*
X383977Y552976D01*
X384766Y552894D01*
X385552Y552792D01*
X386335Y552671D01*
X387115Y552531D01*
X387891Y552372D01*
X388664Y552194D01*
X389432Y551997D01*
X390194Y551782D01*
X390951Y551548D01*
X391703Y551295D01*
X392448Y551024D01*
X393186Y550735D01*
X393916Y550428D01*
X394639Y550104D01*
X395354Y549761D01*
X396060Y549402D01*
X396758Y549025D01*
X397445Y548631D01*
X398124Y548221D01*
X398791Y547794D01*
X399448Y547351D01*
X400095Y546892D01*
X400729Y546417D01*
X401352Y545927D01*
X401963Y545422D01*
X402561Y544902D01*
X403146Y544367D01*
X403718Y543819D01*
X404277Y543256D01*
X404821Y542681D01*
X405352Y542092D01*
X405867Y541490D01*
X406368Y540876D01*
X406854Y540249D01*
X406662Y540105D01*
X406180Y540727D01*
X405683Y541337D01*
X405171Y541934D01*
X404644Y542518D01*
X404104Y543090D01*
X403549Y543648D01*
X402982Y544193D01*
X402401Y544723D01*
X401807Y545239D01*
X401201Y545741D01*
X400582Y546227D01*
X399952Y546698D01*
X399311Y547154D01*
X398659Y547594D01*
X397996Y548017D01*
X397323Y548425D01*
X396640Y548816D01*
X395948Y549190D01*
X395247Y549546D01*
X394538Y549886D01*
X393820Y550208D01*
X393095Y550513D01*
X392362Y550800D01*
X391623Y551069D01*
X390877Y551319D01*
X390125Y551552D01*
X389368Y551766D01*
X388606Y551961D01*
X387840Y552138D01*
X387069Y552295D01*
X386295Y552434D01*
X385517Y552554D01*
X384737Y552655D01*
X383955Y552737D01*
X383170Y552800D01*
X382385Y552843D01*
X381599Y552867D01*
X380812Y552872D01*
X380025Y552858D01*
X379239Y552825D01*
X378455Y552772D01*
X377671Y552700D01*
X376890Y552609D01*
X376111Y552499D01*
X375335Y552370D01*
X374562Y552222D01*
X373793Y552055D01*
X373029Y551870D01*
X372269Y551666D01*
X371515Y551443D01*
X370766Y551202D01*
X370023Y550943D01*
X369287Y550665D01*
X368558Y550370D01*
X367836Y550057D01*
X367122Y549726D01*
X366417Y549378D01*
X365720Y549013D01*
X365032Y548631D01*
X364354Y548232D01*
X363686Y547817D01*
X363028Y547385D01*
X362381Y546938D01*
X361745Y546475D01*
X361121Y545996D01*
X360508Y545503D01*
X359908Y544994D01*
X359320Y544471D01*
X358745Y543934D01*
X358184Y543383D01*
X357636Y542819D01*
X357102Y542241D01*
X356583Y541650D01*
X356078Y541047D01*
X355588Y540431D01*
X355113Y539804D01*
X354654Y539165D01*
X354210Y538516D01*
X353782Y537855D01*
X353371Y537185D01*
X352976Y536504D01*
X352598Y535814D01*
X352237Y535115D01*
X351893Y534408D01*
X351567Y533692D01*
X351258Y532969D01*
X350967Y532238D01*
X350694Y531500D01*
X350439Y530756D01*
X350202Y530006D01*
X349984Y529250D01*
X349784Y528489D01*
X349603Y527723D01*
X349441Y526954D01*
X349297Y526180D01*
X349173Y525403D01*
X349067Y524624D01*
X348981Y523842D01*
X348914Y523058D01*
X348865Y522273D01*
X348837Y521487D01*
X348827Y520700D01*
X348837Y519913D01*
X348865Y519127D01*
X348914Y518342D01*
X348981Y517558D01*
X349067Y516776D01*
X349173Y515997D01*
X349297Y515220D01*
X349441Y514446D01*
X349603Y513677D01*
X349784Y512911D01*
X349984Y512150D01*
X350202Y511394D01*
X350439Y510644D01*
X350694Y509900D01*
X350967Y509162D01*
X351258Y508431D01*
X351567Y507708D01*
X351893Y506992D01*
X352237Y506285D01*
X352598Y505586D01*
X352976Y504896D01*
X353371Y504215D01*
X353782Y503545D01*
X354210Y502884D01*
X354654Y502235D01*
X355113Y501596D01*
X355588Y500969D01*
X356078Y500353D01*
X356583Y499750D01*
X357102Y499159D01*
X357636Y498581D01*
X358184Y498017D01*
X358745Y497466D01*
X359320Y496929D01*
X359908Y496406D01*
X360508Y495897D01*
X361121Y495404D01*
X361745Y494925D01*
X362381Y494462D01*
X363028Y494015D01*
X363686Y493583D01*
X364354Y493168D01*
X365032Y492769D01*
X365720Y492387D01*
X366417Y492022D01*
X367122Y491674D01*
X367836Y491343D01*
X368558Y491030D01*
X369287Y490735D01*
X370023Y490457D01*
X370766Y490198D01*
X371515Y489957D01*
X372269Y489734D01*
X373029Y489530D01*
X373793Y489345D01*
X374562Y489178D01*
X375335Y489030D01*
X376111Y488901D01*
X376890Y488791D01*
X377671Y488700D01*
X378455Y488628D01*
X379239Y488575D01*
X380025Y488542D01*
X380812Y488528D01*
X381599Y488533D01*
X382385Y488557D01*
X383170Y488600D01*
X383955Y488663D01*
X384737Y488745D01*
X385517Y488846D01*
X386295Y488966D01*
X387069Y489105D01*
X387840Y489262D01*
X388606Y489439D01*
X389368Y489634D01*
X390125Y489848D01*
X390877Y490081D01*
X391623Y490331D01*
X392362Y490600D01*
X393095Y490887D01*
X393820Y491192D01*
X394538Y491514D01*
X395247Y491854D01*
X395948Y492210D01*
X396640Y492584D01*
X397323Y492975D01*
X397996Y493383D01*
X398659Y493806D01*
X399311Y494246D01*
X399952Y494702D01*
X400582Y495173D01*
X401201Y495659D01*
X401807Y496161D01*
X402401Y496677D01*
X402982Y497207D01*
X403549Y497752D01*
X404104Y498310D01*
X404644Y498882D01*
X405171Y499466D01*
X405683Y500063D01*
X406180Y500673D01*
X406662Y501295D01*
X406470Y501439D01*
X405991Y500822D01*
X405498Y500217D01*
X404990Y499624D01*
X404467Y499044D01*
X403931Y498476D01*
X403381Y497922D01*
X402817Y497382D01*
X402240Y496855D01*
X401651Y496343D01*
X401049Y495846D01*
X400436Y495363D01*
X399810Y494895D01*
X399174Y494443D01*
X398526Y494007D01*
X397869Y493586D01*
X397201Y493182D01*
X396523Y492794D01*
X395836Y492423D01*
X395140Y492068D01*
X394436Y491731D01*
X393724Y491411D01*
X393004Y491109D01*
X392277Y490824D01*
X391543Y490558D01*
X390803Y490309D01*
X390057Y490078D01*
X389305Y489866D01*
X388549Y489672D01*
X387788Y489497D01*
X387023Y489340D01*
X386255Y489202D01*
X385483Y489083D01*
X384709Y488983D01*
X383932Y488902D01*
X383154Y488840D01*
X382374Y488797D01*
X381594Y488773D01*
X380813Y488768D01*
X380032Y488782D01*
X379252Y488815D01*
X378473Y488867D01*
X377695Y488938D01*
X376920Y489029D01*
X376147Y489138D01*
X375376Y489266D01*
X374610Y489413D01*
X373847Y489579D01*
X373088Y489763D01*
X372334Y489965D01*
X371585Y490187D01*
X370842Y490426D01*
X370105Y490683D01*
X369374Y490959D01*
X368650Y491252D01*
X367934Y491563D01*
X367225Y491891D01*
X366525Y492236D01*
X365834Y492599D01*
X365151Y492978D01*
X364478Y493374D01*
X363815Y493786D01*
X363162Y494214D01*
X362520Y494658D01*
X361888Y495118D01*
X361269Y495592D01*
X360661Y496082D01*
X360065Y496587D01*
X359482Y497106D01*
X358911Y497639D01*
X358354Y498186D01*
X357810Y498747D01*
X357280Y499320D01*
X356765Y499907D01*
X356264Y500505D01*
X355777Y501116D01*
X355306Y501739D01*
X354850Y502373D01*
X354410Y503017D01*
X353985Y503673D01*
X353577Y504338D01*
X353185Y505014D01*
X352810Y505699D01*
X352452Y506392D01*
X352110Y507094D01*
X351786Y507805D01*
X351480Y508523D01*
X351191Y509248D01*
X350920Y509981D01*
X350667Y510719D01*
X350432Y511464D01*
X350215Y512214D01*
X350017Y512969D01*
X349837Y513729D01*
X349676Y514493D01*
X349534Y515261D01*
X349410Y516032D01*
X349305Y516806D01*
X349220Y517582D01*
X349153Y518360D01*
X349105Y519139D01*
X349077Y519919D01*
X349067Y520700D01*
X349077Y521481D01*
X349105Y522261D01*
X349153Y523040D01*
X349220Y523818D01*
X349305Y524594D01*
X349410Y525368D01*
X349534Y526139D01*
X349676Y526907D01*
X349837Y527671D01*
X350017Y528431D01*
X350215Y529186D01*
X350432Y529936D01*
X350667Y530681D01*
X350920Y531419D01*
X351191Y532152D01*
X351480Y532877D01*
X351786Y533595D01*
X352110Y534306D01*
X352452Y535008D01*
X352810Y535701D01*
X353185Y536386D01*
X353577Y537062D01*
X353985Y537727D01*
X354410Y538383D01*
X354850Y539027D01*
X355306Y539661D01*
X355777Y540284D01*
X356264Y540895D01*
X356765Y541493D01*
X357280Y542080D01*
X357810Y542653D01*
X358354Y543214D01*
X358911Y543761D01*
X359482Y544294D01*
X360065Y544813D01*
X360661Y545318D01*
X361269Y545808D01*
X361888Y546282D01*
X362520Y546742D01*
X363162Y547186D01*
X363815Y547614D01*
X364478Y548026D01*
X365151Y548422D01*
X365834Y548801D01*
X366525Y549164D01*
X367225Y549509D01*
X367934Y549837D01*
X368650Y550148D01*
X369374Y550441D01*
X370105Y550717D01*
X370842Y550974D01*
X371585Y551213D01*
X372334Y551435D01*
X373088Y551637D01*
X373847Y551821D01*
X374610Y551987D01*
X375376Y552134D01*
X376147Y552262D01*
X376920Y552371D01*
X377695Y552462D01*
X378473Y552533D01*
X379252Y552585D01*
X380032Y552618D01*
X380813Y552632D01*
X381594Y552627D01*
X382374Y552603D01*
X383154Y552560D01*
X383932Y552498D01*
X384709Y552417D01*
X385483Y552317D01*
X386255Y552198D01*
X387023Y552060D01*
X387788Y551903D01*
X388549Y551728D01*
X389305Y551534D01*
X390057Y551322D01*
X390803Y551091D01*
X391543Y550842D01*
X392277Y550576D01*
X393004Y550291D01*
X393724Y549989D01*
X394436Y549669D01*
X395140Y549332D01*
X395836Y548977D01*
X396523Y548606D01*
X397201Y548218D01*
X397869Y547814D01*
X398526Y547393D01*
X399174Y546957D01*
X399810Y546505D01*
X400436Y546037D01*
X401049Y545554D01*
X401651Y545057D01*
X402240Y544545D01*
X402817Y544018D01*
X403381Y543478D01*
X403931Y542924D01*
X404467Y542356D01*
X404990Y541776D01*
X405498Y541183D01*
X405991Y540578D01*
X406470Y539961D01*
X406278Y539817D01*
X405803Y540430D01*
X405313Y541030D01*
X404809Y541618D01*
X404290Y542194D01*
X403758Y542757D01*
X403212Y543307D01*
X402652Y543843D01*
X402080Y544366D01*
X401495Y544874D01*
X400898Y545368D01*
X400289Y545847D01*
X399668Y546311D01*
X399037Y546760D01*
X398394Y547193D01*
X397741Y547611D01*
X397078Y548012D01*
X396406Y548397D01*
X395724Y548765D01*
X395033Y549117D01*
X394334Y549451D01*
X393627Y549769D01*
X392913Y550069D01*
X392191Y550351D01*
X391463Y550616D01*
X390728Y550863D01*
X389988Y551092D01*
X389242Y551302D01*
X388492Y551495D01*
X387736Y551669D01*
X386977Y551824D01*
X386214Y551961D01*
X385449Y552079D01*
X384680Y552179D01*
X383909Y552259D01*
X383137Y552321D01*
X382363Y552364D01*
X381589Y552388D01*
X380814Y552392D01*
X380039Y552378D01*
X379265Y552345D01*
X378491Y552294D01*
X377720Y552223D01*
X376950Y552133D01*
X376183Y552025D01*
X375418Y551898D01*
X374657Y551752D01*
X373900Y551587D01*
X373147Y551405D01*
X372398Y551203D01*
X371655Y550984D01*
X370918Y550746D01*
X370186Y550491D01*
X369461Y550218D01*
X368743Y549927D01*
X368032Y549618D01*
X367329Y549293D01*
X366634Y548950D01*
X365947Y548590D01*
X365270Y548214D01*
X364602Y547821D01*
X363944Y547412D01*
X363296Y546987D01*
X362658Y546546D01*
X362032Y546090D01*
X361417Y545619D01*
X360813Y545132D01*
X360222Y544632D01*
X359643Y544116D01*
X359077Y543587D01*
X358524Y543044D01*
X357984Y542488D01*
X357458Y541919D01*
X356947Y541337D01*
X356449Y540743D01*
X355967Y540136D01*
X355499Y539519D01*
X355046Y538890D01*
X354609Y538250D01*
X354188Y537599D01*
X353783Y536938D01*
X353394Y536268D01*
X353022Y535589D01*
X352666Y534900D01*
X352327Y534203D01*
X352006Y533498D01*
X351702Y532785D01*
X351415Y532065D01*
X351146Y531339D01*
X350895Y530606D01*
X350662Y529867D01*
X350447Y529122D01*
X350250Y528373D01*
X350071Y527618D01*
X349911Y526860D01*
X349770Y526098D01*
X349647Y525333D01*
X349544Y524565D01*
X349458Y523795D01*
X349392Y523023D01*
X349345Y522249D01*
X349316Y521475D01*
X349307Y520700D01*
X349316Y519925D01*
X349345Y519151D01*
X349392Y518377D01*
X349458Y517605D01*
X349544Y516835D01*
X349647Y516067D01*
X349770Y515302D01*
X349911Y514540D01*
X350071Y513782D01*
X350250Y513027D01*
X350447Y512278D01*
X350662Y511533D01*
X350895Y510794D01*
X351146Y510061D01*
X351415Y509335D01*
X351702Y508615D01*
X352006Y507902D01*
X352327Y507197D01*
X352666Y506500D01*
X353022Y505811D01*
X353394Y505132D01*
X353783Y504462D01*
X354188Y503801D01*
X354609Y503150D01*
X355046Y502510D01*
X355499Y501881D01*
X355967Y501264D01*
X356449Y500657D01*
X356947Y500063D01*
X357458Y499481D01*
X357984Y498912D01*
X358524Y498356D01*
X359077Y497813D01*
X359643Y497284D01*
X360222Y496768D01*
X360813Y496268D01*
X361417Y495781D01*
X362032Y495310D01*
X362658Y494854D01*
X363296Y494413D01*
X363944Y493988D01*
X364602Y493579D01*
X365270Y493186D01*
X365947Y492810D01*
X366634Y492450D01*
X367329Y492107D01*
X368032Y491782D01*
X368743Y491473D01*
X369461Y491182D01*
X370186Y490909D01*
X370918Y490654D01*
X371655Y490416D01*
X372398Y490197D01*
X373147Y489995D01*
X373900Y489813D01*
X374657Y489648D01*
X375418Y489502D01*
X376183Y489375D01*
X376950Y489267D01*
X377720Y489177D01*
X378491Y489106D01*
X379265Y489055D01*
X380039Y489022D01*
X380814Y489008D01*
X381589Y489012D01*
X382363Y489036D01*
X383137Y489079D01*
X383909Y489141D01*
X384680Y489221D01*
X385449Y489321D01*
X386214Y489439D01*
X386977Y489576D01*
X387736Y489731D01*
X388492Y489905D01*
X389242Y490098D01*
X389988Y490308D01*
X390728Y490537D01*
X391463Y490784D01*
X392191Y491049D01*
X392913Y491331D01*
X393627Y491631D01*
X394334Y491949D01*
X395033Y492283D01*
X395724Y492635D01*
X396406Y493003D01*
X397078Y493388D01*
X397741Y493789D01*
X398394Y494207D01*
X399037Y494640D01*
X399668Y495089D01*
X400289Y495553D01*
X400898Y496032D01*
X401495Y496526D01*
X402080Y497034D01*
X402652Y497557D01*
X403212Y498093D01*
X403758Y498643D01*
X404290Y499206D01*
X404809Y499782D01*
X405313Y500370D01*
X405803Y500970D01*
X406278Y501583D01*
X406086Y501727D01*
X405615Y501119D01*
X405129Y500523D01*
X404628Y499939D01*
X404113Y499368D01*
X403585Y498809D01*
X403043Y498263D01*
X402488Y497731D01*
X401920Y497213D01*
X401339Y496708D01*
X400747Y496218D01*
X400142Y495743D01*
X399526Y495282D01*
X398899Y494837D01*
X398262Y494407D01*
X397614Y493993D01*
X396956Y493595D01*
X396288Y493213D01*
X395612Y492847D01*
X394926Y492498D01*
X394233Y492166D01*
X393531Y491851D01*
X392822Y491553D01*
X392106Y491273D01*
X391383Y491010D01*
X390654Y490765D01*
X389919Y490538D01*
X389179Y490329D01*
X388434Y490138D01*
X387685Y489966D01*
X386931Y489811D01*
X386174Y489676D01*
X385414Y489558D01*
X384652Y489460D01*
X383887Y489380D01*
X383120Y489319D01*
X382352Y489276D01*
X381583Y489252D01*
X380814Y489248D01*
X380046Y489261D01*
X379277Y489294D01*
X378510Y489346D01*
X377744Y489416D01*
X376980Y489505D01*
X376219Y489613D01*
X375460Y489739D01*
X374705Y489883D01*
X373953Y490047D01*
X373206Y490228D01*
X372463Y490428D01*
X371726Y490645D01*
X370993Y490881D01*
X370267Y491135D01*
X369548Y491406D01*
X368835Y491695D01*
X368129Y492001D01*
X367432Y492324D01*
X366742Y492664D01*
X366061Y493021D01*
X365389Y493395D01*
X364726Y493785D01*
X364072Y494191D01*
X363429Y494612D01*
X362797Y495050D01*
X362175Y495503D01*
X361565Y495970D01*
X360966Y496453D01*
X360379Y496950D01*
X359805Y497461D01*
X359243Y497986D01*
X358694Y498525D01*
X358158Y499077D01*
X357637Y499642D01*
X357129Y500219D01*
X356635Y500809D01*
X356156Y501411D01*
X355692Y502024D01*
X355243Y502648D01*
X354809Y503284D01*
X354391Y503929D01*
X353989Y504585D01*
X353603Y505250D01*
X353234Y505924D01*
X352881Y506608D01*
X352545Y507299D01*
X352225Y507999D01*
X351923Y508706D01*
X351639Y509421D01*
X351372Y510142D01*
X351123Y510870D01*
X350891Y511603D01*
X350678Y512342D01*
X350483Y513086D01*
X350306Y513834D01*
X350147Y514587D01*
X350007Y515343D01*
X349885Y516102D01*
X349782Y516864D01*
X349697Y517629D01*
X349632Y518395D01*
X349585Y519162D01*
X349556Y519931D01*
X349547Y520700D01*
X349556Y521469D01*
X349585Y522238D01*
X349632Y523005D01*
X349697Y523771D01*
X349782Y524536D01*
X349885Y525298D01*
X350007Y526057D01*
X350147Y526813D01*
X350306Y527566D01*
X350483Y528314D01*
X350678Y529058D01*
X350891Y529797D01*
X351123Y530530D01*
X351372Y531258D01*
X351639Y531979D01*
X351923Y532694D01*
X352225Y533401D01*
X352545Y534101D01*
X352881Y534792D01*
X353234Y535476D01*
X353603Y536150D01*
X353989Y536815D01*
X354391Y537471D01*
X354809Y538116D01*
X355243Y538752D01*
X355692Y539376D01*
X356156Y539989D01*
X356635Y540591D01*
X357129Y541181D01*
X357637Y541758D01*
X358158Y542323D01*
X358694Y542875D01*
X359243Y543414D01*
X359805Y543939D01*
X360379Y544450D01*
X360966Y544947D01*
X361565Y545430D01*
X362175Y545897D01*
X362797Y546350D01*
X363429Y546788D01*
X364072Y547209D01*
X364726Y547615D01*
X365389Y548005D01*
X366061Y548379D01*
X366742Y548736D01*
X367432Y549076D01*
X368129Y549399D01*
X368835Y549705D01*
X369548Y549994D01*
X370267Y550265D01*
X370993Y550519D01*
X371726Y550755D01*
X372463Y550972D01*
X373206Y551172D01*
X373953Y551353D01*
X374705Y551517D01*
X375460Y551661D01*
X376219Y551787D01*
X376980Y551895D01*
X377744Y551984D01*
X378510Y552054D01*
X379277Y552106D01*
X380046Y552139D01*
X380814Y552152D01*
X381583Y552148D01*
X382352Y552124D01*
X383120Y552081D01*
X383887Y552020D01*
X384652Y551940D01*
X385414Y551842D01*
X386174Y551724D01*
X386931Y551589D01*
X387685Y551434D01*
X388434Y551262D01*
X389179Y551071D01*
X389919Y550862D01*
X390654Y550635D01*
X391383Y550390D01*
X392106Y550127D01*
X392822Y549847D01*
X393531Y549549D01*
X394233Y549234D01*
X394926Y548902D01*
X395612Y548553D01*
X396288Y548187D01*
X396956Y547805D01*
X397614Y547407D01*
X398262Y546993D01*
X398899Y546563D01*
X399526Y546118D01*
X400142Y545657D01*
X400747Y545182D01*
X401339Y544692D01*
X401920Y544187D01*
X402488Y543669D01*
X403043Y543137D01*
X403585Y542591D01*
X404113Y542032D01*
X404628Y541461D01*
X405129Y540877D01*
X405615Y540281D01*
X406086Y539673D01*
X405894Y539529D01*
X405426Y540132D01*
X404944Y540724D01*
X404447Y541303D01*
X403936Y541870D01*
X403412Y542425D01*
X402874Y542966D01*
X402323Y543494D01*
X401760Y544009D01*
X401183Y544509D01*
X400595Y544996D01*
X399995Y545467D01*
X399384Y545924D01*
X398762Y546366D01*
X398129Y546793D01*
X397486Y547204D01*
X396833Y547599D01*
X396171Y547978D01*
X395499Y548341D01*
X394819Y548687D01*
X394131Y549017D01*
X393435Y549329D01*
X392731Y549625D01*
X392020Y549903D01*
X391303Y550164D01*
X390580Y550407D01*
X389850Y550632D01*
X389116Y550839D01*
X388377Y551029D01*
X387633Y551200D01*
X386885Y551353D01*
X386134Y551488D01*
X385380Y551604D01*
X384623Y551702D01*
X383864Y551781D01*
X383103Y551842D01*
X382341Y551884D01*
X381578Y551908D01*
X380815Y551912D01*
X380052Y551899D01*
X379290Y551866D01*
X378528Y551815D01*
X377768Y551745D01*
X377010Y551657D01*
X376255Y551550D01*
X375502Y551425D01*
X374752Y551281D01*
X374006Y551119D01*
X373265Y550939D01*
X372528Y550741D01*
X371796Y550525D01*
X371069Y550291D01*
X370349Y550039D01*
X369635Y549770D01*
X368927Y549484D01*
X368227Y549180D01*
X367535Y548859D01*
X366850Y548522D01*
X366174Y548167D01*
X365507Y547797D01*
X364849Y547410D01*
X364201Y547007D01*
X363563Y546588D01*
X362935Y546154D01*
X362318Y545705D01*
X361713Y545241D01*
X361118Y544762D01*
X360536Y544269D01*
X359966Y543761D01*
X359408Y543240D01*
X358864Y542706D01*
X358332Y542158D01*
X357815Y541597D01*
X357311Y541024D01*
X356821Y540439D01*
X356345Y539842D01*
X355885Y539233D01*
X355439Y538614D01*
X355009Y537983D01*
X354594Y537343D01*
X354195Y536692D01*
X353812Y536032D01*
X353445Y535363D01*
X353095Y534685D01*
X352762Y533998D01*
X352445Y533304D01*
X352145Y532602D01*
X351863Y531893D01*
X351598Y531177D01*
X351351Y530455D01*
X351121Y529727D01*
X350909Y528994D01*
X350715Y528256D01*
X350540Y527513D01*
X350382Y526767D01*
X350243Y526016D01*
X350122Y525263D01*
X350020Y524506D01*
X349936Y523748D01*
X349871Y522988D01*
X349824Y522226D01*
X349796Y521463D01*
X349787Y520700D01*
X349796Y519937D01*
X349824Y519174D01*
X349871Y518412D01*
X349936Y517652D01*
X350020Y516894D01*
X350122Y516137D01*
X350243Y515384D01*
X350382Y514633D01*
X350540Y513887D01*
X350715Y513144D01*
X350909Y512406D01*
X351121Y511673D01*
X351351Y510945D01*
X351598Y510223D01*
X351863Y509507D01*
X352145Y508798D01*
X352445Y508096D01*
X352762Y507402D01*
X353095Y506715D01*
X353445Y506037D01*
X353812Y505368D01*
X354195Y504708D01*
X354594Y504057D01*
X355009Y503417D01*
X355439Y502786D01*
X355885Y502167D01*
X356345Y501558D01*
X356821Y500961D01*
X357311Y500376D01*
X357815Y499803D01*
X358332Y499242D01*
X358864Y498694D01*
X359408Y498160D01*
X359966Y497639D01*
X360536Y497131D01*
X361118Y496638D01*
X361713Y496159D01*
X362318Y495695D01*
X362935Y495246D01*
X363563Y494812D01*
X364201Y494393D01*
X364849Y493990D01*
X365507Y493603D01*
X366174Y493233D01*
X366850Y492878D01*
X367535Y492541D01*
X368227Y492220D01*
X368927Y491916D01*
X369635Y491630D01*
X370349Y491361D01*
X371069Y491109D01*
X371796Y490875D01*
X372528Y490659D01*
X373265Y490461D01*
X374006Y490281D01*
X374752Y490119D01*
X375502Y489975D01*
X376255Y489850D01*
X377010Y489743D01*
X377768Y489655D01*
X378528Y489585D01*
X379290Y489534D01*
X380052Y489501D01*
X380815Y489488D01*
X381578Y489492D01*
X382341Y489516D01*
X383103Y489558D01*
X383864Y489619D01*
X384623Y489698D01*
X385380Y489796D01*
X386134Y489912D01*
X386885Y490047D01*
X387633Y490200D01*
X388377Y490371D01*
X389116Y490561D01*
X389850Y490768D01*
X390580Y490993D01*
X391303Y491236D01*
X392020Y491497D01*
X392731Y491775D01*
X393435Y492071D01*
X394131Y492383D01*
X394819Y492713D01*
X395499Y493059D01*
X396171Y493422D01*
X396833Y493801D01*
X397486Y494196D01*
X398129Y494607D01*
X398762Y495034D01*
X399384Y495476D01*
X399995Y495933D01*
X400595Y496404D01*
X401183Y496891D01*
X401760Y497391D01*
X402323Y497906D01*
X402874Y498434D01*
X403412Y498975D01*
X403936Y499530D01*
X404447Y500097D01*
X404944Y500676D01*
X405426Y501268D01*
X405894Y501871D01*
X405702Y502015D01*
X405238Y501416D01*
X404759Y500830D01*
X404266Y500255D01*
X403759Y499692D01*
X403239Y499142D01*
X402705Y498605D01*
X402159Y498080D01*
X401599Y497570D01*
X401028Y497073D01*
X400444Y496591D01*
X399849Y496123D01*
X399242Y495669D01*
X398625Y495231D01*
X397997Y494807D01*
X397359Y494399D01*
X396711Y494007D01*
X396053Y493631D01*
X395387Y493271D01*
X394712Y492928D01*
X394029Y492601D01*
X393338Y492291D01*
X392640Y491997D01*
X391935Y491721D01*
X391223Y491463D01*
X390505Y491222D01*
X389782Y490998D01*
X389053Y490792D01*
X388319Y490604D01*
X387581Y490434D01*
X386839Y490282D01*
X386094Y490149D01*
X385346Y490033D01*
X384595Y489936D01*
X383841Y489858D01*
X383086Y489797D01*
X382330Y489756D01*
X381573Y489732D01*
X380816Y489728D01*
X380059Y489741D01*
X379302Y489774D01*
X378547Y489824D01*
X377793Y489894D01*
X377040Y489981D01*
X376290Y490087D01*
X375543Y490211D01*
X374800Y490354D01*
X374060Y490515D01*
X373324Y490693D01*
X372592Y490890D01*
X371866Y491104D01*
X371145Y491337D01*
X370430Y491586D01*
X369722Y491853D01*
X369020Y492138D01*
X368325Y492439D01*
X367638Y492758D01*
X366959Y493093D01*
X366288Y493444D01*
X365626Y493812D01*
X364973Y494196D01*
X364330Y494596D01*
X363697Y495011D01*
X363074Y495442D01*
X362462Y495887D01*
X361861Y496348D01*
X361271Y496823D01*
X360693Y497313D01*
X360127Y497816D01*
X359574Y498333D01*
X359034Y498864D01*
X358507Y499407D01*
X357993Y499964D01*
X357493Y500532D01*
X357007Y501113D01*
X356535Y501706D01*
X356078Y502309D01*
X355636Y502924D01*
X355209Y503550D01*
X354797Y504185D01*
X354401Y504831D01*
X354021Y505486D01*
X353657Y506150D01*
X353310Y506823D01*
X352979Y507504D01*
X352664Y508193D01*
X352367Y508890D01*
X352087Y509593D01*
X351824Y510303D01*
X351579Y511020D01*
X351351Y511742D01*
X351141Y512470D01*
X350948Y513202D01*
X350774Y513939D01*
X350618Y514680D01*
X350480Y515425D01*
X350360Y516172D01*
X350258Y516923D01*
X350175Y517676D01*
X350110Y518430D01*
X350064Y519186D01*
X350036Y519943D01*
X350027Y520700D01*
X350036Y521457D01*
X350064Y522214D01*
X350110Y522970D01*
X350175Y523724D01*
X350258Y524477D01*
X350360Y525228D01*
X350480Y525975D01*
X350618Y526720D01*
X350774Y527461D01*
X350948Y528198D01*
X351141Y528930D01*
X351351Y529658D01*
X351579Y530380D01*
X351824Y531097D01*
X352087Y531807D01*
X352367Y532510D01*
X352664Y533207D01*
X352979Y533896D01*
X353310Y534577D01*
X353657Y535250D01*
X354021Y535914D01*
X354401Y536569D01*
X354797Y537215D01*
X355209Y537850D01*
X355636Y538476D01*
X356078Y539091D01*
X356535Y539694D01*
X357007Y540287D01*
X357493Y540868D01*
X357993Y541436D01*
X358507Y541993D01*
X359034Y542536D01*
X359574Y543067D01*
X360127Y543584D01*
X360693Y544087D01*
X361271Y544577D01*
X361861Y545052D01*
X362462Y545513D01*
X363074Y545958D01*
X363697Y546389D01*
X364330Y546804D01*
X364973Y547204D01*
X365626Y547588D01*
X366288Y547956D01*
X366959Y548307D01*
X367638Y548642D01*
X368325Y548961D01*
X369020Y549262D01*
X369722Y549547D01*
X370430Y549814D01*
X371145Y550063D01*
X371866Y550296D01*
X372592Y550510D01*
X373324Y550707D01*
X374060Y550885D01*
X374800Y551046D01*
X375543Y551189D01*
X376290Y551313D01*
X377040Y551419D01*
X377793Y551506D01*
X378547Y551576D01*
X379302Y551626D01*
X380059Y551659D01*
X380816Y551672D01*
X381573Y551668D01*
X382330Y551644D01*
X383086Y551603D01*
X383841Y551542D01*
X384595Y551464D01*
X385346Y551367D01*
X386094Y551251D01*
X386839Y551118D01*
X387581Y550966D01*
X388319Y550796D01*
X389053Y550608D01*
X389782Y550402D01*
X390505Y550178D01*
X391223Y549937D01*
X391935Y549679D01*
X392640Y549403D01*
X393338Y549109D01*
X394029Y548799D01*
X394712Y548472D01*
X395387Y548129D01*
X396053Y547769D01*
X396711Y547393D01*
X397359Y547001D01*
X397997Y546593D01*
X398625Y546169D01*
X399242Y545731D01*
X399849Y545277D01*
X400444Y544809D01*
X401028Y544327D01*
X401599Y543830D01*
X402159Y543320D01*
X402705Y542795D01*
X403239Y542258D01*
X403759Y541708D01*
X404266Y541145D01*
X404759Y540570D01*
X405238Y539984D01*
X405702Y539385D01*
X405510Y539241D01*
X405049Y539835D01*
X404574Y540417D01*
X404085Y540988D01*
X403582Y541546D01*
X403066Y542092D01*
X402536Y542625D01*
X401994Y543145D01*
X401439Y543651D01*
X400872Y544144D01*
X400293Y544623D01*
X399702Y545088D01*
X399100Y545538D01*
X398487Y545973D01*
X397864Y546393D01*
X397231Y546797D01*
X396588Y547186D01*
X395936Y547559D01*
X395275Y547917D01*
X394605Y548257D01*
X393928Y548582D01*
X393242Y548890D01*
X392549Y549180D01*
X391849Y549454D01*
X391143Y549711D01*
X390431Y549950D01*
X389713Y550172D01*
X388990Y550376D01*
X388262Y550563D01*
X387530Y550731D01*
X386793Y550882D01*
X386054Y551015D01*
X385311Y551129D01*
X384566Y551225D01*
X383819Y551303D01*
X383070Y551363D01*
X382319Y551405D01*
X381568Y551428D01*
X380817Y551432D01*
X380066Y551419D01*
X379315Y551387D01*
X378565Y551336D01*
X377817Y551268D01*
X377070Y551181D01*
X376326Y551076D01*
X375585Y550952D01*
X374847Y550811D01*
X374113Y550651D01*
X373383Y550474D01*
X372657Y550279D01*
X371936Y550066D01*
X371221Y549836D01*
X370512Y549588D01*
X369809Y549323D01*
X369112Y549041D01*
X368423Y548742D01*
X367741Y548426D01*
X367067Y548093D01*
X366402Y547745D01*
X365745Y547380D01*
X365097Y546999D01*
X364459Y546602D01*
X363831Y546190D01*
X363213Y545762D01*
X362605Y545320D01*
X362009Y544863D01*
X361424Y544391D01*
X360850Y543906D01*
X360289Y543406D01*
X359740Y542893D01*
X359204Y542367D01*
X358681Y541827D01*
X358171Y541275D01*
X357675Y540711D01*
X357192Y540135D01*
X356724Y539547D01*
X356271Y538948D01*
X355832Y538338D01*
X355408Y537717D01*
X355000Y537086D01*
X354607Y536446D01*
X354230Y535796D01*
X353869Y535137D01*
X353524Y534469D01*
X353196Y533793D01*
X352884Y533110D01*
X352589Y532419D01*
X352311Y531721D01*
X352050Y531016D01*
X351807Y530305D01*
X351580Y529588D01*
X351372Y528867D01*
X351181Y528140D01*
X351008Y527409D01*
X350853Y526673D01*
X350716Y525934D01*
X350597Y525192D01*
X350496Y524448D01*
X350414Y523701D01*
X350350Y522952D01*
X350304Y522202D01*
X350276Y521451D01*
X350267Y520700D01*
X350276Y519949D01*
X350304Y519198D01*
X350350Y518448D01*
X350414Y517699D01*
X350496Y516952D01*
X350597Y516208D01*
X350716Y515466D01*
X350853Y514727D01*
X351008Y513991D01*
X351181Y513260D01*
X351372Y512533D01*
X351580Y511812D01*
X351807Y511095D01*
X352050Y510384D01*
X352311Y509679D01*
X352589Y508981D01*
X352884Y508290D01*
X353196Y507607D01*
X353524Y506931D01*
X353869Y506263D01*
X354230Y505604D01*
X354607Y504954D01*
X355000Y504314D01*
X355408Y503683D01*
X355832Y503062D01*
X356271Y502452D01*
X356724Y501853D01*
X357192Y501265D01*
X357675Y500689D01*
X358171Y500125D01*
X358681Y499573D01*
X359204Y499033D01*
X359740Y498507D01*
X360289Y497994D01*
X360850Y497494D01*
X361424Y497009D01*
X362009Y496537D01*
X362605Y496080D01*
X363213Y495638D01*
X363831Y495210D01*
X364459Y494798D01*
X365097Y494401D01*
X365745Y494020D01*
X366402Y493655D01*
X367067Y493307D01*
X367741Y492974D01*
X368423Y492658D01*
X369112Y492359D01*
X369809Y492077D01*
X370512Y491812D01*
X371221Y491564D01*
X371936Y491334D01*
X372657Y491121D01*
X373383Y490926D01*
X374113Y490749D01*
X374847Y490589D01*
X375585Y490448D01*
X376326Y490324D01*
X377070Y490219D01*
X377817Y490132D01*
X378565Y490064D01*
X379315Y490013D01*
X380066Y489981D01*
X380817Y489968D01*
X381568Y489972D01*
X382319Y489995D01*
X383070Y490037D01*
X383819Y490097D01*
X384566Y490175D01*
X385311Y490271D01*
X386054Y490385D01*
X386793Y490518D01*
X387530Y490669D01*
X388262Y490837D01*
X388990Y491024D01*
X389713Y491228D01*
X390431Y491450D01*
X391143Y491689D01*
X391849Y491946D01*
X392549Y492220D01*
X393242Y492510D01*
X393928Y492818D01*
X394605Y493143D01*
X395275Y493483D01*
X395936Y493841D01*
X396588Y494214D01*
X397231Y494603D01*
X397864Y495007D01*
X398487Y495427D01*
X399100Y495862D01*
X399702Y496312D01*
X400293Y496777D01*
X400872Y497256D01*
X401439Y497749D01*
X401994Y498255D01*
X402536Y498775D01*
X403066Y499308D01*
X403582Y499854D01*
X404085Y500412D01*
X404574Y500983D01*
X405049Y501565D01*
X405510Y502159D01*
D13*
X355600Y520700D02*
X355608Y521323D01*
X355631Y521946D01*
X355669Y522569D01*
X355722Y523190D01*
X355791Y523809D01*
X355875Y524427D01*
X355974Y525042D01*
X356088Y525655D01*
X356217Y526265D01*
X356361Y526872D01*
X356520Y527475D01*
X356694Y528073D01*
X356882Y528668D01*
X357085Y529257D01*
X357302Y529841D01*
X357533Y530420D01*
X357779Y530993D01*
X358039Y531560D01*
X358312Y532120D01*
X358599Y532673D01*
X358900Y533220D01*
X359214Y533758D01*
X359541Y534289D01*
X359881Y534811D01*
X360233Y535326D01*
X360599Y535831D01*
X360976Y536327D01*
X361366Y536814D01*
X361767Y537291D01*
X362180Y537758D01*
X362604Y538214D01*
X363039Y538661D01*
X363486Y539096D01*
X363942Y539520D01*
X364409Y539933D01*
X364886Y540334D01*
X365373Y540724D01*
X365869Y541101D01*
X366374Y541467D01*
X366889Y541819D01*
X367411Y542159D01*
X367942Y542486D01*
X368480Y542800D01*
X369027Y543101D01*
X369580Y543388D01*
X370140Y543661D01*
X370707Y543921D01*
X371280Y544167D01*
X371859Y544398D01*
X372443Y544615D01*
X373032Y544818D01*
X373627Y545006D01*
X374225Y545180D01*
X374828Y545339D01*
X375435Y545483D01*
X376045Y545612D01*
X376658Y545726D01*
X377273Y545825D01*
X377891Y545909D01*
X378510Y545978D01*
X379131Y546031D01*
X379754Y546069D01*
X380377Y546092D01*
X381000Y546100D01*
X381623Y546092D01*
X382246Y546069D01*
X382869Y546031D01*
X383490Y545978D01*
X384109Y545909D01*
X384727Y545825D01*
X385342Y545726D01*
X385955Y545612D01*
X386565Y545483D01*
X387172Y545339D01*
X387775Y545180D01*
X388373Y545006D01*
X388968Y544818D01*
X389557Y544615D01*
X390141Y544398D01*
X390720Y544167D01*
X391293Y543921D01*
X391860Y543661D01*
X392420Y543388D01*
X392973Y543101D01*
X393520Y542800D01*
X394058Y542486D01*
X394589Y542159D01*
X395111Y541819D01*
X395626Y541467D01*
X396131Y541101D01*
X396627Y540724D01*
X397114Y540334D01*
X397591Y539933D01*
X398058Y539520D01*
X398514Y539096D01*
X398961Y538661D01*
X399396Y538214D01*
X399820Y537758D01*
X400233Y537291D01*
X400634Y536814D01*
X401024Y536327D01*
X401401Y535831D01*
X401767Y535326D01*
X402119Y534811D01*
X402459Y534289D01*
X402786Y533758D01*
X403100Y533220D01*
X403401Y532673D01*
X403688Y532120D01*
X403961Y531560D01*
X404221Y530993D01*
X404467Y530420D01*
X404698Y529841D01*
X404915Y529257D01*
X405118Y528668D01*
X405306Y528073D01*
X405480Y527475D01*
X405639Y526872D01*
X405783Y526265D01*
X405912Y525655D01*
X406026Y525042D01*
X406125Y524427D01*
X406209Y523809D01*
X406278Y523190D01*
X406331Y522569D01*
X406369Y521946D01*
X406392Y521323D01*
X406400Y520700D01*
X406392Y520077D01*
X406369Y519454D01*
X406331Y518831D01*
X406278Y518210D01*
X406209Y517591D01*
X406125Y516973D01*
X406026Y516358D01*
X405912Y515745D01*
X405783Y515135D01*
X405639Y514528D01*
X405480Y513925D01*
X405306Y513327D01*
X405118Y512732D01*
X404915Y512143D01*
X404698Y511559D01*
X404467Y510980D01*
X404221Y510407D01*
X403961Y509840D01*
X403688Y509280D01*
X403401Y508727D01*
X403100Y508180D01*
X402786Y507642D01*
X402459Y507111D01*
X402119Y506589D01*
X401767Y506074D01*
X401401Y505569D01*
X401024Y505073D01*
X400634Y504586D01*
X400233Y504109D01*
X399820Y503642D01*
X399396Y503186D01*
X398961Y502739D01*
X398514Y502304D01*
X398058Y501880D01*
X397591Y501467D01*
X397114Y501066D01*
X396627Y500676D01*
X396131Y500299D01*
X395626Y499933D01*
X395111Y499581D01*
X394589Y499241D01*
X394058Y498914D01*
X393520Y498600D01*
X392973Y498299D01*
X392420Y498012D01*
X391860Y497739D01*
X391293Y497479D01*
X390720Y497233D01*
X390141Y497002D01*
X389557Y496785D01*
X388968Y496582D01*
X388373Y496394D01*
X387775Y496220D01*
X387172Y496061D01*
X386565Y495917D01*
X385955Y495788D01*
X385342Y495674D01*
X384727Y495575D01*
X384109Y495491D01*
X383490Y495422D01*
X382869Y495369D01*
X382246Y495331D01*
X381623Y495308D01*
X381000Y495300D01*
X380377Y495308D01*
X379754Y495331D01*
X379131Y495369D01*
X378510Y495422D01*
X377891Y495491D01*
X377273Y495575D01*
X376658Y495674D01*
X376045Y495788D01*
X375435Y495917D01*
X374828Y496061D01*
X374225Y496220D01*
X373627Y496394D01*
X373032Y496582D01*
X372443Y496785D01*
X371859Y497002D01*
X371280Y497233D01*
X370707Y497479D01*
X370140Y497739D01*
X369580Y498012D01*
X369027Y498299D01*
X368480Y498600D01*
X367942Y498914D01*
X367411Y499241D01*
X366889Y499581D01*
X366374Y499933D01*
X365869Y500299D01*
X365373Y500676D01*
X364886Y501066D01*
X364409Y501467D01*
X363942Y501880D01*
X363486Y502304D01*
X363039Y502739D01*
X362604Y503186D01*
X362180Y503642D01*
X361767Y504109D01*
X361366Y504586D01*
X360976Y505073D01*
X360599Y505569D01*
X360233Y506074D01*
X359881Y506589D01*
X359541Y507111D01*
X359214Y507642D01*
X358900Y508180D01*
X358599Y508727D01*
X358312Y509280D01*
X358039Y509840D01*
X357779Y510407D01*
X357533Y510980D01*
X357302Y511559D01*
X357085Y512143D01*
X356882Y512732D01*
X356694Y513327D01*
X356520Y513925D01*
X356361Y514528D01*
X356217Y515135D01*
X356088Y515745D01*
X355974Y516358D01*
X355875Y516973D01*
X355791Y517591D01*
X355722Y518210D01*
X355669Y518831D01*
X355631Y519454D01*
X355608Y520077D01*
X355600Y520700D01*
D11*
X376825Y555244D02*
X376825Y560070D01*
X378165Y560070D01*
X378235Y560068D01*
X378305Y560063D01*
X378375Y560053D01*
X378444Y560041D01*
X378512Y560024D01*
X378579Y560004D01*
X378646Y559981D01*
X378710Y559954D01*
X378774Y559924D01*
X378836Y559890D01*
X378895Y559854D01*
X378953Y559814D01*
X379009Y559771D01*
X379062Y559726D01*
X379113Y559677D01*
X379162Y559626D01*
X379207Y559573D01*
X379250Y559517D01*
X379290Y559459D01*
X379326Y559400D01*
X379360Y559338D01*
X379390Y559274D01*
X379417Y559210D01*
X379440Y559143D01*
X379460Y559076D01*
X379477Y559008D01*
X379489Y558939D01*
X379499Y558869D01*
X379504Y558799D01*
X379506Y558729D01*
X379506Y556585D01*
X379504Y556515D01*
X379499Y556445D01*
X379489Y556375D01*
X379477Y556306D01*
X379460Y556238D01*
X379440Y556171D01*
X379417Y556104D01*
X379390Y556040D01*
X379360Y555976D01*
X379326Y555914D01*
X379290Y555855D01*
X379250Y555797D01*
X379207Y555741D01*
X379162Y555688D01*
X379113Y555637D01*
X379062Y555588D01*
X379009Y555543D01*
X378953Y555500D01*
X378895Y555460D01*
X378835Y555424D01*
X378774Y555390D01*
X378710Y555360D01*
X378646Y555333D01*
X378579Y555310D01*
X378512Y555290D01*
X378444Y555273D01*
X378375Y555261D01*
X378305Y555251D01*
X378235Y555246D01*
X378165Y555244D01*
X376825Y555244D01*
X382494Y558998D02*
X383835Y560070D01*
X383835Y555244D01*
X385175Y555244D02*
X382494Y555244D01*
D13*
X492760Y566420D02*
X514350Y566420D01*
X514352Y566262D01*
X514358Y566103D01*
X514368Y565945D01*
X514382Y565788D01*
X514399Y565630D01*
X514421Y565474D01*
X514446Y565317D01*
X514476Y565162D01*
X514509Y565007D01*
X514546Y564853D01*
X514587Y564700D01*
X514632Y564548D01*
X514681Y564398D01*
X514733Y564248D01*
X514789Y564100D01*
X514849Y563953D01*
X514912Y563808D01*
X514979Y563665D01*
X515049Y563523D01*
X515123Y563383D01*
X515201Y563245D01*
X515282Y563109D01*
X515366Y562975D01*
X515453Y562843D01*
X515544Y562713D01*
X515638Y562586D01*
X515735Y562461D01*
X515836Y562338D01*
X515939Y562218D01*
X516045Y562101D01*
X516154Y561986D01*
X516266Y561874D01*
X516381Y561765D01*
X516498Y561659D01*
X516618Y561556D01*
X516741Y561455D01*
X516866Y561358D01*
X516993Y561264D01*
X517123Y561173D01*
X517255Y561086D01*
X517389Y561002D01*
X517525Y560921D01*
X517663Y560843D01*
X517803Y560769D01*
X517945Y560699D01*
X518088Y560632D01*
X518233Y560569D01*
X518380Y560509D01*
X518528Y560453D01*
X518678Y560401D01*
X518828Y560352D01*
X518980Y560307D01*
X519133Y560266D01*
X519287Y560229D01*
X519442Y560196D01*
X519597Y560166D01*
X519754Y560141D01*
X519910Y560119D01*
X520068Y560102D01*
X520225Y560088D01*
X520383Y560078D01*
X520542Y560072D01*
X520700Y560070D01*
X520858Y560072D01*
X521017Y560078D01*
X521175Y560088D01*
X521332Y560102D01*
X521490Y560119D01*
X521646Y560141D01*
X521803Y560166D01*
X521958Y560196D01*
X522113Y560229D01*
X522267Y560266D01*
X522420Y560307D01*
X522572Y560352D01*
X522722Y560401D01*
X522872Y560453D01*
X523020Y560509D01*
X523167Y560569D01*
X523312Y560632D01*
X523455Y560699D01*
X523597Y560769D01*
X523737Y560843D01*
X523875Y560921D01*
X524011Y561002D01*
X524145Y561086D01*
X524277Y561173D01*
X524407Y561264D01*
X524534Y561358D01*
X524659Y561455D01*
X524782Y561556D01*
X524902Y561659D01*
X525019Y561765D01*
X525134Y561874D01*
X525246Y561986D01*
X525355Y562101D01*
X525461Y562218D01*
X525564Y562338D01*
X525665Y562461D01*
X525762Y562586D01*
X525856Y562713D01*
X525947Y562843D01*
X526034Y562975D01*
X526118Y563109D01*
X526199Y563245D01*
X526277Y563383D01*
X526351Y563523D01*
X526421Y563665D01*
X526488Y563808D01*
X526551Y563953D01*
X526611Y564100D01*
X526667Y564248D01*
X526719Y564398D01*
X526768Y564548D01*
X526813Y564700D01*
X526854Y564853D01*
X526891Y565007D01*
X526924Y565162D01*
X526954Y565317D01*
X526979Y565474D01*
X527001Y565630D01*
X527018Y565788D01*
X527032Y565945D01*
X527042Y566103D01*
X527048Y566262D01*
X527050Y566420D01*
X492760Y566420D02*
X492760Y195580D01*
X527050Y566420D02*
X548640Y566420D01*
X548640Y195580D01*
X492760Y195580D01*
D14*
X497967Y573913D02*
X497967Y589915D01*
X496189Y573913D02*
X499745Y573913D01*
X499745Y589915D02*
X496189Y589915D01*
X509539Y573913D02*
X513095Y573913D01*
X509539Y573913D02*
X509423Y573915D01*
X509306Y573921D01*
X509190Y573930D01*
X509075Y573943D01*
X508960Y573960D01*
X508845Y573981D01*
X508732Y574006D01*
X508619Y574034D01*
X508507Y574066D01*
X508396Y574102D01*
X508286Y574141D01*
X508178Y574184D01*
X508071Y574230D01*
X507966Y574280D01*
X507863Y574333D01*
X507761Y574389D01*
X507661Y574449D01*
X507563Y574512D01*
X507468Y574579D01*
X507374Y574648D01*
X507283Y574720D01*
X507194Y574795D01*
X507108Y574874D01*
X507025Y574955D01*
X506944Y575038D01*
X506865Y575124D01*
X506790Y575213D01*
X506718Y575304D01*
X506649Y575398D01*
X506582Y575493D01*
X506519Y575591D01*
X506459Y575691D01*
X506403Y575793D01*
X506350Y575896D01*
X506300Y576001D01*
X506254Y576108D01*
X506211Y576216D01*
X506172Y576326D01*
X506136Y576437D01*
X506104Y576549D01*
X506076Y576662D01*
X506051Y576775D01*
X506030Y576890D01*
X506013Y577005D01*
X506000Y577120D01*
X505991Y577236D01*
X505985Y577353D01*
X505983Y577469D01*
X505983Y586359D01*
X505985Y586475D01*
X505991Y586592D01*
X506000Y586708D01*
X506013Y586823D01*
X506030Y586938D01*
X506051Y587053D01*
X506076Y587166D01*
X506104Y587279D01*
X506136Y587391D01*
X506172Y587502D01*
X506211Y587612D01*
X506254Y587720D01*
X506300Y587827D01*
X506350Y587932D01*
X506403Y588035D01*
X506459Y588137D01*
X506519Y588237D01*
X506582Y588335D01*
X506649Y588430D01*
X506718Y588524D01*
X506790Y588615D01*
X506865Y588704D01*
X506944Y588790D01*
X507025Y588873D01*
X507108Y588954D01*
X507194Y589033D01*
X507283Y589108D01*
X507374Y589180D01*
X507468Y589249D01*
X507563Y589316D01*
X507661Y589379D01*
X507761Y589439D01*
X507863Y589495D01*
X507966Y589548D01*
X508071Y589598D01*
X508178Y589644D01*
X508286Y589687D01*
X508396Y589726D01*
X508507Y589762D01*
X508619Y589794D01*
X508732Y589822D01*
X508845Y589847D01*
X508960Y589868D01*
X509075Y589885D01*
X509190Y589898D01*
X509306Y589907D01*
X509423Y589913D01*
X509539Y589915D01*
X513095Y589915D01*
X519053Y586359D02*
X523498Y589915D01*
X523498Y573913D01*
X519053Y573913D02*
X527943Y573913D01*
D10*
X673100Y260350D02*
X666750Y254000D01*
X673100Y273050D02*
X666750Y279400D01*
X673100Y285750D01*
X673100Y298450D02*
X666750Y304800D01*
X673100Y311150D01*
X673100Y323850D02*
X666750Y330200D01*
X666750Y254000D02*
X628650Y254000D01*
X622300Y260350D01*
X622300Y273050D01*
X628650Y279400D01*
X622300Y285750D01*
X622300Y298450D01*
X628650Y304800D01*
X622300Y311150D01*
X622300Y323850D01*
X628650Y330200D01*
X628650Y279400D02*
X666750Y279400D01*
X666750Y304800D02*
X628650Y304800D01*
X628650Y330200D02*
X666750Y330200D01*
X673100Y323850D02*
X673100Y311150D01*
X673100Y298450D02*
X673100Y285750D01*
X673100Y273050D02*
X673100Y260350D01*
X676450Y260350D02*
X676450Y273050D01*
D11*
X618053Y256244D02*
X614299Y256244D01*
X618053Y256243D02*
X618118Y256241D01*
X618182Y256235D01*
X618246Y256225D01*
X618310Y256212D01*
X618372Y256194D01*
X618433Y256173D01*
X618493Y256149D01*
X618551Y256120D01*
X618608Y256088D01*
X618662Y256053D01*
X618714Y256015D01*
X618764Y255973D01*
X618811Y255929D01*
X618855Y255882D01*
X618897Y255832D01*
X618935Y255780D01*
X618970Y255726D01*
X619002Y255669D01*
X619031Y255611D01*
X619055Y255551D01*
X619076Y255490D01*
X619094Y255428D01*
X619107Y255364D01*
X619117Y255300D01*
X619123Y255236D01*
X619125Y255171D01*
X619125Y254635D01*
X615371Y259192D02*
X614299Y260532D01*
X619125Y260532D01*
X619125Y259192D02*
X619125Y261873D01*
X618236Y549910D02*
X843280Y549910D01*
X908304Y549910D01*
X908304Y400050D01*
X843280Y400050D01*
X618236Y400050D01*
X618236Y549910D01*
X622300Y539750D02*
X628650Y546100D01*
X666750Y546100D01*
X673100Y539750D01*
X673100Y527050D01*
X666750Y520700D01*
X673100Y514350D01*
X673100Y501650D01*
X666750Y495300D01*
X673100Y488950D01*
X673100Y476250D01*
X666750Y469900D01*
X673100Y463550D01*
X673100Y450850D01*
X666750Y444500D01*
X654050Y444500D01*
X647700Y450850D01*
X641350Y444500D01*
X628650Y444500D01*
X622300Y450850D01*
X622300Y463550D01*
X628650Y469900D01*
X622300Y476250D01*
X622300Y488950D01*
X628650Y495300D01*
X622300Y501650D01*
X622300Y514350D01*
X628650Y520700D01*
X622300Y527050D01*
X622300Y539750D01*
X843280Y549910D02*
X843280Y400050D01*
D13*
X866902Y428607D02*
X883158Y423189D01*
X883158Y434026D02*
X866902Y428607D01*
X879094Y432671D02*
X879094Y424543D01*
X883158Y440244D02*
X866902Y440244D01*
X883158Y449275D01*
X866902Y449275D01*
X866902Y459870D02*
X883158Y459870D01*
X866902Y455354D02*
X866902Y464385D01*
X883158Y470494D02*
X883158Y477719D01*
X883158Y470494D02*
X866902Y470494D01*
X866902Y477719D01*
X874127Y475913D02*
X874127Y470494D01*
X866902Y484012D02*
X883158Y484012D01*
X883158Y493043D02*
X866902Y484012D01*
X866902Y493043D02*
X883158Y493043D01*
X883158Y500685D02*
X866902Y500685D01*
X883158Y509716D01*
X866902Y509716D01*
X866902Y521353D02*
X883158Y515934D01*
X883158Y526771D02*
X866902Y521353D01*
X879094Y525417D02*
X879094Y517289D01*
D10*
X431800Y579120D02*
X381000Y579120D01*
X431800Y579120D02*
X431800Y571500D01*
X431800Y563880D01*
X381000Y563880D01*
X381000Y571500D01*
X381000Y579120D01*
X431800Y571500D02*
X434340Y571500D01*
X381000Y571500D02*
X378460Y571500D01*
D11*
X402348Y582295D02*
X402348Y587121D01*
X403689Y587121D01*
X403760Y587119D01*
X403832Y587113D01*
X403902Y587104D01*
X403972Y587091D01*
X404042Y587074D01*
X404110Y587053D01*
X404177Y587029D01*
X404243Y587001D01*
X404307Y586970D01*
X404370Y586935D01*
X404430Y586897D01*
X404489Y586856D01*
X404545Y586812D01*
X404599Y586765D01*
X404650Y586716D01*
X404698Y586663D01*
X404744Y586608D01*
X404786Y586551D01*
X404826Y586491D01*
X404862Y586430D01*
X404895Y586366D01*
X404924Y586301D01*
X404950Y586235D01*
X404973Y586167D01*
X404992Y586098D01*
X405007Y586028D01*
X405018Y585958D01*
X405026Y585887D01*
X405030Y585816D01*
X405030Y585744D01*
X405026Y585673D01*
X405018Y585602D01*
X405007Y585532D01*
X404992Y585462D01*
X404973Y585393D01*
X404950Y585325D01*
X404924Y585259D01*
X404895Y585194D01*
X404862Y585130D01*
X404826Y585069D01*
X404786Y585009D01*
X404744Y584952D01*
X404698Y584897D01*
X404650Y584844D01*
X404599Y584795D01*
X404545Y584748D01*
X404489Y584704D01*
X404430Y584663D01*
X404370Y584625D01*
X404307Y584590D01*
X404243Y584559D01*
X404177Y584531D01*
X404110Y584507D01*
X404042Y584486D01*
X403972Y584469D01*
X403902Y584456D01*
X403832Y584447D01*
X403760Y584441D01*
X403689Y584439D01*
X403689Y584440D02*
X402348Y584440D01*
X403957Y584440D02*
X405029Y582295D01*
X407771Y586049D02*
X409111Y587121D01*
X409111Y582295D01*
X407771Y582295D02*
X410452Y582295D01*
D10*
X416560Y389890D02*
X416560Y321310D01*
X370840Y321310D02*
X370840Y389890D01*
X370847Y390447D01*
X370867Y391003D01*
X370901Y391559D01*
X370948Y392113D01*
X371009Y392667D01*
X371084Y393218D01*
X371171Y393768D01*
X371272Y394316D01*
X371387Y394860D01*
X371515Y395402D01*
X371655Y395941D01*
X371809Y396476D01*
X371976Y397007D01*
X372156Y397534D01*
X372348Y398056D01*
X372554Y398574D01*
X372771Y399086D01*
X373001Y399593D01*
X373244Y400094D01*
X373498Y400589D01*
X373765Y401078D01*
X374043Y401560D01*
X374333Y402035D01*
X374635Y402503D01*
X374948Y402964D01*
X375272Y403417D01*
X375606Y403861D01*
X375952Y404298D01*
X376308Y404726D01*
X376675Y405145D01*
X377051Y405555D01*
X377437Y405956D01*
X377833Y406347D01*
X378239Y406728D01*
X378654Y407100D01*
X379077Y407461D01*
X379509Y407812D01*
X379950Y408152D01*
X380399Y408482D01*
X380855Y408800D01*
X381320Y409107D01*
X381791Y409403D01*
X382270Y409687D01*
X382755Y409960D01*
X383247Y410220D01*
X383746Y410469D01*
X384250Y410705D01*
X384759Y410929D01*
X385274Y411141D01*
X385794Y411339D01*
X386319Y411526D01*
X386848Y411699D01*
X387381Y411859D01*
X387918Y412007D01*
X388458Y412141D01*
X389002Y412262D01*
X389548Y412370D01*
X390096Y412464D01*
X390647Y412545D01*
X391200Y412613D01*
X391754Y412667D01*
X392309Y412708D01*
X392865Y412735D01*
X393422Y412748D01*
X393978Y412748D01*
X394535Y412735D01*
X395091Y412708D01*
X395646Y412667D01*
X396200Y412613D01*
X396753Y412545D01*
X397304Y412464D01*
X397852Y412370D01*
X398398Y412262D01*
X398942Y412141D01*
X399482Y412007D01*
X400019Y411859D01*
X400552Y411699D01*
X401081Y411526D01*
X401606Y411339D01*
X402126Y411141D01*
X402641Y410929D01*
X403150Y410705D01*
X403654Y410469D01*
X404153Y410220D01*
X404645Y409960D01*
X405130Y409687D01*
X405609Y409403D01*
X406080Y409107D01*
X406545Y408800D01*
X407001Y408482D01*
X407450Y408152D01*
X407891Y407812D01*
X408323Y407461D01*
X408746Y407100D01*
X409161Y406728D01*
X409567Y406347D01*
X409963Y405956D01*
X410349Y405555D01*
X410725Y405145D01*
X411092Y404726D01*
X411448Y404298D01*
X411794Y403861D01*
X412128Y403417D01*
X412452Y402964D01*
X412765Y402503D01*
X413067Y402035D01*
X413357Y401560D01*
X413635Y401078D01*
X413902Y400589D01*
X414156Y400094D01*
X414399Y399593D01*
X414629Y399086D01*
X414846Y398574D01*
X415052Y398056D01*
X415244Y397534D01*
X415424Y397007D01*
X415591Y396476D01*
X415745Y395941D01*
X415885Y395402D01*
X416013Y394860D01*
X416128Y394316D01*
X416229Y393768D01*
X416316Y393218D01*
X416391Y392667D01*
X416452Y392113D01*
X416499Y391559D01*
X416533Y391003D01*
X416553Y390447D01*
X416560Y389890D01*
X416560Y321310D02*
X416553Y320753D01*
X416533Y320197D01*
X416499Y319641D01*
X416452Y319087D01*
X416391Y318533D01*
X416316Y317982D01*
X416229Y317432D01*
X416128Y316884D01*
X416013Y316340D01*
X415885Y315798D01*
X415745Y315259D01*
X415591Y314724D01*
X415424Y314193D01*
X415244Y313666D01*
X415052Y313144D01*
X414846Y312626D01*
X414629Y312114D01*
X414399Y311607D01*
X414156Y311106D01*
X413902Y310611D01*
X413635Y310122D01*
X413357Y309640D01*
X413067Y309165D01*
X412765Y308697D01*
X412452Y308236D01*
X412128Y307783D01*
X411794Y307339D01*
X411448Y306902D01*
X411092Y306474D01*
X410725Y306055D01*
X410349Y305645D01*
X409963Y305244D01*
X409567Y304853D01*
X409161Y304472D01*
X408746Y304100D01*
X408323Y303739D01*
X407891Y303388D01*
X407450Y303048D01*
X407001Y302718D01*
X406545Y302400D01*
X406080Y302093D01*
X405609Y301797D01*
X405130Y301513D01*
X404645Y301240D01*
X404153Y300980D01*
X403654Y300731D01*
X403150Y300495D01*
X402641Y300271D01*
X402126Y300059D01*
X401606Y299861D01*
X401081Y299674D01*
X400552Y299501D01*
X400019Y299341D01*
X399482Y299193D01*
X398942Y299059D01*
X398398Y298938D01*
X397852Y298830D01*
X397304Y298736D01*
X396753Y298655D01*
X396200Y298587D01*
X395646Y298533D01*
X395091Y298492D01*
X394535Y298465D01*
X393978Y298452D01*
X393422Y298452D01*
X392865Y298465D01*
X392309Y298492D01*
X391754Y298533D01*
X391200Y298587D01*
X390647Y298655D01*
X390096Y298736D01*
X389548Y298830D01*
X389002Y298938D01*
X388458Y299059D01*
X387918Y299193D01*
X387381Y299341D01*
X386848Y299501D01*
X386319Y299674D01*
X385794Y299861D01*
X385274Y300059D01*
X384759Y300271D01*
X384250Y300495D01*
X383746Y300731D01*
X383247Y300980D01*
X382755Y301240D01*
X382270Y301513D01*
X381791Y301797D01*
X381320Y302093D01*
X380855Y302400D01*
X380399Y302718D01*
X379950Y303048D01*
X379509Y303388D01*
X379077Y303739D01*
X378654Y304100D01*
X378239Y304472D01*
X377833Y304853D01*
X377437Y305244D01*
X377051Y305645D01*
X376675Y306055D01*
X376308Y306474D01*
X375952Y306902D01*
X375606Y307339D01*
X375272Y307783D01*
X374948Y308236D01*
X374635Y308697D01*
X374333Y309165D01*
X374043Y309640D01*
X373765Y310122D01*
X373498Y310611D01*
X373244Y311106D01*
X373001Y311607D01*
X372771Y312114D01*
X372554Y312626D01*
X372348Y313144D01*
X372156Y313666D01*
X371976Y314193D01*
X371809Y314724D01*
X371655Y315259D01*
X371515Y315798D01*
X371387Y316340D01*
X371272Y316884D01*
X371171Y317432D01*
X371084Y317982D01*
X371009Y318533D01*
X370948Y319087D01*
X370901Y319641D01*
X370867Y320197D01*
X370847Y320753D01*
X370840Y321310D01*
D11*
X362839Y351382D02*
X365118Y352991D01*
X362839Y354600D01*
X365118Y352991D02*
X367665Y352991D01*
X363911Y357137D02*
X362839Y358477D01*
X367665Y358477D01*
X367665Y357137D02*
X367665Y359818D01*
M02*
